<svg width="299" height="177" viewBox="0 0 299 177" fill="none" xmlns="http://www.w3.org/2000/svg">
<g opacity="0.5">
<path opacity="0.5" d="M146.621 23.459H40.7266V166.087H146.621V23.459Z" fill="url(#paint0_linear_3659_10522)"/>
</g>
<path d="M144.691 25.3945H42.1064V163.046H144.691V25.3945Z" fill="#F2F2F2"/>
<path d="M85.4009 31.1992H50.1035V32.3043H85.4009V31.1992Z" fill="#E0E0E0"/>
<path opacity="0.7" d="M85.4009 36.1738H50.1035V37.2789H85.4009V36.1738Z" fill="#6C63FF"/>
<path d="M125.938 31.1992H90.6406V32.3043H125.938V31.1992Z" fill="#E0E0E0"/>
<path d="M131.453 62.7109H96.1553V63.816H131.453V62.7109Z" fill="#E0E0E0"/>
<path d="M132.28 65.75H96.9824V66.8551H132.28V65.75Z" fill="#E0E0E0"/>
<path d="M133.935 68.7891H98.6372V69.8941H133.935V68.7891Z" fill="#E0E0E0"/>
<path d="M131.453 111.635H96.1553V112.74H131.453V111.635Z" fill="#E0E0E0"/>
<path d="M132.28 114.676H96.9824V115.781H132.28V114.676Z" fill="#E0E0E0"/>
<path d="M133.935 117.715H98.6372V118.82H133.935V117.715Z" fill="#E0E0E0"/>
<g opacity="0.5">
<path opacity="0.5" d="M87.883 51.377H50.3784V89.5208H87.883V51.377Z" fill="url(#paint1_linear_3659_10522)"/>
</g>
<path d="M87.5269 52.207H50.6152V88.6922H87.5269V52.207Z" fill="#F5F5F5"/>
<g opacity="0.5">
<path opacity="0.5" d="M86.3431 54.418H51.916V78.1893H86.3431V54.418Z" fill="url(#paint2_linear_3659_10522)"/>
</g>
<path d="M86.1065 54.6934H52.1528V77.6353H86.1065V54.6934Z" fill="white"/>
<path opacity="0.4" d="M49.2763 76.8078L57.8256 63.538L61.4103 69.3435L69.13 61.3278L75.7493 69.3435L81.5413 57.459L96.4327 81.2303L48.1738 79.5715L49.2763 76.8078Z" fill="#6C63FF"/>
<path opacity="0.4" d="M55.8934 60.4977C57.2643 60.4977 58.3757 59.3837 58.3757 58.0096C58.3757 56.6354 57.2643 55.5215 55.8934 55.5215C54.5225 55.5215 53.4111 56.6354 53.4111 58.0096C53.4111 59.3837 54.5225 60.4977 55.8934 60.4977Z" fill="#6C63FF"/>
<g opacity="0.5">
<path opacity="0.5" d="M87.883 100.301H50.3784V138.445H87.883V100.301Z" fill="url(#paint3_linear_3659_10522)"/>
</g>
<path d="M87.5269 101.131H50.6152V137.616H87.5269V101.131Z" fill="#F5F5F5"/>
<g opacity="0.5">
<path opacity="0.5" d="M86.3431 103.342H51.916V127.113H86.3431V103.342Z" fill="url(#paint4_linear_3659_10522)"/>
</g>
<path d="M86.1065 103.619H52.1528V126.561H86.1065V103.619Z" fill="white"/>
<path opacity="0.4" d="M49.2763 125.73L57.8256 112.462L61.4103 118.268L69.13 110.252L75.7493 118.268L81.5413 106.381L96.4327 130.152L48.1738 128.493L49.2763 125.73Z" fill="#BDBDBD"/>
<path opacity="0.4" d="M55.8934 109.423C57.2643 109.423 58.3757 108.309 58.3757 106.935C58.3757 105.561 57.2643 104.447 55.8934 104.447C54.5225 104.447 53.4111 105.561 53.4111 106.935C53.4111 108.309 54.5225 109.423 55.8934 109.423Z" fill="#BDBDBD"/>
<g opacity="0.5">
<path opacity="0.5" d="M84.0103 16.4126L56.2744 156.305L160.138 176.994L187.874 37.1019L84.0103 16.4126Z" fill="url(#paint5_linear_3659_10522)"/>
</g>
<path d="M84.9845 18.5786L58.2163 153.59L158.833 173.632L185.601 38.6212L84.9845 18.5786Z" fill="white"/>
<path d="M162.467 40.4913L91.0615 26.2676L90.8466 27.3514L162.252 41.5752L162.467 40.4913Z" fill="#E0E0E0"/>
<path d="M142.148 142.974L70.7427 128.75L70.5278 129.834L141.933 144.058L142.148 142.974Z" fill="#E0E0E0"/>
<path d="M124.683 145.977L69.5063 134.986L69.2915 136.07L124.468 147.061L124.683 145.977Z" fill="#E0E0E0"/>
<path opacity="0.7" d="M88.8279 145.315L68.2715 141.221L68.0566 142.305L88.613 146.399L88.8279 145.315Z" fill="#6C63FF"/>
<path opacity="0.7" d="M125.528 39.6175L89.8267 32.5059L89.6118 33.5897L125.313 40.7014L125.528 39.6175Z" fill="#6C63FF"/>
<path d="M152.964 51.5632L88.5908 38.7402L88.3759 39.8241L152.75 52.6471L152.964 51.5632Z" fill="#E0E0E0"/>
<path opacity="0.7" d="M103.042 48.1014L87.355 44.9766L87.1401 46.0604L102.827 49.1852L103.042 48.1014Z" fill="#3AD29F"/>
<path d="M157.522 65.4347L86.1167 51.2109L85.9018 52.2948L157.307 66.5186L157.522 65.4347Z" fill="#E0E0E0"/>
<path d="M156.286 71.671L84.8804 57.4473L84.6655 58.5311L156.071 72.7549L156.286 71.671Z" fill="#E0E0E0"/>
<path opacity="0.7" d="M119.642 78.9359L83.9404 71.8242L83.7255 72.9081L119.427 80.0197L119.642 78.9359Z" fill="#6C63FF"/>
<path d="M147.078 90.8816L82.7046 78.0586L82.4897 79.1425L146.863 91.9655L147.078 90.8816Z" fill="#E0E0E0"/>
<path opacity="0.7" d="M97.1558 87.4197L81.4688 84.2949L81.2539 85.3788L96.9409 88.5036L97.1558 87.4197Z" fill="#3AD29F"/>
<path d="M151.636 104.753L80.23 90.5293L80.0151 91.6132L151.421 105.837L151.636 104.753Z" fill="#E0E0E0"/>
<path d="M150.4 110.989L78.9941 96.7656L78.7792 97.8495L150.185 112.073L150.4 110.989Z" fill="#E0E0E0"/>
<g opacity="0.5">
<path opacity="0.5" d="M33.8323 149.779H33.0049V154.478H33.8323V149.779Z" fill="#47E6B1"/>
<path opacity="0.5" d="M35.7642 152.542V151.713H31.0769V152.542H35.7642Z" fill="#47E6B1"/>
</g>
<path opacity="0.5" d="M129.92 5.88168C129.692 5.78216 129.508 5.60211 129.404 5.37581C129.3 5.14952 129.283 4.8928 129.356 4.65458C129.368 4.61794 129.375 4.58001 129.378 4.54159V4.54159C129.382 4.43497 129.352 4.3299 129.293 4.24124C129.234 4.15259 129.148 4.08485 129.049 4.04761C128.949 4.01037 128.84 4.00552 128.737 4.03374C128.635 4.06197 128.543 4.12183 128.477 4.20487V4.20487C128.454 4.23569 128.435 4.26906 128.42 4.30431C128.321 4.5327 128.141 4.71649 127.916 4.82068C127.69 4.92487 127.434 4.94216 127.196 4.86927C127.16 4.8573 127.122 4.84971 127.083 4.84667V4.84667C126.977 4.843 126.872 4.87295 126.784 4.9323C126.695 4.99164 126.628 5.07737 126.59 5.17734C126.553 5.27731 126.549 5.38647 126.577 5.48935C126.605 5.59223 126.665 5.68363 126.747 5.75061V5.75061C126.778 5.77327 126.811 5.79223 126.847 5.8071C127.074 5.90661 127.258 6.08667 127.362 6.31296C127.466 6.53926 127.483 6.79597 127.41 7.0342C127.398 7.07084 127.391 7.10877 127.388 7.14719C127.384 7.25381 127.414 7.35888 127.473 7.44753C127.532 7.53619 127.618 7.60393 127.718 7.64117C127.817 7.67841 127.926 7.68326 128.029 7.65504C128.132 7.62681 128.223 7.56694 128.29 7.48391V7.48391C128.312 7.45309 128.331 7.41972 128.346 7.38447C128.445 7.15608 128.625 6.97229 128.851 6.8681C129.076 6.76391 129.332 6.74662 129.57 6.81951C129.607 6.83148 129.645 6.83906 129.683 6.84211C129.789 6.84578 129.894 6.81582 129.982 6.75648C130.071 6.69713 130.139 6.61141 130.176 6.51144C130.213 6.41146 130.218 6.30231 130.189 6.19943C130.161 6.09655 130.102 6.00515 130.019 5.93817C129.988 5.91551 129.955 5.89655 129.92 5.88168V5.88168Z" fill="#4D8AF0"/>
<path opacity="0.5" d="M36.7814 29.3485C36.5535 29.249 36.3702 29.0689 36.2662 28.8426C36.1623 28.6163 36.145 28.3596 36.2177 28.1214C36.2297 28.0847 36.2373 28.0468 36.2403 28.0084V28.0084C36.244 27.9018 36.2141 27.7967 36.1549 27.708C36.0957 27.6194 36.0101 27.5516 35.9104 27.5144C35.8107 27.4772 35.7018 27.4723 35.5991 27.5005C35.4965 27.5288 35.4053 27.5886 35.3385 27.6717V27.6717C35.3159 27.7025 35.2969 27.7359 35.2821 27.7711C35.1828 27.9995 35.0032 28.1833 34.7774 28.2875C34.5517 28.3917 34.2955 28.409 34.0579 28.3361C34.0213 28.3241 33.9835 28.3165 33.9451 28.3135C33.8388 28.3098 33.7339 28.3398 33.6455 28.3991C33.5571 28.4584 33.4895 28.5442 33.4523 28.6441C33.4152 28.7441 33.4103 28.8533 33.4385 28.9561C33.4666 29.059 33.5264 29.1504 33.6092 29.2174V29.2174C33.64 29.2401 33.6733 29.259 33.7084 29.2739C33.9363 29.3734 34.1196 29.5535 34.2236 29.7798C34.3275 30.0061 34.3448 30.2628 34.2721 30.501C34.2601 30.5376 34.2526 30.5756 34.2495 30.614V30.614C34.2459 30.7206 34.2757 30.8257 34.3349 30.9143C34.3941 31.003 34.4797 31.0707 34.5794 31.108C34.6792 31.1452 34.788 31.1501 34.8907 31.1218C34.9933 31.0936 35.0845 31.0337 35.1513 30.9507V30.9507C35.1739 30.9199 35.1929 30.8865 35.2077 30.8513C35.307 30.6229 35.4866 30.4391 35.7124 30.3349C35.9381 30.2307 36.1943 30.2134 36.4319 30.2863C36.4685 30.2983 36.5063 30.3059 36.5447 30.3089V30.3089C36.651 30.3126 36.7559 30.2826 36.8443 30.2233C36.9328 30.1639 37.0003 30.0782 37.0375 29.9782C37.0746 29.8783 37.0795 29.7691 37.0513 29.6662C37.0232 29.5633 36.9634 29.4719 36.8806 29.405C36.8498 29.3823 36.8165 29.3633 36.7814 29.3485Z" fill="#FDD835"/>
<path opacity="0.5" d="M29.4088 98.2879C29.181 98.1884 28.9976 98.0084 28.8937 97.7821C28.7897 97.5558 28.7725 97.2991 28.8452 97.0608C28.8571 97.0242 28.8647 96.9863 28.8677 96.9478V96.9478C28.8714 96.8412 28.8415 96.7361 28.7823 96.6475C28.7231 96.5588 28.6376 96.4911 28.5378 96.4539C28.4381 96.4166 28.3292 96.4118 28.2265 96.44C28.1239 96.4682 28.0327 96.5281 27.9659 96.6111C27.9433 96.6419 27.9244 96.6753 27.9095 96.7106C27.8103 96.939 27.6306 97.1227 27.4049 97.2269C27.1791 97.3311 26.923 97.3484 26.6853 97.2755C26.6488 97.2636 26.6109 97.256 26.5726 97.2529V97.2529C26.4662 97.2493 26.3614 97.2792 26.2729 97.3386C26.1845 97.3979 26.1169 97.4836 26.0798 97.5836C26.0426 97.6836 26.0378 97.7927 26.0659 97.8956C26.0941 97.9985 26.1538 98.0899 26.2367 98.1569C26.2674 98.1795 26.3007 98.1985 26.3359 98.2134C26.5637 98.3129 26.7471 98.4929 26.851 98.7192C26.955 98.9455 26.9722 99.2022 26.8995 99.4405C26.8876 99.4771 26.88 99.515 26.877 99.5535V99.5535C26.8733 99.6601 26.9032 99.7651 26.9624 99.8538C27.0216 99.9425 27.1071 100.01 27.2069 100.047C27.3066 100.085 27.4155 100.09 27.5181 100.061C27.6208 100.033 27.712 99.9732 27.7788 99.8902V99.8902C27.8014 99.8594 27.8203 99.826 27.8351 99.7907C27.9344 99.5623 28.1141 99.3786 28.3398 99.2744C28.5656 99.1702 28.8217 99.1529 29.0594 99.2258C29.0959 99.2377 29.1338 99.2453 29.1721 99.2484C29.2785 99.252 29.3833 99.2221 29.4717 99.1627C29.5602 99.1034 29.6278 99.0177 29.6649 98.9177C29.7021 98.8177 29.7069 98.7086 29.6788 98.6057C29.6506 98.5028 29.5909 98.4114 29.508 98.3444V98.3444C29.4773 98.3218 29.444 98.3028 29.4088 98.2879V98.2879Z" fill="#FDD835"/>
<path opacity="0.5" d="M80.1612 12.126C81.0751 12.126 81.816 11.3834 81.816 10.4673C81.816 9.55123 81.0751 8.80859 80.1612 8.80859C79.2472 8.80859 78.5063 9.55123 78.5063 10.4673C78.5063 11.3834 79.2472 12.126 80.1612 12.126Z" fill="#F55F44"/>
<path opacity="0.5" d="M5.65485 77.3995C6.56879 77.3995 7.30969 76.6569 7.30969 75.7408C7.30969 74.8247 6.56879 74.082 5.65485 74.082C4.7409 74.082 4 74.8247 4 75.7408C4 76.6569 4.7409 77.3995 5.65485 77.3995Z" fill="#F55F44"/>
<path opacity="0.5" d="M198.74 32.8585C199.654 32.8585 200.395 32.1158 200.395 31.1997C200.395 30.2837 199.654 29.541 198.74 29.541C197.826 29.541 197.085 30.2837 197.085 31.1997C197.085 32.1158 197.826 32.8585 198.74 32.8585Z" fill="#F55F44"/>
<path opacity="0.5" d="M189.363 82.335C190.277 82.335 191.018 81.5924 191.018 80.6763C191.018 79.7602 190.277 79.0176 189.363 79.0176C188.449 79.0176 187.708 79.7602 187.708 80.6763C187.708 81.5924 188.449 82.335 189.363 82.335Z" fill="#4D8AF0"/>
<path opacity="0.5" d="M12.4952 38.4757C13.4091 38.4757 14.15 37.733 14.15 36.8169C14.15 35.9008 13.4091 35.1582 12.4952 35.1582C11.5812 35.1582 10.8403 35.9008 10.8403 36.8169C10.8403 37.733 11.5812 38.4757 12.4952 38.4757Z" fill="#47E6B1"/>
<path opacity="0.5" d="M196.379 151.948C197.293 151.948 198.034 151.206 198.034 150.29C198.034 149.374 197.293 148.631 196.379 148.631C195.466 148.631 194.725 149.374 194.725 150.29C194.725 151.206 195.466 151.948 196.379 151.948Z" fill="#47E6B1"/>
<path opacity="0.5" d="M209.345 103.052C210.259 103.052 211 102.309 211 101.393C211 100.477 210.259 99.7344 209.345 99.7344C208.431 99.7344 207.69 100.477 207.69 101.393C207.69 102.309 208.431 103.052 209.345 103.052Z" fill="#47E6B1"/>
<path d="M162.573 156.788C161.517 151.49 156.81 147.512 151.156 147.512C146.667 147.512 142.768 150.031 140.827 153.717C136.151 154.208 132.517 158.125 132.517 162.87C132.517 165.314 133.499 167.658 135.246 169.387C136.994 171.115 139.365 172.086 141.837 172.086H162.03C163.05 172.086 164.059 171.887 165.002 171.501C165.944 171.115 166.8 170.549 167.521 169.836C168.243 169.123 168.815 168.277 169.205 167.345C169.595 166.413 169.796 165.415 169.796 164.406C169.796 160.352 166.612 157.065 162.573 156.788ZM162.03 169.014H141.837C140.189 169.014 138.608 168.367 137.443 167.214C136.278 166.062 135.623 164.5 135.623 162.87C135.623 159.722 138 157.096 141.153 156.773L142.815 156.604L143.592 155.145C145.067 152.334 147.957 150.583 151.156 150.583C155.226 150.583 158.737 153.44 159.529 157.387L159.995 159.691L162.371 159.86C164.795 160.014 166.69 162.026 166.69 164.406C166.69 165.628 166.199 166.8 165.325 167.664C164.451 168.528 163.266 169.014 162.03 169.014ZM144.943 161.335H148.904V165.942H153.409V161.335H157.37L151.156 155.191L144.943 161.335Z" fill="#5A67D8"/>
<g filter="url(#filter0_d_3659_10522)">
<mask id="path-53-outside-1_3659_10522" maskUnits="userSpaceOnUse" x="233.012" y="42.2942" width="30.1736" height="33.9699" fill="black">
<rect fill="white" x="233.012" y="42.2942" width="30.1736" height="33.9699"/>
<path fill-rule="evenodd" clip-rule="evenodd" d="M258.591 62.1719L243.481 52.7805L246.818 71.9108L246.871 71.8676L250.925 63.9281L258.591 62.1719Z"/>
</mask>
<path fill-rule="evenodd" clip-rule="evenodd" d="M258.591 62.1719L243.481 52.7805L246.818 71.9108L246.871 71.8676L250.925 63.9281L258.591 62.1719Z" fill="#677186"/>
<path d="M243.481 52.7805L244.209 51.4038L241.487 49.712L242.082 53.1259L243.481 52.7805ZM258.591 62.1719L258.837 63.7114L262.618 62.8452L259.319 60.7953L258.591 62.1719ZM246.818 71.9108L245.419 72.2563L245.833 74.6278L247.635 73.1686L246.818 71.9108ZM246.871 71.8676L247.688 73.1254L247.948 72.9153L248.106 72.6062L246.871 71.8676ZM250.925 63.9281L250.679 62.3887L250.022 62.5392L249.69 63.1896L250.925 63.9281ZM242.753 54.1571L257.863 63.5485L259.319 60.7953L244.209 51.4038L242.753 54.1571ZM248.216 71.5654L244.879 52.435L242.082 53.1259L245.419 72.2563L248.216 71.5654ZM246.054 70.6098L246 70.653L247.635 73.1686L247.688 73.1254L246.054 70.6098ZM248.106 72.6062L252.159 64.6667L249.69 63.1896L245.636 71.1291L248.106 72.6062ZM251.17 65.4676L258.837 63.7114L258.346 60.6324L250.679 62.3887L251.17 65.4676Z" fill="white" mask="url(#path-53-outside-1_3659_10522)"/>
</g>
<g filter="url(#filter1_f_3659_10522)">
<rect x="288.673" y="75.3711" width="33.0909" height="27.5758" rx="3" transform="rotate(90 288.673 75.3711)" fill="#D4DCE6" fill-opacity="0.33"/>
</g>
<g opacity="0.8" filter="url(#filter2_f_3659_10522)">
<rect x="281.582" y="69.0684" width="33.0909" height="27.5758" rx="3" transform="rotate(90 281.582 69.0684)" fill="#CBD5E0"/>
</g>
<rect x="261.097" y="80.8848" width="14.9697" height="2.75758" rx="0.5" fill="#F1F4F8"/>
<rect x="261.097" y="87.1875" width="14.9697" height="2.75758" rx="0.5" fill="#F1F4F8"/>
<rect x="261.097" y="93.4922" width="14.9697" height="2.75758" rx="0.5" fill="#F1F4F8"/>
<defs>
<filter id="filter0_d_3659_10522" x="237.487" y="49.7129" width="29.1309" height="32.9141" filterUnits="userSpaceOnUse" color-interpolation-filters="sRGB">
<feFlood flood-opacity="0" result="BackgroundImageFix"/>
<feColorMatrix in="SourceAlpha" type="matrix" values="0 0 0 0 0 0 0 0 0 0 0 0 0 0 0 0 0 0 127 0" result="hardAlpha"/>
<feOffset dy="4"/>
<feGaussianBlur stdDeviation="2"/>
<feComposite in2="hardAlpha" operator="out"/>
<feColorMatrix type="matrix" values="0 0 0 0 0 0 0 0 0 0 0 0 0 0 0 0 0 0 0.15 0"/>
<feBlend mode="normal" in2="BackgroundImageFix" result="effect1_dropShadow_3659_10522"/>
<feBlend mode="normal" in="SourceGraphic" in2="effect1_dropShadow_3659_10522" result="shape"/>
</filter>
<filter id="filter1_f_3659_10522" x="259.097" y="73.3711" width="31.5757" height="37.0918" filterUnits="userSpaceOnUse" color-interpolation-filters="sRGB">
<feFlood flood-opacity="0" result="BackgroundImageFix"/>
<feBlend mode="normal" in="SourceGraphic" in2="BackgroundImageFix" result="shape"/>
<feGaussianBlur stdDeviation="1" result="effect1_foregroundBlur_3659_10522"/>
</filter>
<filter id="filter2_f_3659_10522" x="252.006" y="67.0684" width="31.5757" height="37.0918" filterUnits="userSpaceOnUse" color-interpolation-filters="sRGB">
<feFlood flood-opacity="0" result="BackgroundImageFix"/>
<feBlend mode="normal" in="SourceGraphic" in2="BackgroundImageFix" result="shape"/>
<feGaussianBlur stdDeviation="1" result="effect1_foregroundBlur_3659_10522"/>
</filter>
<linearGradient id="paint0_linear_3659_10522" x1="93.6726" y1="166.087" x2="93.6726" y2="23.459" gradientUnits="userSpaceOnUse">
<stop stop-color="#808080" stop-opacity="0.25"/>
<stop offset="0.54" stop-color="#808080" stop-opacity="0.12"/>
<stop offset="1" stop-color="#808080" stop-opacity="0.1"/>
</linearGradient>
<linearGradient id="paint1_linear_3659_10522" x1="10884.7" y1="14486.5" x2="10884.7" y2="8048.24" gradientUnits="userSpaceOnUse">
<stop stop-color="#808080" stop-opacity="0.25"/>
<stop offset="0.54" stop-color="#808080" stop-opacity="0.12"/>
<stop offset="1" stop-color="#808080" stop-opacity="0.1"/>
</linearGradient>
<linearGradient id="paint2_linear_3659_10522" x1="9997.22" y1="7858.29" x2="9997.22" y2="5357.79" gradientUnits="userSpaceOnUse">
<stop stop-color="#808080" stop-opacity="0.25"/>
<stop offset="0.54" stop-color="#808080" stop-opacity="0.12"/>
<stop offset="1" stop-color="#808080" stop-opacity="0.1"/>
</linearGradient>
<linearGradient id="paint3_linear_3659_10522" x1="10884.7" y1="22793.6" x2="10884.7" y2="16354.9" gradientUnits="userSpaceOnUse">
<stop stop-color="#808080" stop-opacity="0.25"/>
<stop offset="0.54" stop-color="#808080" stop-opacity="0.12"/>
<stop offset="1" stop-color="#808080" stop-opacity="0.1"/>
</linearGradient>
<linearGradient id="paint4_linear_3659_10522" x1="9997.22" y1="13053.7" x2="9997.22" y2="10553.2" gradientUnits="userSpaceOnUse">
<stop stop-color="#808080" stop-opacity="0.25"/>
<stop offset="0.54" stop-color="#808080" stop-opacity="0.12"/>
<stop offset="1" stop-color="#808080" stop-opacity="0.1"/>
</linearGradient>
<linearGradient id="paint5_linear_3659_10522" x1="78093.2" y1="97864.4" x2="91179.3" y2="32170.2" gradientUnits="userSpaceOnUse">
<stop stop-color="#808080" stop-opacity="0.25"/>
<stop offset="0.54" stop-color="#808080" stop-opacity="0.12"/>
<stop offset="1" stop-color="#808080" stop-opacity="0.1"/>
</linearGradient>
</defs>
</svg>
