<svg width="303" height="39" viewBox="0 0 303 39" fill="none" xmlns="http://www.w3.org/2000/svg">
<path d="M303 0H0V39H303V0Z" fill="white"/>
<path d="M52.78 2.58008V36.2001H57.24V27.6901L59.3 25.9201L70.05 36.2001H76.39L62.61 23.0601L76.22 11.3901H69.58L57.24 21.7601V2.58008H52.78ZM103.84 36.2001V11.3901H86C84.0812 11.3478 82.2183 12.0379 80.79 13.3201C80.1031 13.8897 79.5518 14.6054 79.1764 15.415C78.801 16.2246 78.6109 17.1077 78.62 18.0001V29.6201C78.6144 30.5041 78.8043 31.3785 79.1759 32.1806C79.5476 32.9827 80.092 33.6928 80.77 34.2601C82.1996 35.5542 84.0723 36.2489 86 36.2001H103.84ZM99.36 32.2001H87C85.9695 32.2415 84.9627 31.8832 84.19 31.2001C83.8334 30.89 83.5491 30.5053 83.3573 30.0734C83.1655 29.6414 83.0709 29.1726 83.08 28.7001V19.0001C83.0688 18.5272 83.1625 18.0578 83.3544 17.6255C83.5464 17.1932 83.8318 16.8089 84.19 16.5001C84.9654 15.8214 85.9703 15.4638 87 15.5001H99.36V32.1701V32.2001ZM132.51 18.0001C132.512 17.1137 132.321 16.2374 131.95 15.4325C131.579 14.6277 131.036 13.9136 130.36 13.3401C128.957 12.0466 127.108 11.3476 125.2 11.3901H114.2C112.279 11.3393 110.414 12.0387 109 13.3401C108.332 13.9182 107.798 14.6342 107.434 15.4386C107.07 16.2431 106.884 17.117 106.89 18.0001V36.2001H111.36V19.0001C111.348 18.5227 111.441 18.0485 111.633 17.6113C111.825 17.174 112.111 16.7843 112.47 16.4701C113.235 15.7942 114.23 15.4364 115.25 15.4701H124.11C125.13 15.4364 126.125 15.7942 126.89 16.4701C127.25 16.7843 127.535 17.174 127.727 17.6113C127.919 18.0485 128.012 18.5227 128 19.0001V36.2001H132.51V18.0001ZM134.73 11.4201L148.12 36.2001H153.45L166.84 11.4201H161.76L150.76 31.6901L139.76 11.4201H134.73ZM174.99 11.4201C173.084 11.3799 171.234 12.0704 169.82 13.3501C169.148 13.9235 168.609 14.6366 168.241 15.4398C167.873 16.2429 167.685 17.1167 167.69 18.0001V31.1401C167.689 31.8303 167.843 32.5118 168.143 33.1336C168.443 33.7553 168.879 34.3012 169.42 34.7301C170.594 35.7155 172.088 36.2382 173.62 36.2001H190.68V32.3401H174.4C173.824 32.3577 173.257 32.1932 172.78 31.8701C172.577 31.736 172.411 31.5531 172.298 31.3381C172.184 31.1232 172.127 30.8832 172.13 30.6401V26.1101H192.91V18.0001C192.913 17.116 192.723 16.242 192.353 15.4389C191.984 14.6358 191.443 13.923 190.77 13.3501C189.356 12.0704 187.507 11.3799 185.6 11.4201H174.99ZM175.99 15.4201H184.5C185.515 15.3833 186.504 15.7418 187.26 16.4201C187.636 16.7358 187.936 17.131 188.14 17.5772C188.345 18.0235 188.447 18.5095 188.44 19.0001V22.1701H172.13V19.0001C172.119 18.5262 172.213 18.0558 172.407 17.6233C172.601 17.1907 172.889 16.807 173.25 16.5001C174.018 15.8218 175.016 15.4639 176.04 15.5001L175.99 15.4201ZM202.99 11.4201C201.084 11.381 199.234 12.0713 197.82 13.3501C197.148 13.9235 196.609 14.6366 196.241 15.4398C195.873 16.2429 195.685 17.1167 195.69 18.0001V36.2001H200.16V18.9201C200.148 18.4427 200.241 17.9685 200.433 17.5313C200.625 17.094 200.911 16.7043 201.27 16.3901C202.033 15.7166 203.023 15.359 204.04 15.3901H214.19V11.3901L202.99 11.4201ZM223.18 11.4201C221.645 11.3847 220.15 11.915 218.98 12.9101C218.436 13.337 217.997 13.8822 217.696 14.5042C217.394 15.1263 217.238 15.8088 217.24 16.5001V20.3101C217.238 21.0028 217.394 21.6868 217.695 22.3105C217.997 22.9341 218.436 23.4811 218.98 23.9101C220.151 24.9023 221.646 25.4291 223.18 25.3901H235C235.594 25.3566 236.178 25.5456 236.64 25.9201C236.842 26.0917 237.003 26.3067 237.11 26.5491C237.218 26.7915 237.269 27.0551 237.26 27.3201V30.5001C237.268 30.7673 237.215 31.0329 237.106 31.277C236.997 31.5211 236.834 31.7375 236.63 31.9101C236.166 32.2888 235.578 32.4813 234.98 32.4501H218.35V36.2001H235.8C237.333 36.2401 238.827 35.7171 240 34.7301C240.544 34.3032 240.983 33.758 241.284 33.136C241.586 32.5139 241.742 31.8313 241.74 31.1401V26.7801C241.742 26.0874 241.586 25.4034 241.285 24.7797C240.983 24.156 240.544 23.609 240 23.1801C238.83 22.1862 237.335 21.6591 235.8 21.7001H224C223.402 21.7313 222.814 21.5388 222.35 21.1601C222.148 20.9881 221.986 20.7732 221.877 20.531C221.768 20.2889 221.715 20.0256 221.72 19.7601V17.1401C221.712 16.8743 221.765 16.6102 221.874 16.3678C221.983 16.1253 222.146 15.9107 222.35 15.7401C222.813 15.3586 223.401 15.1626 224 15.1901H239.56V11.3901L223.18 11.4201ZM251.83 11.4201C249.924 11.3799 248.074 12.0704 246.66 13.3501C245.988 13.9235 245.449 14.6366 245.081 15.4398C244.713 16.2429 244.525 17.1167 244.53 18.0001V31.1401C244.526 31.8306 244.68 32.5129 244.98 33.135C245.28 33.7571 245.718 34.3027 246.26 34.7301C247.434 35.7155 248.928 36.2382 250.46 36.2001H267.52V32.3401H251.24C250.664 32.3604 250.096 32.1957 249.62 31.8701C249.416 31.7365 249.249 31.5539 249.134 31.3391C249.018 31.1242 248.959 30.8839 248.96 30.6401V26.1101H269.75V18.0001C269.753 17.116 269.563 16.242 269.193 15.4389C268.824 14.6358 268.283 13.923 267.61 13.3501C266.196 12.0713 264.346 11.381 262.44 11.4201H251.83ZM252.83 15.4201H261.34C262.355 15.3833 263.344 15.7418 264.1 16.4201C264.474 16.7363 264.774 17.1319 264.976 17.5781C265.178 18.0244 265.279 18.5101 265.27 19.0001V22.1701H249V19.0001C248.991 18.5256 249.087 18.0549 249.283 17.6224C249.478 17.1899 249.768 16.8065 250.13 16.5001C250.898 15.8218 251.896 15.4639 252.92 15.5001L252.83 15.4201Z" fill="#082341"/>
<path fill-rule="evenodd" clip-rule="evenodd" d="M10.29 29.1814L0 19.9114L0.57 19.3314L10.47 9.44141L20.25 19.2214L10.36 29.1114L10.29 29.1814Z" fill="#E49824"/>
<path fill-rule="evenodd" clip-rule="evenodd" d="M29.86 28.83L20.25 19.22L39.82 38.78L29.82 28.78L29.86 28.83ZM10.29 29.18L0 19.91V0H1L10.43 9.44L20.21 19.22L10.32 29.12L10.25 29.18H10.29Z" fill="#E49824"/>
<path fill-rule="evenodd" clip-rule="evenodd" d="M20.25 19.22L39.47 0H19.91L10.47 9.44L0.57 19.33L0 19.91V38.78H0.69L10.36 29.11L20.25 19.22Z" fill="#E49824"/>
<path fill-rule="evenodd" clip-rule="evenodd" d="M10.29 29.1814L0 19.9114L0.57 19.3314L10.47 9.44141L20.25 19.2214L10.36 29.1114L10.29 29.1814Z" fill="#E49824"/>
<path fill-rule="evenodd" clip-rule="evenodd" d="M0.57 19.33L10.47 9.44L1.04 0H0V19.91L0.57 19.33Z" fill="#E49824"/>
<path fill-rule="evenodd" clip-rule="evenodd" d="M10.47 9.44L20.25 19.22L29.69 9.78L19.91 0L10.47 9.44Z" fill="#80AF40"/>
<path fill-rule="evenodd" clip-rule="evenodd" d="M19.91 0L29.69 9.78L39.47 0H19.91Z" fill="#D7EA45"/>
<path fill-rule="evenodd" clip-rule="evenodd" d="M20.25 19.2214L10.47 9.44141L0.57 19.3314L0 19.9114L10.29 29.1814L10.36 29.1114L20.25 19.2214Z" fill="#DD5318"/>
<path fill-rule="evenodd" clip-rule="evenodd" d="M10.29 29.1802L0 19.9102V38.7802H0.69L10.29 29.1802Z" fill="#DB2A18"/>
<path fill-rule="evenodd" clip-rule="evenodd" d="M20.25 19.2188L10.36 29.1087L10.29 29.1788L10.47 29.3388L19.91 38.7788L29.86 28.8288L20.25 19.2188Z" fill="#4B85F9"/>
<path fill-rule="evenodd" clip-rule="evenodd" d="M29.86 28.8301L19.91 38.7801H39.82L29.86 28.8301Z" fill="#2848FA"/>
<path fill-rule="evenodd" clip-rule="evenodd" d="M86.52 3.09963C87.0504 3.09765 87.5696 3.25314 88.0116 3.54642C88.4537 3.8397 88.7987 4.25756 89.0031 4.74709C89.2075 5.23662 89.262 5.77579 89.1597 6.29631C89.0574 6.81684 88.803 7.2953 88.4286 7.67111C88.0542 8.04692 87.5767 8.30316 87.0565 8.40738C86.5364 8.5116 85.997 8.45911 85.5067 8.25657C85.0164 8.05402 84.5973 7.71053 84.3023 7.26959C84.0074 6.82865 83.85 6.31011 83.85 5.77963C83.85 5.07058 84.131 4.39042 84.6314 3.88811C85.1318 3.3858 85.8109 3.10227 86.52 3.09963Z" fill="#182741"/>
<path fill-rule="evenodd" clip-rule="evenodd" d="M95.93 3.09963C96.4605 3.09765 96.9796 3.25314 97.4217 3.54642C97.8637 3.8397 98.2087 4.25756 98.4131 4.74709C98.6175 5.23662 98.672 5.77579 98.5697 6.29631C98.4674 6.81684 98.213 7.2953 97.8386 7.67111C97.4642 8.04692 96.9867 8.30316 96.4665 8.40738C95.9464 8.5116 95.407 8.45911 94.9167 8.25657C94.4265 8.05402 94.0073 7.71053 93.7124 7.26959C93.4174 6.82865 93.26 6.31011 93.26 5.77963C93.26 5.07058 93.541 4.39042 94.0414 3.88811C94.5419 3.3858 95.221 3.10227 95.93 3.09963Z" fill="#182741"/>
<path d="M272.64 33.7891V36.1991H275.34V33.7891H272.64Z" fill="#DB2A18"/>
<path d="M293.29 17.1191V19.4091H295.81V17.1191H293.29ZM293.29 22.1191V36.1991H295.81V22.1191H293.29Z" fill="#DB2A18"/>
<path fill-rule="evenodd" clip-rule="evenodd" d="M291.24 36.2012V27.2012H281.11C280.006 27.1679 278.931 27.5619 278.11 28.3012C277.725 28.6353 277.419 29.051 277.215 29.518C277.011 29.9851 276.914 30.4917 276.93 31.0012V32.5012C276.928 33.0023 277.036 33.4977 277.247 33.9523C277.457 34.4069 277.766 34.8094 278.15 35.1312C278.971 35.8705 280.046 36.2645 281.15 36.2312L291.24 36.2012ZM281.69 29.5312H288.69V33.9112H281.69C281.108 33.9355 280.538 33.735 280.1 33.3512C279.897 33.1752 279.736 32.9568 279.627 32.7114C279.518 32.466 279.464 32.1996 279.47 31.9312V31.5212C279.464 31.2528 279.518 30.9864 279.627 30.741C279.736 30.4956 279.897 30.2772 280.1 30.1012C280.537 29.7146 281.107 29.5106 281.69 29.5312Z" fill="#DB2A18"/>
<path fill-rule="evenodd" clip-rule="evenodd" d="M283.26 24.25H291.26V22H281.26C279.93 22 279.81 23 279.6 24.3L283.26 24.25Z" fill="#DB2A18"/>
<path fill-rule="evenodd" clip-rule="evenodd" d="M288.7 21.9512H291.24V32.2412H288.7V21.9512Z" fill="#DB2A18"/>
</svg>
