<svg xmlns="http://www.w3.org/2000/svg" xmlns:xlink="http://www.w3.org/1999/xlink" width="165" height="24" viewBox="0 0 165 24">
  <defs>
    <clipPath id="clip-logo-txt">
      <rect width="165" height="24"/>
    </clipPath>
  </defs>
  <g id="logo-txt" clip-path="url(#clip-logo-txt)">
    <g id="Group_170" data-name="Group 170" transform="translate(-0.409 0.783)">
      <path id="Path_4689" data-name="Path 4689" d="M218.652,85.174v6.5a7.45,7.45,0,0,0,.719,3.464h-3.483a5.57,5.57,0,0,1-.6-2.516v-.033a8.338,8.338,0,0,1-6.877,3.2c-3.4,0-7.914-1.569-7.914-6.275,0-4.673,4.518-6.241,7.914-6.241a8.335,8.335,0,0,1,6.877,3.2V85.174c0-3.857-1.951-5.256-6.008-5.256a10.2,10.2,0,0,0-5.986,1.8l-1.209-2.582a14.659,14.659,0,0,1,7.828-2.223c5.5,0,8.743,2.641,8.743,8.263m-3.309,4.085c-1.266-2.484-3.943-3.235-6.3-3.235-2.1,0-5.238.621-5.238,3.5,0,2.909,3.137,3.53,5.238,3.53,2.359,0,5.036-.784,6.3-3.235Z" transform="translate(-177.584 -72.61)" fill="#636568"/>
      <path id="Path_4690" data-name="Path 4690" d="M253.582,94.646V76.737h3.478V80.2a8.216,8.216,0,0,1,7.432-4.118c4.965,0,7.433,3.5,7.433,8.334V94.646h-3.449V84.678c0-3.53-1.634-5.425-4.875-5.425a7,7,0,0,0-6.54,4.379V94.646Z" transform="translate(-209.338 -72.115)" fill="#636568"/>
      <path id="Path_4691" data-name="Path 4691" d="M314.41,95.62h-3.568l-8.115-17.908h3.683l6.244,14.216L318.9,77.711h3.6Z" transform="translate(-238.733 -73.089)" fill="#004c97"/>
      <path id="Path_4692" data-name="Path 4692" d="M406.349,95.084V77.176h3.367V81.26a7.85,7.85,0,0,1,7.453-4.444v3.333c-3.511,0-6.388,1.666-7.453,5.032v9.9Z" transform="translate(-300.714 -72.553)" fill="#004c97"/>
      <path id="Path_4693" data-name="Path 4693" d="M456.089,89.336c0,3.333-2.877,5.948-8.432,5.948A11.885,11.885,0,0,1,438.8,91.59l1.171-2.254a10.746,10.746,0,0,0,7.77,2.973c2.907,0,5.151-.849,5.151-2.647s-2.043-2.353-5.755-2.68c-4.288-.359-8.374-1.5-8.374-5.327,0-3.5,3.165-5.653,8.46-5.653a13.138,13.138,0,0,1,8.086,2.843l-1.755,2.484a9.679,9.679,0,0,0-6.5-2.353c-2.129,0-5.093.49-5.093,2.451,0,1.83,2.5,2.156,5.727,2.385,4.835.392,8.4,1.9,8.4,5.523" transform="translate(-320.103 -72.066)" fill="#004c97"/>
      <g id="Group_169" data-name="Group 169" transform="translate(28.788 0)">
        <circle id="Ellipse_257" data-name="Ellipse 257" cx="1.32" cy="1.32" r="1.32" transform="translate(0)" fill="#636568"/>
        <circle id="Ellipse_258" data-name="Ellipse 258" cx="1.32" cy="1.32" r="1.32" transform="translate(5.087)" fill="#636568"/>
      </g>
      <path id="Path_4716" data-name="Path 4716" d="M161.884,88.91l-8.821-11.453-6.085,5.468V88.91h-3.493V66.261h3.493V78.685l13.858-12.424h4.716l-9.84,8.93L166.164,88.91Z" transform="translate(-143.485 -66.24)" fill="#636568"/>
      <path id="Path_4717" data-name="Path 4717" d="M362.042,92.276a8.216,8.216,0,0,0,6.443-2.589l1.96,2.383c-2.156,2.193-4.889,3.208-8.572,3.212-6.3.007-9.932-3.715-9.938-9.6-.006-5.948,3.616-9.677,9.687-9.684,5.669-.006,9.363,3.356,9.363,9.631,0,.015-15.283,2.981-15.283,2.981.937,2.462,3.173,3.666,6.341,3.663m5.663-8.658c-.723-3.268-2.944-4.613-6.052-4.61-3.309,0-5.638,1.608-6.268,4.779l0-.016a7.717,7.717,0,0,0-.164,2.157Z" transform="translate(-268.166 -72.066)" fill="#004c97"/>
      <path id="Path_4718" data-name="Path 4718" d="M495.547,92.276a8.217,8.217,0,0,0,6.443-2.589l1.96,2.383c-2.156,2.193-4.889,3.208-8.572,3.212-6.3.007-9.932-3.715-9.939-9.6-.006-5.948,3.616-9.677,9.687-9.684,5.669-.006,9.363,3.356,9.363,9.631,0,.015-15.283,2.981-15.283,2.981.938,2.462,3.173,3.666,6.341,3.663m5.663-8.658c-.723-3.268-2.943-4.613-6.051-4.61-3.31,0-5.639,1.608-6.268,4.779l-.005-.016a7.715,7.715,0,0,0-.163,2.157Z" transform="translate(-348.021 -72.066)" fill="#004c97"/>
    </g>
  </g>
</svg>
