<svg width="1276" height="167" viewBox="0 0 1276 167" fill="none" xmlns="http://www.w3.org/2000/svg">
<path d="M227.671 11.1172V155.889H246.909V119.244L255.795 111.622L302.166 155.889H329.515L270.073 99.3066L328.781 49.0542H300.139L246.909 93.7086V11.1172H227.671ZM447.922 155.889V49.0542H370.968C362.691 48.872 354.655 51.8437 348.494 57.365C345.531 59.8177 343.153 62.8996 341.534 66.3859C339.915 69.8721 339.095 73.6748 339.134 77.5176V127.555C339.11 131.361 339.929 135.127 341.532 138.581C343.135 142.034 345.483 145.092 348.408 147.535C354.575 153.108 362.653 156.099 370.968 155.889H447.922ZM428.597 138.664H375.282C370.836 138.843 366.494 137.3 363.16 134.358C361.622 133.023 360.396 131.366 359.569 129.507C358.741 127.646 358.333 125.628 358.372 123.593V81.8237C358.324 79.7874 358.728 77.7661 359.556 75.9045C360.384 74.043 361.615 72.3882 363.16 71.0584C366.505 68.1359 370.84 66.596 375.282 66.7523H428.597V138.535V138.664ZM571.593 77.5176C571.601 73.7007 570.777 69.9272 569.177 66.4612C567.577 62.9957 565.234 59.9207 562.318 57.4511C556.266 51.8811 548.291 48.8712 540.06 49.0542H492.611C484.325 48.8354 476.28 51.8471 470.18 57.4511C467.299 59.9405 464.995 63.0236 463.425 66.4875C461.855 69.9518 461.053 73.7149 461.079 77.5176V155.889H480.36V81.8237C480.309 79.768 480.71 77.726 481.538 75.8434C482.366 73.9603 483.6 72.2822 485.148 70.9292C488.448 68.0187 492.74 66.478 497.14 66.6231H535.359C539.758 66.478 544.05 68.0187 547.35 70.9292C548.903 72.2822 550.133 73.9603 550.961 75.8434C551.789 77.726 552.19 79.768 552.138 81.8237V155.889H571.593V77.5176ZM581.169 49.1834L638.928 155.889H661.919L719.678 49.1834H697.765L650.315 136.468L602.866 49.1834H581.169ZM754.833 49.1834C746.612 49.0102 738.632 51.9836 732.532 57.4942C729.634 59.9633 727.308 63.034 725.721 66.4927C724.134 69.9509 723.323 73.7136 723.344 77.5176V134.1C723.34 137.072 724.004 140.007 725.298 142.684C726.592 145.361 728.473 147.712 730.807 149.559C735.871 153.802 742.315 156.053 748.924 155.889H822.513V139.267H752.288C749.804 139.343 747.358 138.635 745.3 137.243C744.425 136.666 743.709 135.878 743.221 134.953C742.73 134.027 742.484 132.994 742.497 131.947V112.44H832.133V77.5176C832.146 73.7106 831.326 69.947 829.73 66.4888C828.138 63.0305 825.805 59.9611 822.902 57.4942C816.802 51.9836 808.827 49.0102 800.601 49.1834H754.833ZM759.147 66.4078H795.856C800.234 66.2494 804.5 67.7931 807.761 70.7139C809.383 72.0734 810.677 73.7752 811.557 75.6965C812.441 77.6184 812.881 79.7111 812.851 81.8237V95.4741H742.497V81.8237C742.449 79.7831 742.855 77.7575 743.691 75.8951C744.528 74.0322 745.771 72.38 747.328 71.0584C750.641 68.1376 754.946 66.5964 759.363 66.7523L759.147 66.4078ZM875.614 49.1834C867.392 49.015 859.412 51.9875 853.312 57.4942C850.414 59.9633 848.089 63.034 846.501 66.4927C844.914 69.9509 844.103 73.7136 844.125 77.5176V155.889H863.406V81.4792C863.354 79.4235 863.756 77.3815 864.584 75.4989C865.412 73.6158 866.646 71.9377 868.194 70.5848C871.486 67.6846 875.756 66.1447 880.143 66.2786H923.926V49.0542L875.614 49.1834ZM962.705 49.1834C956.083 49.0309 949.635 51.3145 944.588 55.5995C942.241 57.4378 940.348 59.7854 939.049 62.4639C937.746 65.1427 937.074 68.0816 937.082 71.0584V87.4647C937.074 90.4476 937.747 93.393 939.045 96.0787C940.348 98.764 942.241 101.119 944.588 102.967C949.639 107.239 956.088 109.508 962.705 109.34H1013.69C1016.25 109.196 1018.77 110.009 1020.77 111.622C1021.64 112.361 1022.33 113.287 1022.79 114.331C1023.26 115.374 1023.48 116.51 1023.44 117.651V131.344C1023.47 132.495 1023.25 133.638 1022.78 134.689C1022.31 135.741 1021.6 136.672 1020.72 137.416C1018.72 139.046 1016.18 139.875 1013.61 139.741H941.87V155.889H1017.14C1023.75 156.061 1030.2 153.809 1035.26 149.559C1037.61 147.721 1039.5 145.373 1040.8 142.695C1042.1 140.016 1042.77 137.076 1042.76 134.1V115.325C1042.77 112.342 1042.1 109.397 1040.8 106.711C1039.5 104.026 1037.61 101.67 1035.26 99.8233C1030.21 95.5434 1023.76 93.2737 1017.14 93.4502H966.242C963.662 93.5846 961.126 92.7557 959.125 91.1249C958.253 90.3843 957.554 89.4589 957.084 88.416C956.614 87.3734 956.385 86.2396 956.407 85.0964V73.8143C956.373 72.6698 956.601 71.5325 957.071 70.4887C957.541 69.4445 958.245 68.5204 959.125 67.7858C961.122 66.143 963.658 65.299 966.242 65.4174H1033.36V49.0542L962.705 49.1834ZM1086.29 49.1834C1078.07 49.0102 1070.09 51.9836 1063.99 57.4942C1061.09 59.9633 1058.76 63.034 1057.18 66.4927C1055.59 69.9509 1054.78 73.7136 1054.8 77.5176V134.1C1054.78 137.073 1055.45 140.011 1056.74 142.69C1058.03 145.369 1059.92 147.719 1062.26 149.559C1067.33 153.802 1073.77 156.053 1080.38 155.889H1153.97V139.267H1083.74C1081.26 139.355 1078.81 138.646 1076.76 137.243C1075.88 136.668 1075.16 135.882 1074.66 134.957C1074.16 134.032 1073.9 132.997 1073.91 131.947V112.44H1163.59V77.5176C1163.6 73.7106 1162.78 69.947 1161.19 66.4888C1159.59 63.0305 1157.26 59.9611 1154.36 57.4942C1148.26 51.9875 1140.28 49.015 1132.06 49.1834H1086.29ZM1090.6 66.4078H1127.31C1131.69 66.2494 1135.96 67.7931 1139.22 70.7139C1140.83 72.0755 1142.12 73.779 1143 75.7004C1143.87 77.6222 1144.3 79.7137 1144.26 81.8237V95.4741H1074.08V81.8237C1074.04 79.7805 1074.46 77.7536 1075.3 75.8912C1076.14 74.0288 1077.39 72.3778 1078.96 71.0584C1082.27 68.1376 1086.57 66.5964 1090.99 66.7523L1090.6 66.4078Z" fill="#F4F4F4"/>
<path fill-rule="evenodd" clip-rule="evenodd" d="M44.3867 125.659L0 85.7413L2.45874 83.2437L45.1632 40.6562L87.35 82.77L44.6887 125.358L44.3867 125.659Z" fill="#E49824"/>
<path fill-rule="evenodd" clip-rule="evenodd" d="M128.803 124.145L87.35 82.7636L171.767 166.991L128.631 123.93L128.803 124.145ZM44.3867 125.653L0 85.7348V0H4.31358L44.9906 40.6497L87.1774 82.7636L44.5161 125.394L44.2142 125.653H44.3867Z" fill="#E49824"/>
<path fill-rule="evenodd" clip-rule="evenodd" d="M87.35 82.7636L170.257 0H85.8834L45.1632 40.6497L2.45874 83.2373L0 85.7348V166.991H2.97637L44.6887 125.351L87.35 82.7636Z" fill="#E49824"/>
<path fill-rule="evenodd" clip-rule="evenodd" d="M44.3867 125.659L0 85.7413L2.45874 83.2437L45.1632 40.6562L87.35 82.77L44.6887 125.358L44.3867 125.659Z" fill="#E49824"/>
<path fill-rule="evenodd" clip-rule="evenodd" d="M2.45874 83.2372L45.1632 40.6497L4.48612 0H0V85.7348L2.45874 83.2372Z" fill="#E49824"/>
<path fill-rule="evenodd" clip-rule="evenodd" d="M45.1631 40.6497L87.3499 82.7636L128.07 42.1138L85.8833 0L45.1631 40.6497Z" fill="#80AF40"/>
<path fill-rule="evenodd" clip-rule="evenodd" d="M85.8833 0L128.07 42.1138L170.257 0H85.8833Z" fill="#D7EA45"/>
<path fill-rule="evenodd" clip-rule="evenodd" d="M87.35 82.77L45.1632 40.6562L2.45874 83.2437L0 85.7413L44.3867 125.659L44.6887 125.358L87.35 82.77Z" fill="#DD5318"/>
<path fill-rule="evenodd" clip-rule="evenodd" d="M44.3867 125.652L0 85.7344V166.991H2.97637L44.3867 125.652Z" fill="#DB2A18"/>
<path fill-rule="evenodd" clip-rule="evenodd" d="M87.35 82.7578L44.6887 125.345L44.3867 125.647L45.1632 126.336L85.8834 166.985L128.803 124.14L87.35 82.7578Z" fill="#4B85F9"/>
<path fill-rule="evenodd" clip-rule="evenodd" d="M128.803 124.152L85.8833 166.998H171.767L128.803 124.152Z" fill="#2848FA"/>
<path fill-rule="evenodd" clip-rule="evenodd" d="M373.211 13.3555C375.499 13.347 377.738 14.0166 379.645 15.2795C381.552 16.5424 383.04 18.3417 383.922 20.4497C384.804 22.5577 385.039 24.8794 384.597 27.1208C384.156 29.3623 383.059 31.4226 381.444 33.0409C379.829 34.6592 377.769 35.7626 375.525 36.2113C373.282 36.6601 370.955 36.4341 368.84 35.5619C366.725 34.6897 364.917 33.2106 363.645 31.3119C362.373 29.4131 361.694 27.1803 361.694 24.8959C361.694 21.8427 362.906 18.9138 365.064 16.7508C367.223 14.5878 370.152 13.3669 373.211 13.3555Z" fill="#F4F4F4"/>
<path fill-rule="evenodd" clip-rule="evenodd" d="M413.802 13.3555C416.09 13.347 418.329 14.0166 420.236 15.2795C422.143 16.5424 423.631 18.3417 424.513 20.4497C425.394 22.5577 425.63 24.8794 425.188 27.1208C424.747 29.3623 423.65 31.4226 422.035 33.0409C420.42 34.6592 418.36 35.7626 416.116 36.2113C413.872 36.6601 411.546 36.4341 409.431 35.5619C407.316 34.6897 405.508 33.2106 404.236 31.3119C402.963 29.4131 402.284 27.1803 402.284 24.8959C402.284 21.8427 403.497 18.9138 405.655 16.7508C407.814 14.5878 410.743 13.3669 413.802 13.3555Z" fill="#F4F4F4"/>
<path d="M1176.05 145.5V155.878H1187.7V145.5H1176.05Z" fill="#DB2A18"/>
<path d="M1265.13 73.707V83.568H1276V73.707H1265.13ZM1265.13 95.2376V155.868H1276V95.2376H1265.13Z" fill="#DB2A18"/>
<path fill-rule="evenodd" clip-rule="evenodd" d="M1256.29 155.885V117.129H1212.59C1207.83 116.986 1203.19 118.683 1199.65 121.866C1197.99 123.305 1196.67 125.095 1195.79 127.106C1194.91 129.117 1194.49 131.299 1194.56 133.493V139.952C1194.55 142.11 1195.02 144.243 1195.93 146.201C1196.83 148.158 1198.17 149.891 1199.82 151.277C1203.36 154.461 1208 156.157 1212.76 156.014L1256.29 155.885ZM1215.09 127.163H1245.29V146.024H1215.09C1212.58 146.128 1210.12 145.265 1208.23 143.612C1207.36 142.854 1206.66 141.914 1206.19 140.857C1205.72 139.8 1205.49 138.653 1205.52 137.497V135.732C1205.49 134.576 1205.72 133.429 1206.19 132.372C1206.66 131.316 1207.36 130.375 1208.23 129.617C1210.12 127.952 1212.58 127.074 1215.09 127.163Z" fill="#DB2A18"/>
<path fill-rule="evenodd" clip-rule="evenodd" d="M1221.86 104.423H1256.37V94.7344H1213.24C1207.5 94.7344 1206.98 99.0405 1206.08 104.638L1221.86 104.423Z" fill="#DB2A18"/>
<path fill-rule="evenodd" clip-rule="evenodd" d="M1245.33 94.5312H1256.29V138.841H1245.33V94.5312Z" fill="#DB2A18"/>
</svg>
