<?xml version="1.0" encoding="UTF-8"?>
<!DOCTYPE svg PUBLIC "-//W3C//DTD SVG 1.1//EN" "http://www.w3.org/Graphics/SVG/1.1/DTD/svg11.dtd">
<!-- Creator: CorelDRAW X6 -->
<svg xmlns="http://www.w3.org/2000/svg" xml:space="preserve" width="3.67726in" height="0.516118in" version="1.1" style="shape-rendering:geometricPrecision; text-rendering:geometricPrecision; image-rendering:optimizeQuality; fill-rule:evenodd; clip-rule:evenodd"
viewBox="0 0 3691 518"
 xmlns:xlink="http://www.w3.org/1999/xlink">
 <defs>
  <style type="text/css">
   <![CDATA[
    .fil7 {fill:#0147FE}
    .fil6 {fill:#0186FC}
    .fil8 {fill:#082341}
    .fil2 {fill:#66B032}
    .fil3 {fill:#D0EA2B}
    .fil1 {fill:#FB9902}
    .fil4 {fill:#FD5308}
    .fil5 {fill:#FE2712}
    .fil0 {fill:#082341;fill-rule:nonzero}
   ]]>
  </style>
 </defs>
 <g id="Layer_x0020_1">
  <metadata id="CorelCorpID_0Corel-Layer"/>
  <polygon class="fil0" points="705,35 705,484 765,484 765,370 792,346 936,484 1020,484 836,308 1018,152 929,152 765,291 765,35 "/>
  <path id="1" class="fil0" d="M1387 484l0 -331 -239 0c-27,0 -50,9 -70,26 -19,17 -29,38 -29,62l0 156c0,24 10,45 29,62 19,17 42,26 70,26l239 0zm-60 -54l-165 0c-15,0 -27,-4 -37,-13 -10,-9 -15,-20 -15,-33l0 -130c0,-13 5,-25 15,-33 10,-9 22,-13 37,-13l165 0 0 223z"/>
  <path id="2" class="fil0" d="M1770 240c0,-24 -10,-45 -29,-62 -19,-17 -42,-26 -69,-26l-147 0c-27,0 -50,9 -69,26 -19,17 -29,38 -29,62l0 243 60 0 0 -230c0,-14 5,-25 15,-34 10,-9 22,-13 37,-13l118 0c15,0 27,4 37,13 10,9 15,20 15,34l0 230 60 0 0 -243z"/>
  <polygon id="3" class="fil0" points="1800,153 1979,484 2050,484 2229,153 2161,153 2014,423 1868,153 "/>
  <path id="4" class="fil0" d="M2338 153c-27,0 -50,9 -69,26 -19,17 -29,38 -29,62l0 108 0 67c0,19 8,35 23,48 15,13 34,20 56,20l228 0 0 -52 -218 0c-9,0 -16,-2 -22,-6 -6,-4 -9,-10 -9,-16l0 -61 278 0 0 -108c0,-24 -10,-45 -29,-62 -19,-17 -42,-26 -69,-26l-142 0zm14 54l114 0c15,0 27,4 37,13 10,9 15,20 15,34l0 42 -218 0 0 -42c0,-13 5,-25 15,-33 10,-9 22,-13 37,-13z"/>
  <path id="5" class="fil0" d="M2712 152c-27,0 -50,9 -69,26 -19,17 -29,38 -29,62l0 243 60 0 0 -230c0,-14 5,-25 15,-34 10,-9 22,-13 37,-13l136 0 0 -53 -150 0z"/>
  <path id="6" class="fil0" d="M2981 152c-22,0 -41,7 -56,20 -15,13 -23,29 -23,48l0 51c0,19 8,35 23,48 15,13 34,20 56,20l158 0c9,0 16,2 22,7 5,5 8,11 8,19l0 43c0,8 -3,14 -8,19 -6,5 -13,7 -22,7l-223 0 0 50 233 0c22,0 41,-7 56,-20 15,-13 23,-29 23,-48l0 -58c0,-19 -8,-35 -23,-48 -15,-13 -34,-20 -56,-20l-158 0c-9,0 -16,-2 -22,-7 -6,-5 -8,-11 -8,-19l0 -35c0,-8 3,-14 8,-19 6,-5 13,-7 22,-7 98,0 167,0 208,0l0 -50 -218 0z"/>
  <path id="7" class="fil0" d="M3364 153c-27,0 -50,9 -69,26 -19,17 -29,38 -29,62l0 108 0 67c0,19 8,35 23,48 15,13 34,20 56,20l228 0 0 -52 -218 0c-9,0 -16,-2 -22,-6 -6,-4 -9,-10 -9,-16l0 -61 278 0 0 -108c0,-24 -10,-45 -29,-62 -19,-17 -42,-26 -69,-26l-142 0zm14 54l114 0c15,0 27,4 37,13 10,9 15,20 15,34l0 42 -218 0 0 -42c0,-13 5,-25 15,-33 10,-9 22,-13 37,-13z"/>
  <polygon class="fil1" points="137,390 0,266 8,258 140,126 271,257 138,389 "/>
  <path class="fil1" d="M399 385l-128 -128 0 0 261 261 -133 -133zm-261 5l-137 -124 0 -266 14 0 126 126 131 131 -132 132 -1 1z"/>
  <polygon class="fil1" points="271,257 527,0 266,0 140,126 8,258 0,266 0,518 9,518 138,389 "/>
  <polygon class="fil1" points="137,390 0,266 8,258 140,126 271,257 138,389 "/>
  <polygon class="fil1" points="8,258 140,126 14,0 0,0 0,266 "/>
  <polygon class="fil2" points="140,126 271,257 397,131 266,0 "/>
  <polygon class="fil3" points="266,0 397,131 527,0 "/>
  <polygon class="fil4" points="271,257 140,126 8,258 0,266 137,390 138,389 "/>
  <polygon class="fil5" points="137,390 0,266 0,518 9,518 "/>
  <polygon class="fil6" points="271,257 138,389 137,390 140,392 266,518 399,385 "/>
  <polygon class="fil7" points="399,385 266,518 532,518 "/>
  <path class="fil8" d="M1156 41c20,0 36,16 36,36 0,20 -16,36 -36,36 -20,0 -36,-16 -36,-36 0,-20 16,-36 36,-36z"/>
  <path class="fil8" d="M1282 41c20,0 36,16 36,36 0,20 -16,36 -36,36 -20,0 -36,-16 -36,-36 0,-20 16,-36 36,-36z"/>
  <path class="fil0" d="M3615 107l16 0 0 -8 -42 0 0 8 16 0 0 43 9 0 0 -43zm67 6l0 37 9 0 0 -51 -10 0 -16 24 -16 -24 -10 0 0 51 9 0 0 -37 16 24 0 0 16 -24z"/>
 </g>
</svg>
