<svg width="474" height="280" viewBox="0 0 474 280" fill="none" xmlns="http://www.w3.org/2000/svg">
<rect width="474" height="280" fill="white"/>
<path d="M425.575 52C421.351 52.0018 419.537 58.2753 415.404 59.1668C413.559 59.5649 411.675 58.7723 409.789 58.738C407.904 58.7037 405.648 60.1086 406.046 62L442 61.4439C438.284 61.048 434.808 59.3728 432.138 56.6911C430.189 54.7028 428.323 51.9988 425.575 52Z" fill="#F0F0F0"/>
<path d="M158.151 22.2837C156.798 20.892 155.502 18.9992 153.593 19C150.661 19.0012 149.401 23.3927 146.531 24.0167C145.249 24.2955 143.941 23.7406 142.632 23.7166C141.322 23.6926 139.755 24.676 140.032 26L165 25.6107C162.419 25.3336 160.005 24.1609 158.151 22.2837V22.2837Z" fill="#F0F0F0"/>
<path d="M243.118 49C238.778 49.0018 236.913 55.2753 232.666 56.1668C230.769 56.5649 228.833 55.7723 226.895 55.738C224.956 55.7037 222.638 57.1086 223.048 59L260 58.4439C256.18 58.048 252.608 56.3728 249.864 53.6911C247.861 51.7028 245.943 48.9988 243.118 49Z" fill="#F0F0F0"/>
<rect x="54" y="235" width="13" height="15" fill="white"/>
<rect x="209.562" y="125.637" width="18.6452" height="23.1124" rx="0.75" transform="rotate(39.9994 209.562 125.637)" fill="white" stroke="#CACACA" stroke-width="0.5"/>
<rect x="209.877" y="131.824" width="10.5299" height="0.655881" transform="rotate(39.9994 209.877 131.824)" fill="#EBEBE9"/>
<rect x="208.758" y="133.158" width="10.5299" height="0.655881" transform="rotate(39.9994 208.758 133.158)" fill="#EBEBE9"/>
<rect x="207.416" y="134.756" width="10.5299" height="0.655881" transform="rotate(39.9994 207.416 134.756)" fill="#EBEBE9"/>
<rect x="206.297" y="136.09" width="10.5299" height="0.655881" transform="rotate(39.9994 206.297 136.09)" fill="#EBEBE9"/>
<rect x="204.75" y="137.934" width="7.75477" height="0.655881" transform="rotate(39.9994 204.75 137.934)" fill="#5A67D8"/>
<rect x="203.631" y="139.268" width="7.75477" height="0.655881" transform="rotate(39.9994 203.631 139.268)" fill="#5A67D8"/>
<rect x="85.2557" y="109.238" width="38.5663" height="25.8471" rx="0.75" fill="white" stroke="#CACACA" stroke-width="0.5"/>
<rect x="90.9125" y="114.896" width="26.8013" height="0.933728" fill="#CACACA"/>
<rect x="90.9125" y="117.375" width="26.8013" height="0.933728" fill="#CACACA"/>
<rect x="90.9125" y="126.252" width="19.738" height="0.933728" fill="#CACACA"/>
<rect x="90.9125" y="128.73" width="19.738" height="0.933728" fill="#CACACA"/>
<rect x="133.704" y="101.969" width="26.7556" height="33.1152" rx="0.75" fill="white" stroke="#CACACA" stroke-width="0.5"/>
<rect x="139.812" y="108.529" width="14.9906" height="0.933728" fill="#CACACA"/>
<rect x="139.812" y="111.008" width="14.9906" height="0.933728" fill="#CACACA"/>
<rect x="139.812" y="113.982" width="14.9906" height="0.933728" fill="#CACACA"/>
<rect x="139.812" y="119.887" width="11.0399" height="0.933728" fill="#CACACA"/>
<rect x="139.812" y="122.365" width="11.0399" height="0.933728" fill="#CACACA"/>
<rect x="42.25" y="93.25" width="32.5" height="41.5" rx="0.75" fill="white" stroke="#CACACA" stroke-width="0.5"/>
<rect x="46.4034" y="116.82" width="24.9842" height="1.0973" fill="#CACACA"/>
<rect x="46.4034" y="119.119" width="24.9842" height="1.0973" fill="#CACACA"/>
<rect x="46.4034" y="107.734" width="24.9842" height="1.0973" fill="#CACACA"/>
<rect x="46.4034" y="110.033" width="24.9842" height="1.0973" fill="#CACACA"/>
<rect x="46.4034" y="98.6504" width="24.9842" height="1.0973" fill="#CACACA"/>
<rect x="46.4034" y="100.949" width="24.9842" height="1.0973" fill="#CACACA"/>
<rect x="46.4034" y="125.977" width="24.9842" height="1.0973" fill="#CACACA"/>
<rect x="46.4034" y="128.275" width="24.9842" height="1.0973" fill="#CACACA"/>
<rect x="32" y="142.555" width="137.936" height="6.61687" rx="3.30843" fill="#E6E6E6" fill-opacity="0.6"/>
<path d="M105.801 145.167C106.362 145.167 106.817 145.623 106.817 146.185C106.817 146.747 106.362 147.203 105.801 147.203C105.24 147.203 104.785 146.747 104.785 146.185C104.785 145.623 105.24 145.167 105.801 145.167Z" fill="white"/>
<path d="M113.945 145.167C114.506 145.167 114.961 145.623 114.961 146.185C114.961 146.747 114.506 147.203 113.945 147.203C113.384 147.203 112.929 146.747 112.929 146.185C112.929 145.623 113.384 145.167 113.945 145.167Z" fill="white"/>
<path d="M122.089 145.167C122.65 145.167 123.105 145.623 123.105 146.185C123.105 146.747 122.65 147.203 122.089 147.203C121.528 147.203 121.073 146.747 121.073 146.185C121.073 145.623 121.528 145.167 122.089 145.167Z" fill="white"/>
<path d="M130.233 145.167C130.794 145.167 131.249 145.623 131.249 146.185C131.249 146.747 130.794 147.203 130.233 147.203C129.672 147.203 129.217 146.747 129.217 146.185C129.217 145.623 129.672 145.167 130.233 145.167Z" fill="white"/>
<path d="M138.377 145.167C138.938 145.167 139.393 145.623 139.393 146.185C139.393 146.747 138.938 147.203 138.377 147.203C137.816 147.203 137.361 146.747 137.361 146.185C137.361 145.623 137.816 145.167 138.377 145.167Z" fill="white"/>
<path d="M146.521 145.167C147.082 145.167 147.537 145.623 147.537 146.185C147.537 146.747 147.082 147.203 146.521 147.203C145.96 147.203 145.505 146.747 145.505 146.185C145.505 145.623 145.96 145.167 146.521 145.167Z" fill="white"/>
<path d="M154.665 145.167C155.226 145.167 155.681 145.623 155.681 146.185C155.681 146.747 155.226 147.203 154.665 147.203C154.103 147.203 153.649 146.747 153.649 146.185C153.649 145.623 154.103 145.167 154.665 145.167Z" fill="white"/>
<path d="M48.7947 145.167C49.3558 145.167 49.8106 145.623 49.8106 146.185C49.8106 146.747 49.3558 147.203 48.7947 147.203C48.2336 147.203 47.7787 146.747 47.7787 146.185C47.7787 145.623 48.2336 145.167 48.7947 145.167Z" fill="white"/>
<path d="M56.9386 145.167C57.4997 145.167 57.9546 145.623 57.9546 146.185C57.9546 146.747 57.4997 147.203 56.9386 147.203C56.3775 147.203 55.9226 146.747 55.9226 146.185C55.9226 145.623 56.3775 145.167 56.9386 145.167Z" fill="white"/>
<path d="M65.0824 145.167C65.6436 145.167 66.0984 145.623 66.0984 146.185C66.0984 146.747 65.6436 147.203 65.0824 147.203C64.5213 147.203 64.0665 146.747 64.0665 146.185C64.0665 145.623 64.5213 145.167 65.0824 145.167Z" fill="white"/>
<path d="M73.2261 145.167C73.7872 145.167 74.242 145.623 74.242 146.185C74.242 146.747 73.7872 147.203 73.2261 147.203C72.665 147.203 72.2101 146.747 72.2101 146.185C72.2101 145.623 72.665 145.167 73.2261 145.167Z" fill="white"/>
<path d="M81.3696 145.167C81.9307 145.167 82.3855 145.623 82.3855 146.185C82.3855 146.747 81.9307 147.203 81.3696 147.203C80.8084 147.203 80.3536 146.747 80.3536 146.185C80.3536 145.623 80.8084 145.167 81.3696 145.167Z" fill="white"/>
<path d="M89.5135 145.167C90.0746 145.167 90.5295 145.623 90.5295 146.185C90.5295 146.747 90.0746 147.203 89.5135 147.203C88.9524 147.203 88.4976 146.747 88.4976 146.185C88.4976 145.623 88.9524 145.167 89.5135 145.167Z" fill="white"/>
<path d="M97.6574 145.167C98.2185 145.167 98.6734 145.623 98.6734 146.185C98.6734 146.747 98.2185 147.203 97.6574 147.203C97.0963 147.203 96.6414 146.747 96.6414 146.185C96.6414 145.623 97.0963 145.167 97.6574 145.167Z" fill="white"/>
<line x1="117" y1="259.5" x2="407" y2="259.5" stroke="#E6E6E6"/>
<path d="M278 259H247L251.051 242H273.949L278 259Z" fill="#E6E6E6"/>
<path d="M321.781 161.197H202.758C201.918 161.197 201.113 161.531 200.519 162.125C199.925 162.719 199.591 163.524 199.591 164.364V164.364V236.939H324.948V164.364C324.948 163.948 324.866 163.536 324.707 163.152C324.548 162.768 324.315 162.419 324.021 162.125C323.727 161.831 323.377 161.597 322.993 161.438C322.609 161.279 322.197 161.197 321.781 161.197H321.781Z" fill="#E6E6E6"/>
<path d="M199.591 229.457V241.333C199.591 241.749 199.673 242.161 199.832 242.545C199.991 242.929 200.225 243.278 200.519 243.572C200.813 243.866 201.162 244.1 201.546 244.259C201.93 244.418 202.342 244.5 202.758 244.5H321.781C322.621 244.5 323.427 244.166 324.021 243.572C324.615 242.978 324.948 242.173 324.948 241.333V229.457H199.591Z" fill="#E6E6E6"/>
<path d="M322.292 164.189H202.584V242.748H322.292V164.189Z" fill="white"/>
<path d="M209.447 170.47C209.779 170.47 210.048 170.201 210.048 169.869C210.048 169.537 209.779 169.268 209.447 169.268C209.115 169.268 208.846 169.537 208.846 169.869C208.846 170.201 209.115 170.47 209.447 170.47Z" fill="white"/>
<path d="M211.728 170.47C212.06 170.47 212.329 170.201 212.329 169.869C212.329 169.537 212.06 169.268 211.728 169.268C211.396 169.268 211.127 169.537 211.127 169.869C211.127 170.201 211.396 170.47 211.728 170.47Z" fill="white"/>
<path d="M214.009 170.47C214.341 170.47 214.61 170.201 214.61 169.869C214.61 169.537 214.341 169.268 214.009 169.268C213.677 169.268 213.408 169.537 213.408 169.869C213.408 170.201 213.677 170.47 214.009 170.47Z" fill="white"/>
<rect x="213.308" y="174.166" width="39.5636" height="42.146" rx="1.75" fill="white" stroke="#CACACA" stroke-width="0.5"/>
<rect x="219.044" y="180.008" width="12.719" height="11.5076" rx="1" fill="#E6E6E6"/>
<rect x="235.504" y="181.361" width="12.719" height="2.70768" rx="1" fill="#E6E6E6"/>
<rect x="235.504" y="186.1" width="8.9781" height="2.70768" rx="1" fill="#E6E6E6"/>
<rect x="218.296" y="205.055" width="29.3434" height="4.73844" rx="1" fill="#5A67D8"/>
<rect x="219.044" y="194.9" width="12.719" height="4.06152" rx="1" fill="#E6E6E6"/>
<rect x="235.504" y="194.9" width="12.719" height="4.06152" rx="1" fill="#E6E6E6"/>
<rect x="264.184" y="174.166" width="39.5636" height="42.146" rx="1.75" fill="white" stroke="#CACACA" stroke-width="0.5"/>
<rect x="269.92" y="180.008" width="12.719" height="11.5076" rx="1" fill="#E6E6E6"/>
<rect x="286.38" y="181.361" width="12.719" height="2.70768" rx="1" fill="#E6E6E6"/>
<rect x="286.38" y="186.1" width="8.9781" height="2.70768" rx="1" fill="#E6E6E6"/>
<rect x="269.172" y="205.055" width="29.3434" height="4.73844" rx="1" fill="#5A67D8"/>
<rect x="269.92" y="194.9" width="12.719" height="4.06152" rx="1" fill="#E6E6E6"/>
<rect x="286.38" y="194.9" width="12.719" height="4.06152" rx="1" fill="#E6E6E6"/>
<rect x="315.06" y="174.166" width="39.5636" height="42.146" rx="1.75" fill="white" stroke="#CACACA" stroke-width="0.5"/>
<rect x="320.796" y="180.008" width="12.719" height="11.5076" rx="1" fill="#E6E6E6"/>
<rect x="337.255" y="181.361" width="12.719" height="2.70768" rx="1" fill="#E6E6E6"/>
<rect x="337.255" y="186.1" width="8.9781" height="2.70768" rx="1" fill="#E6E6E6"/>
<rect x="320.047" y="205.055" width="29.3434" height="4.73844" rx="1" fill="#5A67D8"/>
<rect x="320.796" y="194.9" width="12.719" height="4.06152" rx="1" fill="#E6E6E6"/>
<rect x="337.255" y="194.9" width="12.719" height="4.06152" rx="1" fill="#E6E6E6"/>
<path d="M173.599 117.615C173.599 117.615 188.302 117.08 194.047 131.04" stroke="#E6E6E6"/>
<path d="M400.85 82.6381C392.246 131.269 317.054 125.007 317.054 162.319" stroke="#E6E6E6" stroke-width="2"/>
<circle cx="366" cy="121" r="16" fill="white"/>
<path d="M366.077 114C370.519 114 374.154 117.375 374.154 121.5C374.154 125.625 370.519 129 366.077 129C361.635 129 358 125.625 358 121.5C358 117.375 361.635 114 366.077 114ZM366.077 115.5C364.542 115.5 363.169 115.95 362.119 116.775L371.165 125.175C371.973 124.125 372.538 122.85 372.538 121.5C372.538 118.2 369.631 115.5 366.077 115.5ZM370.035 126.225L360.988 117.825C360.1 118.8 359.615 120.075 359.615 121.5C359.615 124.8 362.523 127.5 366.077 127.5C367.612 127.5 368.985 127.05 370.035 126.225Z" fill="#F56565"/>
<ellipse cx="401" cy="83.5" rx="3" ry="2.5" fill="#E6E6E6"/>
<circle cx="406.836" cy="66.9259" r="10.9708" fill="white" stroke="#5A67D8" stroke-width="2"/>
<path d="M406.093 55.5176C397.961 66.5122 406.093 78.6142 406.093 78.6142" stroke="#5A67D8" stroke-width="2"/>
<path d="M407.015 78.6152C413.853 65.2749 407.015 55.5186 407.015 55.5186" stroke="#5A67D8" stroke-width="2"/>
<line x1="396.425" y1="61.7617" x2="417.244" y2="61.7617" stroke="#5A67D8" stroke-width="2"/>
<line x1="395.689" y1="70.0547" x2="417.567" y2="70.0547" stroke="#5A67D8" stroke-width="2"/>
<rect x="253" y="227" width="22" height="7" rx="1" fill="#5A67D8"/>
<g opacity="0.3">
<path opacity="0.3" d="M321.534 35.6562H332.388C332.388 35.6562 328.299 42.8922 321.534 35.6562Z" fill="#030B44"/>
<path opacity="0.3" d="M322.19 38.7339L329.307 30.5391C329.307 30.5391 332.088 38.3715 322.19 38.7339Z" fill="#030B44"/>
</g>
<g opacity="0.3">
<path opacity="0.3" d="M299.099 24.9043H311.622C311.622 24.9043 306.904 33.2533 299.099 24.9043Z" fill="#030B44"/>
<path opacity="0.3" d="M299.855 28.4554L308.067 19C308.067 19 311.276 28.0372 299.855 28.4554Z" fill="#030B44"/>
</g>
</svg>
