<svg width="495" height="301" viewBox="0 0 495 301" fill="none" xmlns="http://www.w3.org/2000/svg">
<g clip-path="url(#clip0_3800_1103)">
<rect width="495" height="301" fill="white"/>
<path d="M495 150.604C495 229.139 383.495 300 280.731 300C177.967 300 1 173.441 1 94.9048C1 16.3689 222.522 94.9046 325.285 94.9046C428.049 94.9046 495 72.0677 495 150.604Z" fill="#F7FAFC"/>
<rect x="229.672" y="124.587" width="20.3744" height="25.2452" rx="0.75" transform="rotate(39.9994 229.672 124.587)" fill="white" stroke="#CBD5E0" stroke-width="0.5"/>
<rect x="116.484" y="114.139" width="35.0494" height="25.48" rx="0.75" fill="white" stroke="#CBD5E0" stroke-width="0.5"/>
<rect x="160.57" y="108.523" width="24.3019" height="30.089" rx="0.75" fill="white" stroke="#CBD5E0" stroke-width="0.5"/>
<rect x="77.3499" y="99.5879" width="29.5292" height="39.72" rx="0.75" fill="white" stroke="#CBD5E0" stroke-width="0.5"/>
<rect x="82" y="105.48" width="21" height="2" rx="1" fill="#CBD5E0"/>
<rect x="82" y="111.572" width="21" height="2" rx="1" fill="#CBD5E0"/>
<rect x="121" y="119" width="25" height="2" rx="1" fill="#CBD5E0"/>
<rect x="121" y="124.092" width="25" height="2" rx="1" fill="#CBD5E0"/>
<rect x="121" y="132" width="14" height="2" rx="1" fill="#CBD5E0"/>
<rect x="164" y="113" width="17" height="2" rx="1" fill="#CBD5E0"/>
<rect x="164" y="118" width="17" height="2" rx="1" fill="#CBD5E0"/>
<rect x="164" y="132" width="10" height="2" rx="1" fill="#CBD5E0"/>
<rect x="82" y="117.48" width="21" height="2" rx="1" fill="#CBD5E0"/>
<rect x="82" y="130" width="13" height="2" rx="1" fill="#CBD5E0"/>
<rect x="68" y="145.432" width="125.519" height="9.02" rx="4.51" fill="#EDF2F7"/>
<path d="M159.908 147.8C161.066 147.8 162.004 148.74 162.004 149.9C162.004 151.06 161.066 152 159.908 152C158.751 152 157.812 151.06 157.812 149.9C157.812 148.74 158.751 147.8 159.908 147.8Z" fill="white"/>
<path d="M170.688 147.8C171.845 147.8 172.784 148.74 172.784 149.9C172.784 151.06 171.845 152 170.688 152C169.53 152 168.592 151.06 168.592 149.9C168.592 148.74 169.53 147.8 170.688 147.8Z" fill="white"/>
<path d="M181.467 147.8C182.624 147.8 183.563 148.74 183.563 149.9C183.563 151.06 182.624 152 181.467 152C180.309 152 179.371 151.06 179.371 149.9C179.371 148.74 180.309 147.8 181.467 147.8Z" fill="white"/>
<path d="M84.454 147.8C85.6115 147.8 86.5499 148.74 86.5499 149.9C86.5499 151.06 85.6115 152 84.454 152C83.2965 152 82.3582 151.06 82.3582 149.9C82.3582 148.74 83.2965 147.8 84.454 147.8Z" fill="white"/>
<path d="M95.2333 147.8C96.3908 147.8 97.3292 148.74 97.3292 149.9C97.3292 151.06 96.3908 152 95.2333 152C94.0758 152 93.1375 151.06 93.1375 149.9C93.1375 148.74 94.0758 147.8 95.2333 147.8Z" fill="white"/>
<path d="M106.013 147.8C107.17 147.8 108.108 148.74 108.108 149.9C108.108 151.06 107.17 152 106.013 152C104.855 152 103.917 151.06 103.917 149.9C103.917 148.74 104.855 147.8 106.013 147.8Z" fill="white"/>
<path d="M116.791 147.8C117.949 147.8 118.887 148.74 118.887 149.9C118.887 151.06 117.949 152 116.791 152C115.634 152 114.696 151.06 114.696 149.9C114.696 148.74 115.634 147.8 116.791 147.8Z" fill="white"/>
<path d="M127.57 147.8C128.728 147.8 129.666 148.74 129.666 149.9C129.666 151.06 128.728 152 127.57 152C126.413 152 125.474 151.06 125.474 149.9C125.474 148.74 126.413 147.8 127.57 147.8Z" fill="white"/>
<path d="M138.35 147.8C139.507 147.8 140.445 148.74 140.445 149.9C140.445 151.06 139.507 152 138.35 152C137.192 152 136.254 151.06 136.254 149.9C136.254 148.74 137.192 147.8 138.35 147.8Z" fill="white"/>
<path d="M149.129 147.8C150.286 147.8 151.225 148.74 151.225 149.9C151.225 151.06 150.286 152 149.129 152C147.971 152 147.033 151.06 147.033 149.9C147.033 148.74 147.971 147.8 149.129 147.8Z" fill="white"/>
<line x1="242" y1="258.5" x2="311" y2="258.5" stroke="#CBD5E0"/>
<path d="M291.589 248.527H263.251L264.211 236.039H290.628L291.589 248.527Z" fill="#CBD5E0"/>
<path d="M294 247H261V258H294V247Z" fill="#CBD5E0"/>
<path d="M332.12 162H223.88C223.116 162 222.384 162.339 221.844 162.943C221.303 163.547 221 164.366 221 165.22L-nan -nanL-nan -nanL221 165.22V237C221 238.105 221.895 239 223 239H333C334.105 239 335 238.105 335 237V165.22C335 164.797 334.926 164.378 334.781 163.987C334.636 163.597 334.424 163.242 334.156 162.943C333.889 162.644 333.572 162.407 333.222 162.245C332.873 162.083 332.498 162 332.12 162H332.12Z" fill="#CBD5E0"/>
<path d="M332.158 165.117H223.227V236.603H332.158V165.117Z" fill="white"/>
<path d="M229.472 170.832C229.774 170.832 230.019 170.587 230.019 170.285C230.019 169.983 229.774 169.738 229.472 169.738C229.17 169.738 228.925 169.983 228.925 170.285C228.925 170.587 229.17 170.832 229.472 170.832Z" fill="white"/>
<path d="M231.548 170.832C231.85 170.832 232.095 170.587 232.095 170.285C232.095 169.983 231.85 169.738 231.548 169.738C231.246 169.738 231.001 169.983 231.001 170.285C231.001 170.587 231.246 170.832 231.548 170.832Z" fill="white"/>
<path d="M233.624 170.832C233.926 170.832 234.171 170.587 234.171 170.285C234.171 169.983 233.926 169.738 233.624 169.738C233.322 169.738 233.077 169.983 233.077 170.285C233.077 170.587 233.322 170.832 233.624 170.832Z" fill="white"/>
<rect x="233.009" y="174.219" width="35.9569" height="38.3068" rx="1.75" fill="white" stroke="#CBD5E0" stroke-width="0.5"/>
<rect x="238.205" y="179.512" width="11.574" height="10.4717" rx="1" fill="#CBD5E0"/>
<rect x="253.183" y="180.744" width="11.574" height="2.46392" rx="1" fill="#CBD5E0"/>
<rect x="253.183" y="185.055" width="8.16986" height="2.46392" rx="1" fill="#CBD5E0"/>
<rect x="237.524" y="202.305" width="26.7018" height="4.31187" rx="1" fill="#5A67D8"/>
<rect x="238.205" y="193.064" width="11.574" height="3.69589" rx="1" fill="#CBD5E0"/>
<rect x="253.183" y="193.064" width="11.574" height="3.69589" rx="1" fill="#CBD5E0"/>
<rect x="279.305" y="174.219" width="35.9569" height="38.3068" rx="1.75" fill="white" stroke="#CBD5E0" stroke-width="0.5"/>
<rect x="284.501" y="179.512" width="11.574" height="10.4717" rx="1" fill="#CBD5E0"/>
<rect x="299.479" y="180.744" width="11.574" height="2.46392" rx="1" fill="#CBD5E0"/>
<rect x="299.479" y="185.055" width="8.16986" height="2.46392" rx="1" fill="#CBD5E0"/>
<rect x="283.82" y="202.305" width="26.7018" height="4.31187" rx="1" fill="#5A67D8"/>
<rect x="284.501" y="193.064" width="11.574" height="3.69589" rx="1" fill="#CBD5E0"/>
<rect x="299.479" y="193.064" width="11.574" height="3.69589" rx="1" fill="#CBD5E0"/>
<rect x="325.6" y="174.219" width="35.9569" height="38.3068" rx="1.75" fill="white" stroke="#CBD5E0" stroke-width="0.5"/>
<rect x="330.797" y="179.512" width="11.574" height="10.4717" rx="1" fill="#CBD5E0"/>
<rect x="345.775" y="180.744" width="11.574" height="2.46392" rx="1" fill="#CBD5E0"/>
<rect x="345.775" y="185.055" width="8.16986" height="2.46392" rx="1" fill="#CBD5E0"/>
<rect x="330.116" y="202.305" width="26.7018" height="4.31187" rx="1" fill="#5A67D8"/>
<rect x="330.797" y="193.064" width="11.574" height="3.69589" rx="1" fill="#CBD5E0"/>
<rect x="345.775" y="193.064" width="11.574" height="3.69589" rx="1" fill="#CBD5E0"/>
<path d="M423.5 64.9988C415.671 109.252 327.393 129.463 327.393 163.416" stroke="#5A67D8" stroke-width="1.5" stroke-dasharray="3 3"/>
<circle cx="369.432" cy="116.318" r="17.06" fill="#F7FAFC"/>
<path d="M370.152 110.447C374.827 110.447 378.652 114.272 378.652 118.947C378.652 123.622 374.827 127.447 370.152 127.447C365.477 127.447 361.652 123.622 361.652 118.947C361.652 114.272 365.477 110.447 370.152 110.447ZM370.152 112.147C368.537 112.147 367.092 112.657 365.987 113.592L375.507 123.112C376.357 121.922 376.952 120.477 376.952 118.947C376.952 115.207 373.892 112.147 370.152 112.147ZM374.317 124.302L364.797 114.782C363.862 115.887 363.352 117.332 363.352 118.947C363.352 122.687 366.412 125.747 370.152 125.747C371.767 125.747 373.212 125.237 374.317 124.302Z" fill="#F56565"/>
<circle cx="424.5" cy="63.5" r="3.5" fill="#5A67D8"/>
<circle cx="434.395" cy="37.395" r="13.395" fill="white" stroke="#5A67D8" stroke-width="2"/>
<path d="M433.501 23.6758C423.722 36.897 433.501 51.4496 433.501 51.4496" stroke="#5A67D8" stroke-width="2"/>
<path d="M434.611 51.4512C442.833 35.4093 434.611 23.6773 434.611 23.6773" stroke="#5A67D8" stroke-width="2"/>
<line x1="421.876" y1="31.3887" x2="446.911" y2="31.3887" stroke="#5A67D8" stroke-width="2"/>
<line x1="420.991" y1="41.3574" x2="447.299" y2="41.3574" stroke="#5A67D8" stroke-width="2"/>
<rect x="269.104" y="222.275" width="20.0195" height="6.36983" rx="1" fill="#5A67D8"/>
<path d="M488.606 8.29125C487.671 3.56125 483.505 0 478.5 0C474.526 0 471.075 2.255 469.356 5.54125C465.217 5.995 462 9.4875 462 13.75C462 15.938 462.869 18.0365 464.416 19.5836C465.964 21.1308 468.062 22 470.25 22H488.125C489.028 22 489.922 21.8222 490.756 21.4767C491.59 21.1312 492.348 20.6248 492.986 19.9864C493.625 19.348 494.131 18.5901 494.477 17.7559C494.822 16.9218 495 16.0278 495 15.125C495 11.495 492.181 8.5525 488.606 8.29125Z" fill="#EDF2F7"/>
<path d="M318.35 68.03C317.67 64.59 314.64 62 311 62C308.11 62 305.6 63.64 304.35 66.03C301.34 66.36 299 68.9 299 72C299 73.5913 299.632 75.1174 300.757 76.2426C301.883 77.3679 303.409 78 305 78H318C318.657 78 319.307 77.8707 319.913 77.6194C320.52 77.3681 321.071 76.9998 321.536 76.5355C322 76.0712 322.368 75.52 322.619 74.9134C322.871 74.3068 323 73.6566 323 73C323 70.36 320.95 68.22 318.35 68.03Z" fill="#EDF2F7"/>
<rect x="229.256" y="135" width="10.1383" height="2" rx="1" transform="rotate(38.8861 229.256 135)" fill="#CBD5E0"/>
<rect x="223.256" y="142" width="5.78537" height="2" rx="1" transform="rotate(38.8861 223.256 142)" fill="#CBD5E0"/>
<path d="M208.998 11.5294C208.409 11.7971 207.774 11.9729 207.116 12.0571C207.789 11.6518 208.309 11.0094 208.554 10.2371C207.919 10.6194 207.216 10.8871 206.474 11.04C205.87 10.3824 205.021 10 204.058 10C202.261 10 200.792 11.4682 200.792 13.2806C200.792 13.5406 200.823 13.7929 200.876 14.03C198.154 13.8924 195.73 12.5847 194.116 10.6041C193.834 11.0859 193.673 11.6518 193.673 12.2482C193.673 13.3876 194.246 14.3971 195.134 14.9706C194.591 14.9706 194.086 14.8176 193.642 14.5882C193.642 14.5882 193.642 14.5882 193.642 14.6112C193.642 16.2018 194.774 17.5324 196.273 17.8306C195.998 17.9071 195.707 17.9453 195.409 17.9453C195.202 17.9453 194.996 17.9224 194.797 17.8841C195.21 19.1765 196.411 20.14 197.856 20.1629C196.739 21.05 195.325 21.57 193.78 21.57C193.52 21.57 193.26 21.5547 193 21.5241C194.453 22.4571 196.181 23 198.032 23C204.058 23 207.369 17.9988 207.369 13.6629C207.369 13.5176 207.369 13.38 207.361 13.2347C208.004 12.7759 208.554 12.1947 208.998 11.5294Z" fill="#EDF2F7"/>
</g>
<defs>
<clipPath id="clip0_3800_1103">
<rect width="495" height="301" fill="white"/>
</clipPath>
</defs>
</svg>
