<svg width="428" height="498" viewBox="0 0 428 498" fill="none" xmlns="http://www.w3.org/2000/svg">
<path d="M214.5 129.5C250.274 129.5 279.25 100.524 279.25 64.75C279.25 28.9756 250.274 0 214.5 0C178.726 0 149.75 28.9756 149.75 64.75C149.75 100.524 178.726 129.5 214.5 129.5ZM214.5 161.875C171.279 161.875 85 183.566 85 226.625V259H344V226.625C344 183.566 257.721 161.875 214.5 161.875Z" fill="#4A5468"/>
<rect x="200" y="210" width="30" height="206" fill="#4A5468"/>
<path d="M43 328C43 311.431 56.4315 298 73 298H355C371.569 298 385 311.431 385 328V328H43V328Z" fill="#4A5468"/>
<rect x="355" y="328" width="30" height="88" fill="#4A5468"/>
<rect x="43" y="328" width="30" height="88" fill="#4A5468"/>
<path d="M156 384C156 382.895 156.895 382 158 382H270C271.105 382 272 382.895 272 384V496C272 497.105 271.105 498 270 498H158C156.895 498 156 497.105 156 496V384Z" fill="#4A5468"/>
<path d="M0 384C0 382.895 0.895431 382 2 382H114C115.105 382 116 382.895 116 384V496C116 497.105 115.105 498 114 498H2C0.895428 498 0 497.105 0 496V384Z" fill="#4A5468"/>
<path d="M312 384C312 382.895 312.895 382 314 382H426C427.105 382 428 382.895 428 384V496C428 497.105 427.105 498 426 498H314C312.895 498 312 497.105 312 496V384Z" fill="#4A5468"/>
</svg>
