<svg width="512" height="512" viewBox="0 0 512 512" fill="none" xmlns="http://www.w3.org/2000/svg">
<g clip-path="url(#clip0_1612_134)">
<path d="M32 464V48.0003C32 39.1633 39.163 32.0003 48 32.0003H288V96.0003C288 113.673 302.327 128 320 128H384V176H416V112C416.025 107.747 414.355 103.659 411.36 100.64L315.36 4.64025C312.341 1.64526 308.253 -0.0237447 304 0.000255299H48C21.49 0.000255299 0 21.4913 0 48.0003V464C0 490.51 21.49 512 48 512H160V480H48C39.164 480 32 472.837 32 464Z" fill="#BEBEBE"/>
<path d="M192 256H128C119.163 256 112 263.163 112 272V400C112 408.837 119.163 416 128 416H192C209.673 416 224 401.673 224 384V288C224 270.327 209.673 256 192 256ZM192 384H144V288H192V384Z" fill="#BEBEBE"/>
<path d="M304 256C268.654 256 240 284.654 240 320V352C240 387.346 268.654 416 304 416C339.346 416 368 387.346 368 352V320C368 284.654 339.346 256 304 256ZM336 352C336 369.673 321.673 384 304 384C286.327 384 272 369.673 272 352V320C272 302.327 286.327 288 304 288C321.673 288 336 302.327 336 320V352Z" fill="#BEBEBE"/>
<path d="M448 384C430.327 384 416 369.673 416 352V320C416 302.327 430.327 288 448 288C465.673 288 480 302.327 480 320H512C512 284.654 483.346 256 448 256C412.654 256 384 284.654 384 320V352C384 387.346 412.654 416 448 416C483.346 416 512 387.346 512 352H480C480 369.673 465.673 384 448 384Z" fill="#BEBEBE"/>
</g>
<defs>
<clipPath id="clip0_1612_134">
<rect width="512" height="512" fill="white"/>
</clipPath>
</defs>
</svg>
