<svg xmlns="http://www.w3.org/2000/svg" xmlns:xlink="http://www.w3.org/1999/xlink" width="235.19" height="32.21" viewBox="0 0 235.19 32.21">
  <defs>
    <clipPath id="clip-logo">
      <rect width="235.19" height="32.21"/>
    </clipPath>
  </defs>
  <g id="logo" clip-path="url(#clip-logo)">
    <g id="logo-vertical">
      <g id="Group_22" data-name="Group 22">
        <path id="Path_26" data-name="Path 26" d="M8.642,42.041,4.3,34.6,0,42.041Z" transform="translate(0 -18.61)" fill="#bcbec0"/>
        <path id="Path_27" data-name="Path 27" d="M31.642,44.887l-4.3-7.487L23,44.887Z" transform="translate(-12.371 -20.116)" fill="#005da6"/>
        <path id="Path_28" data-name="Path 28" d="M50.342,44.887,46,37.4l-4.3,7.487Z" transform="translate(-22.428 -20.116)" fill="#005da6"/>
        <path id="Path_29" data-name="Path 29" d="M73.142,42.041,68.8,34.6l-4.3,7.441Z" transform="translate(-34.691 -18.61)" fill="#bcbec0"/>
        <path id="Path_30" data-name="Path 30" d="M13.644,42.041l4.3-7.441H9.3Z" transform="translate(-5.002 -18.61)" fill="#2b4982"/>
        <path id="Path_31" data-name="Path 31" d="M36.7,44.887,41,37.4H32.4Z" transform="translate(-17.426 -20.116)" fill="#1b3668"/>
        <path id="Path_32" data-name="Path 32" d="M59.5,42.041,63.8,34.6H55.2Z" transform="translate(-29.689 -18.61)" fill="#2b4982"/>
        <path id="Path_33" data-name="Path 33" d="M46,61.041,50.342,53.6H41.7Z" transform="translate(-22.428 -28.829)" fill="#00a7e0"/>
        <path id="Path_34" data-name="Path 34" d="M27.3,61.041,31.6,53.6H23Z" transform="translate(-12.371 -28.829)" fill="#00a7e0"/>
        <path id="Path_35" data-name="Path 35" d="M59.642,61.041l-4.3-7.441L51,61.041Z" transform="translate(-27.43 -28.829)" fill="#bcbec0"/>
        <path id="Path_36" data-name="Path 36" d="M22.3,61.041,18,53.6l-4.3,7.441Z" transform="translate(-7.369 -28.829)" fill="#bcbec0"/>
        <path id="Path_37" data-name="Path 37" d="M64.5,18.4l4.3,7.487L73.142,18.4Z" transform="translate(-34.691 -9.896)" fill="#bcbec0"/>
        <path id="Path_38" data-name="Path 38" d="M41.7,16.2,46,23.641,50.342,16.2Z" transform="translate(-22.428 -8.713)" fill="#005da6"/>
        <path id="Path_39" data-name="Path 39" d="M23,16.2l4.344,7.441,4.3-7.441Z" transform="translate(-12.371 -8.713)" fill="#005da6"/>
        <path id="Path_40" data-name="Path 40" d="M0,18.4l4.3,7.487L8.642,18.4Z" transform="translate(0 -9.896)" fill="#bcbec0"/>
        <path id="Path_41" data-name="Path 41" d="M59.5,18.4l-4.3,7.487h8.6Z" transform="translate(-29.689 -9.896)" fill="#005da6"/>
        <path id="Path_42" data-name="Path 42" d="M36.7,16.2l-4.3,7.441H41Z" transform="translate(-17.426 -8.713)" fill="#1b3668"/>
        <path id="Path_43" data-name="Path 43" d="M13.644,18.4,9.3,25.887h8.642Z" transform="translate(-5.002 -9.896)" fill="#005da6"/>
        <path id="Path_44" data-name="Path 44" d="M27.344,0,23,7.487h8.642Z" transform="translate(-12.371)" fill="#00a7e0"/>
        <path id="Path_45" data-name="Path 45" d="M46.1,0,41.8,7.487h8.6Z" transform="translate(-22.482)" fill="#00a7e0"/>
        <path id="Path_46" data-name="Path 46" d="M13.7,0,18,7.487,22.342,0Z" transform="translate(-7.369)" fill="#bcbec0"/>
        <path id="Path_47" data-name="Path 47" d="M51.1,0l4.3,7.487L59.7,0Z" transform="translate(-27.484)" fill="#bcbec0"/>
      </g>
      <g id="Group_26" data-name="Group 26" transform="translate(52.362 2.773)">
        <g id="Group_24" data-name="Group 24">
          <path id="Path_48" data-name="Path 48" d="M192.189,26.757v7.487a8.512,8.512,0,0,0,.832,3.974H189a6.428,6.428,0,0,1-.693-2.912v-.046a9.624,9.624,0,0,1-7.9,3.7c-3.928,0-9.1-1.8-9.1-7.21,0-5.361,5.176-7.163,9.1-7.163a9.624,9.624,0,0,1,7.9,3.7V26.757c0-4.437-2.4-5.638-7.071-5.638a11.769,11.769,0,0,0-6.886,2.08l-1.386-2.958a17.053,17.053,0,0,1,9.012-2.542c6.378-.046,10.213,2.588,10.213,9.058m-3.79,4.668c-1.479-2.865-4.529-3.743-7.256-3.743-2.4,0-6.008.693-6.008,4.021s3.6,4.067,6.008,4.067c2.727,0,5.777-.924,7.256-3.7Z" transform="translate(-144.495 -12.292)" fill="#77787b"/>
          <path id="Path_49" data-name="Path 49" d="M226.2,37.251V16.639h4.021v3.974a9.569,9.569,0,0,1,8.6-4.714c5.731,0,8.6,4.021,8.6,9.566V37.251h-3.974V25.744c0-4.067-1.895-6.239-5.638-6.239a8.135,8.135,0,0,0-7.579,5.037V37.205H226.2Z" transform="translate(-174.023 -11.325)" fill="#77787b"/>
          <path id="Path_50" data-name="Path 50" d="M286.28,38.112H282.12L272.6,17.5h4.3l7.348,16.36,7.3-16.36H295.8Z" transform="translate(-198.98 -12.185)" fill="#005da6"/>
          <path id="Path_51" data-name="Path 51" d="M375.7,37.628V17.016h3.743V21.73a8.76,8.76,0,0,1,8.319-5.13v3.836c-3.928,0-7.163,1.895-8.319,5.777V37.582H375.7Z" transform="translate(-254.432 -11.701)" fill="#005da6"/>
          <path id="Path_52" data-name="Path 52" d="M426.664,31.09c0,3.836-3.235,6.84-9.428,6.84a13.134,13.134,0,0,1-9.89-4.252l1.294-2.588a11.856,11.856,0,0,0,8.688,3.42c3.235,0,5.777-.971,5.777-3.05s-2.265-2.727-6.424-3.1c-4.806-.416-9.382-1.71-9.382-6.147,0-4.021,3.559-6.516,9.474-6.516a14.6,14.6,0,0,1,9.058,3.281L423.8,21.847a10.8,10.8,0,0,0-7.256-2.727c-2.4,0-5.684.555-5.684,2.819,0,2.126,2.819,2.5,6.424,2.727,5.361.508,9.382,2.218,9.382,6.424" transform="translate(-271.428 -11.217)" fill="#005da6"/>
          <g id="Group_23" data-name="Group 23" transform="translate(33.598)">
            <circle id="Ellipse_6" data-name="Ellipse 6" cx="1.525" cy="1.525" r="1.525" fill="#77787b"/>
            <circle id="Ellipse_7" data-name="Ellipse 7" cx="1.525" cy="1.525" r="1.525" transform="translate(5.823)" fill="#77787b"/>
          </g>
          <path id="Path_53" data-name="Path 53" d="M134.466,32.019,124.3,18.848l-6.978,6.285v6.886H113.3V6h4.021V20.28L133.265,6h5.407L127.349,16.26l12.016,15.759Z" transform="translate(-113.3 -6)" fill="#77787b"/>
          <path id="Path_54" data-name="Path 54" d="M334.023,34.517a9.111,9.111,0,0,0,7.21-2.958l2.172,2.727c-2.4,2.542-5.453,3.7-9.566,3.7-7.071,0-11.092-4.252-11.138-11.045,0-6.84,4.067-11.138,10.814-11.138,6.332,0,10.491,3.882,10.491,11.092l-17.1,3.42c1.109,2.819,3.6,4.206,7.117,4.206m6.378-9.982c-.786-3.743-3.281-5.315-6.747-5.315-3.7,0-6.285,1.849-7.025,5.5h0a9.365,9.365,0,0,0-.185,2.5Z" transform="translate(-225.926 -11.271)" fill="#005da6"/>
          <path id="Path_55" data-name="Path 55" d="M463.923,34.517a9.111,9.111,0,0,0,7.21-2.958l2.172,2.727c-2.4,2.542-5.453,3.7-9.567,3.7-7.071,0-11.092-4.252-11.138-11.045,0-6.84,4.067-11.138,10.814-11.138,6.331,0,10.491,3.882,10.491,11.092l-17.1,3.42c1.063,2.819,3.559,4.206,7.117,4.206m6.331-9.982c-.786-3.743-3.281-5.315-6.747-5.315-3.7,0-6.285,1.849-7.025,5.5h0a9.364,9.364,0,0,0-.185,2.5Z" transform="translate(-295.793 -11.271)" fill="#005da6"/>
        </g>
        <g id="Group_25" data-name="Group 25" transform="translate(177.881 5.13)">
          <path id="Path_56" data-name="Path 56" d="M498.985,17.562H498.2V17.1h2.034v.462h-.786v2.449h-.462Z" transform="translate(-498.2 -17.1)" fill="#005da6"/>
          <path id="Path_57" data-name="Path 57" d="M503.5,17.1h.508l.739,1.34.739-1.34H506v2.912h-.462v-2.08l-.786,1.34h0l-.786-1.34v2.033H503.5Z" transform="translate(-501.05 -17.1)" fill="#005da6"/>
        </g>
      </g>
    </g>
  </g>
</svg>
