<svg width="428" height="498" viewBox="0 0 428 498" fill="none" xmlns="http://www.w3.org/2000/svg">
<rect x="200" y="146" width="30" height="206" fill="#4A5468"/>
<path d="M43 264C43 247.431 56.4315 234 73 234H355C371.569 234 385 247.431 385 264V264H43V264Z" fill="#4A5468"/>
<rect x="355" y="264" width="30" height="88" fill="#4A5468"/>
<rect x="43" y="264" width="30" height="88" fill="#4A5468"/>
<path d="M156 354C156 352.895 156.895 352 158 352H270C271.105 352 272 352.895 272 354V496C272 497.105 271.105 498 270 498H158C156.895 498 156 497.105 156 496V354Z" fill="#4A5468"/>
<path d="M156 2C156 0.895432 156.895 0 158 0H270C271.105 0 272 0.895431 272 2V144C272 145.105 271.105 146 270 146H158C156.895 146 156 145.105 156 144V2Z" fill="#4A5468"/>
<path d="M0 354C0 352.895 0.895431 352 2 352H114C115.105 352 116 352.895 116 354V496C116 497.105 115.105 498 114 498H2C0.895428 498 0 497.105 0 496V354Z" fill="#4A5468"/>
<path d="M312 354C312 352.895 312.895 352 314 352H426C427.105 352 428 352.895 428 354V496C428 497.105 427.105 498 426 498H314C312.895 498 312 497.105 312 496V354Z" fill="#4A5468"/>
</svg>
