<svg width="21" height="21" viewBox="0 0 21 21" fill="none" xmlns="http://www.w3.org/2000/svg">
<g clip-path="url(#clip0_3603_1254)">
<path d="M8.64 12.4C7.63 11.5 6.34 11.03 5 11V14L1 10L5 6V9C6.67 9 8.3 9.57 9.63 10.59C9.22 11.15 8.89 11.76 8.64 12.4ZM17 14V11C16.5 11 12.5 11.16 12.05 15.2C13.61 15.75 14.43 17.47 13.88 19.03C13.33 20.59 11.61 21.41 10.05 20.86C8.5 20.3 7.67 18.59 8.22 17.03C8.5 16.17 9.2 15.5 10.05 15.2C10.34 11.61 13.4 8.88 17 9V6L21 10L17 14ZM12 18C12 17.7348 11.8946 17.4804 11.7071 17.2929C11.5196 17.1054 11.2652 17 11 17C10.7348 17 10.4804 17.1054 10.2929 17.2929C10.1054 17.4804 10 17.7348 10 18C10 18.2652 10.1054 18.5196 10.2929 18.7071C10.4804 18.8946 10.7348 19 11 19C11.2652 19 11.5196 18.8946 11.7071 18.7071C11.8946 18.5196 12 18.2652 12 18ZM10 10.12C10.58 9.46 11.25 8.89 12 8.43V4H15L11 0L7 4H10V10.12Z" fill="#A0AEC0"/>
</g>
<defs>
<clipPath id="clip0_3603_1254">
<rect width="21" height="21" fill="white"/>
</clipPath>
</defs>
</svg>
