<svg xmlns="http://www.w3.org/2000/svg" xmlns:xlink="http://www.w3.org/1999/xlink" width="1104" height="802" viewBox="0 0 1104 802">
  <defs>
    <linearGradient id="linear-gradient" x1="0.5" y1="1" x2="0.5" gradientUnits="objectBoundingBox">
      <stop offset="0" stop-color="gray" stop-opacity="0.251"/>
      <stop offset="0.54" stop-color="gray" stop-opacity="0.122"/>
      <stop offset="1" stop-color="gray" stop-opacity="0.102"/>
    </linearGradient>
    <linearGradient id="linear-gradient-4" x1="0.5" y1="1.001" x2="0.5" y2="0" xlink:href="#linear-gradient"/>
    <linearGradient id="linear-gradient-5" x1="0" y1="0.5" x2="1" y2="0.5" xlink:href="#linear-gradient"/>
    <linearGradient id="linear-gradient-6" x1="1.414" y1="1" x2="1.414" y2="0" xlink:href="#linear-gradient"/>
    <linearGradient id="linear-gradient-8" x1="0.501" y1="1.001" x2="0.501" y2="0" xlink:href="#linear-gradient"/>
    <clipPath id="clip-login-graphic">
      <rect width="1104" height="802"/>
    </clipPath>
  </defs>
  <g id="login-graphic" clip-path="url(#clip-login-graphic)">
    <g id="login" transform="translate(-0.012 -0.41)">
      <path id="Path_1" data-name="Path 1" d="M210,98.74c-8.06-.23-16.32,0-23.88,2.32-20.57,6.32-30.32,27-27.15,44.87s16.21,33.44,29.74,47.67,28.19,28.3,35.61,45.31c3.7,8.49,5.43,18,1.67,26.48-5.8,13.07-23.29,20.37-40.08,21.89s-33.65-1.44-50.5-2.43c-7.07-.41-14.34-.46-21,1.45-7.31,2.08-13.4,6.33-19,10.76C73.52,314.42,56,338.13,58.86,363c3.2,28.23,31.74,50.54,63,62.51,10.35,4,21.3,7.18,30.41,12.84,24,14.93,29.39,42.93,27,67.64s-10.53,49.45-6,73.94c5.33,28.49,28.92,54.23,60.74,66.25,28.35,10.71,63.83,10,89-5.11,12.27-7.38,21.55-17.63,29.62-28.23a227.74,227.74,0,0,0,29.45-51c3.51-8.49,6.81-17.62,15-23.52,5-3.63,11.48-5.66,17.89-7.24,19.32-4.76,39.67-6.06,59.17-10.3s39.07-12.15,49.67-26.28c15-20,8-45.62,8.07-69.14.12-53.66,39.11-101.69,53.5-154,4.7-17.09,6.45-36-4.05-51.25-7.13-10.35-19.16-17.82-31.8-23.59-27.81-12.69-59.42-18.34-90.51-23.84-43.21-7.64-95.68-8.63-129.17-33.35C297.76,115.65,253.79,98.74,210,98.74Z" transform="translate(-56.59 -55.12)" fill="#6c63ff" opacity="0.2"/>
      <g id="Group_1" data-name="Group 1" opacity="0.5">
        <path id="Path_2" data-name="Path 2" d="M83.93,404.47c-2.14,3.16-3.9,7.75-1.1,13.1,5.5,10.5,19.1,8.34,25.71,18.39a18.38,18.38,0,0,1,2.85,9.29c.25,5.69-1.51,10.17-2.42,15.18a25.66,25.66,0,0,0,2.62,17.34,30.62,30.62,0,0,0,14,12.49c5.12,2.26,10,2.84,14.9,3.94a91.71,91.71,0,0,1,17.67,6,33.358,33.358,0,0,1,7.54,4.4,54.91,54.91,0,0,1,7.63,8.22l21.27,26.26a75.179,75.179,0,0,0,9,9.84,54.215,54.215,0,0,0,11.72,7.21c8.49,4.23,17.37,8.56,24.74,8.07s12.49-7.6,9-17.54c-3.3-9.46-12.6-17.43-16.82-26.87-6.65-14.88,2.06-26-3.51-40.9-5.34-14.32-20.31-23.92-29.87-37C192,432.59,188.18,421.77,182,412c-9-14-22.4-24.71-35-30.13A67.93,67.93,0,0,0,111.84,377c-4.56.5-9.05,1.35-12.29,4.08-3.44,2.9-3,8.32-5.24,12.17C91.74,397.68,86.84,400.19,83.93,404.47Z" transform="translate(-56.59 -55.12)" fill="#6c63ff"/>
        <path id="Path_3" data-name="Path 3" d="M97.28,384.33S203.76,483.88,246.7,561.39" transform="translate(-56.59 -55.12)" fill="none" stroke="#535461" stroke-miterlimit="10" stroke-width="2"/>
        <path id="Path_4" data-name="Path 4" d="M83.24,418.18s42.55-8.27,72,24.9" transform="translate(-56.59 -55.12)" fill="none" stroke="#535461" stroke-miterlimit="10" stroke-width="2"/>
        <path id="Path_5" data-name="Path 5" d="M113.48,480.69s47-32.87,63.26-13.75" transform="translate(-56.59 -55.12)" fill="none" stroke="#535461" stroke-miterlimit="10" stroke-width="2"/>
        <path id="Path_6" data-name="Path 6" d="M146.8,381.63s-4.95,25.16,12.86,66.26" transform="translate(-56.59 -55.12)" fill="none" stroke="#535461" stroke-miterlimit="10" stroke-width="2"/>
        <path id="Path_7" data-name="Path 7" d="M228.68,479.28s-4.16,16.5-37.6,4.37" transform="translate(-56.59 -55.12)" fill="none" stroke="#535461" stroke-miterlimit="10" stroke-width="2"/>
        <path id="Path_8" data-name="Path 8" d="M194.73,537s20.41-23.59,11.13-35.17" transform="translate(-56.59 -55.12)" fill="none" stroke="#535461" stroke-miterlimit="10" stroke-width="2"/>
      </g>
      <path id="Path_9" data-name="Path 9" d="M63.92,289c-5,5.91-9.68,14.09-6,22.16C65,327,91.21,319.25,100.56,334c2.8,4.41,3.18,9.8,2.53,14.61-1.26,9.41-5.92,17.4-9.14,26s-4.89,19-.35,28.08c4.37,8.79,13.58,14.34,22.5,16.55s17.86,1.71,26.77,2a148.2,148.2,0,0,1,31.35,4.62A43.308,43.308,0,0,1,187,431c4.55,2.91,8.23,7.18,11.83,11.38l32,37.29c4.25,5,8.59,10,13.86,13.67,6.08,4.23,13,6.38,19.81,8.45,14.65,4.48,30,9,44,5.93s25.75-16.45,22.25-31.94c-3.33-14.75-18.35-25.21-23.41-39.66-8-22.77,11.75-43.89,5.82-67.06-5.68-22.22-30.86-33.68-44.86-52.49-10-13.48-13.94-30.34-22.68-44.68C233,251.19,211,237.48,189.1,232.27s-43.93-2.78-64.47,2.43c-8.7,2.21-17.4,5-24.3,10.52C93,251.09,92.16,260,86.82,267.08,80.63,275.31,70.66,281,63.92,289Z" transform="translate(-56.59 -55.12)" fill="#6c63ff"/>
      <path id="Path_10" data-name="Path 10" d="M95.07,251.4S264.74,384.9,321.83,501" transform="translate(-56.59 -55.12)" fill="none" stroke="#535461" stroke-miterlimit="10" stroke-width="2"/>
      <path id="Path_11" data-name="Path 11" d="M58.46,312S140.83,285.35,186,331.66" transform="translate(-56.59 -55.12)" fill="none" stroke="#535461" stroke-miterlimit="10" stroke-width="2"/>
      <path id="Path_12" data-name="Path 12" d="M96.26,407s98.11-69,122.91-42.09" transform="translate(-56.59 -55.12)" fill="none" stroke="#535461" stroke-miterlimit="10" stroke-width="2"/>
      <path id="Path_13" data-name="Path 13" d="M188.85,231.88s-16.91,43.39,4,106.46" transform="translate(-56.59 -55.12)" fill="none" stroke="#535461" stroke-miterlimit="10" stroke-width="2"/>
      <path id="Path_14" data-name="Path 14" d="M312.9,369.69s-12.81,28.73-71.9,18.68" transform="translate(-56.59 -55.12)" fill="none" stroke="#535461" stroke-miterlimit="10" stroke-width="2"/>
      <path id="Path_15" data-name="Path 15" d="M231.69,476.1s45.47-45.48,31.57-62" transform="translate(-56.59 -55.12)" fill="none" stroke="#535461" stroke-miterlimit="10" stroke-width="2"/>
      <ellipse id="Ellipse_1" data-name="Ellipse 1" cx="465" cy="124.52" rx="465" ry="124.52" transform="translate(152.97 522.64)" fill="#6c63ff" opacity="0.1"/>
      <path id="Path_16" data-name="Path 16" d="M1036.74,55.53s-35.83,35.83-15.6,89-34.68,141.59-34.68,141.59.59-.09,1.68-.28c73.59-13,110.16-97.16,69.24-159.69C1042.17,102.91,1029.68,75.65,1036.74,55.53Z" transform="translate(-56.59 -55.12)" fill="#6c63ff"/>
      <path id="Path_17" data-name="Path 17" d="M1036.74,55.53s-20.23,43.92,0,79.75,3.47,136.39-50.28,150.84" transform="translate(-56.59 -55.12)" fill="none" stroke="#535461" stroke-miterlimit="10" stroke-width="2"/>
      <path id="Path_18" data-name="Path 18" d="M1100.56,200.46s-40.89-6.51-44.61,30.13-78.62,41.72-78.62,41.72l1.4.93c61.84,40.59,121,25.86,112-28C1087.46,225.16,1087.73,205,1100.56,200.46Z" transform="translate(-56.59 -55.12)" fill="#6c63ff"/>
      <path id="Path_19" data-name="Path 19" d="M1100.56,200.46s-40.89-6.51-44.61,30.13-78.62,41.72-78.62,41.72l1.4.93c61.84,40.59,121,25.86,112-28C1087.46,225.16,1087.73,205,1100.56,200.46Z" transform="translate(-56.59 -55.12)" fill="#f5f5f5" opacity="0.2"/>
      <path id="Path_20" data-name="Path 20" d="M1100.56,200.46s-31.74,7-29.13,35.82-47.13,63.45-94.1,36" transform="translate(-56.59 -55.12)" fill="none" stroke="#535461" stroke-miterlimit="10" stroke-width="2"/>
      <path id="Path_21" data-name="Path 21" d="M303.29,334.92s-13.26-45,2.49-78.14a71.09,71.09,0,0,0,5.75-44.6,119.57,119.57,0,0,0-6.31-20.93" transform="translate(-56.59 -55.12)" fill="none" stroke="#535461" stroke-miterlimit="10" stroke-width="2"/>
      <path id="Path_22" data-name="Path 22" d="M315,170.3c0,5.52-10,21.51-10,21.51s-10-16-10-21.51a10,10,0,0,1,20,0Z" transform="translate(-56.59 -55.12)" fill="#6c63ff"/>
      <path id="Path_23" data-name="Path 23" d="M331.52,200.86c-3,4.63-20.08,12.63-20.08,12.63s.31-18.86,3.31-23.49a10,10,0,1,1,16.77,10.86Z" transform="translate(-56.59 -55.12)" fill="#6c63ff"/>
      <path id="Path_24" data-name="Path 24" d="M330.8,253.08c-4.93,2.48-23.71.77-23.71.77s9.79-16.12,14.71-18.6a10,10,0,1,1,9,17.84Z" transform="translate(-56.59 -55.12)" fill="#6c63ff"/>
      <path id="Path_25" data-name="Path 25" d="M321.36,292.46c-4.44,3.28-23.24,4.76-23.24,4.76s6.92-17.54,11.36-20.82a10,10,0,1,1,11.88,16.06Z" transform="translate(-56.59 -55.12)" fill="#6c63ff"/>
      <path id="Path_26" data-name="Path 26" d="M290.47,214.56c4,3.84,22.39,7.83,22.39,7.83s-4.51-18.31-8.47-22.15a10,10,0,1,0-13.92,14.33Z" transform="translate(-56.59 -55.12)" fill="#6c63ff"/>
      <path id="Path_27" data-name="Path 27" d="M280,260.76c4.93,2.48,23.71.77,23.71.77s-9.79-16.12-14.71-18.6a10,10,0,0,0-9,17.84Z" transform="translate(-56.59 -55.12)" fill="#6c63ff"/>
      <path id="Path_28" data-name="Path 28" d="M276,307.06c4.44,3.28,23.24,4.76,23.24,4.76s-6.92-17.54-11.36-20.82A10,10,0,0,0,276,307.06Z" transform="translate(-56.59 -55.12)" fill="#6c63ff"/>
      <path id="Path_29" data-name="Path 29" d="M1129,596.62h-85.09a28.36,28.36,0,0,0,3-12.67V196.47A28.49,28.49,0,0,0,1018.42,168H359.75a28.49,28.49,0,0,0-28.49,28.49V583.95a28.36,28.36,0,0,0,3,12.67h-88.1a7.53,7.53,0,0,0-7.53,7.53v6.07a42.14,42.14,0,0,0,42.14,42.14h813.68a42.14,42.14,0,0,0,42.14-42.14v-6.07a7.531,7.531,0,0,0-7.59-7.53Zm-524.29,24.1-7.3-8.29H778.52l-8.08,8.29Z" transform="translate(-56.59 -55.12)" fill="url(#linear-gradient)"/>
      <rect id="Rectangle_1" data-name="Rectangle 1" width="699.44" height="434.39" rx="23.26" transform="translate(282.74 118.35)" fill="#535461"/>
      <rect id="Rectangle_2" data-name="Rectangle 2" width="668.52" height="354.87" transform="translate(297.47 181.67)" fill="#f1f1f4"/>
      <circle id="Ellipse_2" data-name="Ellipse 2" cx="5.89" cy="5.89" r="5.89" transform="translate(625.84 144.85)" fill="#fff"/>
      <path id="Path_30" data-name="Path 30" d="M791.54,592.39l-23,23.56h-162l-20.76-23.56H256.13a7.36,7.36,0,0,0-7.36,7.36v5.94A41.18,41.18,0,0,0,290,646.87h795.2a41.18,41.18,0,0,0,41.18-41.18v-5.94a7.36,7.36,0,0,0-7.36-7.36Z" transform="translate(-56.59 -55.12)" fill="#535461"/>
      <rect id="Rectangle_3" data-name="Rectangle 3" width="182.77" height="137.74" transform="translate(338.3 208.71)" fill="#fff"/>
      <rect id="Rectangle_4" data-name="Rectangle 4" width="60.92" height="34.43" transform="translate(356.18 220.63)" fill="#6c63ff" opacity="0.2"/>
      <rect id="Rectangle_5" data-name="Rectangle 5" width="71.52" height="7.95" transform="translate(431.67 220.63)" fill="#e6e8ec"/>
      <rect id="Rectangle_6" data-name="Rectangle 6" width="50.33" height="7.95" transform="translate(431.67 233.87)" fill="#e6e8ec"/>
      <rect id="Rectangle_7" data-name="Rectangle 7" width="71.52" height="7.95" transform="translate(431.67 247.11)" fill="#e6e8ec"/>
      <rect id="Rectangle_8" data-name="Rectangle 8" width="147.01" height="7.95" transform="translate(356.18 260.36)" fill="#e6e8ec"/>
      <rect id="Rectangle_9" data-name="Rectangle 9" width="147.01" height="7.95" transform="translate(356.18 273.6)" fill="#e6e8ec"/>
      <rect id="Rectangle_10" data-name="Rectangle 10" width="147.01" height="7.95" transform="translate(356.18 286.85)" fill="#e6e8ec"/>
      <rect id="Rectangle_11" data-name="Rectangle 11" width="135.09" height="7.95" transform="translate(356.18 300.09)" fill="#e6e8ec"/>
      <rect id="Rectangle_12" data-name="Rectangle 12" width="147.01" height="7.95" transform="translate(356.18 313.33)" fill="#e6e8ec"/>
      <rect id="Rectangle_13" data-name="Rectangle 13" width="147.01" height="7.95" transform="translate(356.18 326.58)" fill="#e6e8ec"/>
      <rect id="Rectangle_14" data-name="Rectangle 14" width="182.77" height="137.74" transform="translate(539.61 208.71)" fill="#fff"/>
      <rect id="Rectangle_15" data-name="Rectangle 15" width="60.92" height="34.43" transform="translate(557.48 220.63)" fill="#6c63ff" opacity="0.2"/>
      <rect id="Rectangle_16" data-name="Rectangle 16" width="71.52" height="7.95" transform="translate(632.98 220.63)" fill="#e6e8ec"/>
      <rect id="Rectangle_17" data-name="Rectangle 17" width="50.33" height="7.95" transform="translate(632.98 233.87)" fill="#e6e8ec"/>
      <rect id="Rectangle_18" data-name="Rectangle 18" width="71.52" height="7.95" transform="translate(632.98 247.11)" fill="#e6e8ec"/>
      <rect id="Rectangle_19" data-name="Rectangle 19" width="147.01" height="7.95" transform="translate(557.48 260.36)" fill="#e6e8ec"/>
      <rect id="Rectangle_20" data-name="Rectangle 20" width="147.01" height="7.95" transform="translate(557.48 273.6)" fill="#e6e8ec"/>
      <rect id="Rectangle_21" data-name="Rectangle 21" width="147.01" height="7.95" transform="translate(557.48 286.85)" fill="#e6e8ec"/>
      <rect id="Rectangle_22" data-name="Rectangle 22" width="135.09" height="7.95" transform="translate(557.48 300.09)" fill="#e6e8ec"/>
      <rect id="Rectangle_23" data-name="Rectangle 23" width="147.01" height="7.95" transform="translate(557.48 313.33)" fill="#e6e8ec"/>
      <rect id="Rectangle_24" data-name="Rectangle 24" width="147.01" height="7.95" transform="translate(557.48 326.58)" fill="#e6e8ec"/>
      <rect id="Rectangle_25" data-name="Rectangle 25" width="182.77" height="137.74" transform="translate(740.91 208.71)" fill="#fff"/>
      <rect id="Rectangle_26" data-name="Rectangle 26" width="60.92" height="34.43" transform="translate(758.79 220.63)" fill="#6c63ff" opacity="0.2"/>
      <rect id="Rectangle_27" data-name="Rectangle 27" width="71.52" height="7.95" transform="translate(834.28 220.63)" fill="#e6e8ec"/>
      <rect id="Rectangle_28" data-name="Rectangle 28" width="50.33" height="7.95" transform="translate(834.28 233.87)" fill="#e6e8ec"/>
      <rect id="Rectangle_29" data-name="Rectangle 29" width="71.52" height="7.95" transform="translate(834.28 247.11)" fill="#e6e8ec"/>
      <rect id="Rectangle_30" data-name="Rectangle 30" width="147.01" height="7.95" transform="translate(758.79 260.36)" fill="#e6e8ec"/>
      <rect id="Rectangle_31" data-name="Rectangle 31" width="147.01" height="7.95" transform="translate(758.79 273.6)" fill="#e6e8ec"/>
      <rect id="Rectangle_32" data-name="Rectangle 32" width="147.01" height="7.95" transform="translate(758.79 286.85)" fill="#e6e8ec"/>
      <rect id="Rectangle_33" data-name="Rectangle 33" width="135.09" height="7.95" transform="translate(758.79 300.09)" fill="#e6e8ec"/>
      <rect id="Rectangle_34" data-name="Rectangle 34" width="147.01" height="7.95" transform="translate(758.79 313.33)" fill="#e6e8ec"/>
      <rect id="Rectangle_35" data-name="Rectangle 35" width="147.01" height="7.95" transform="translate(758.79 326.58)" fill="#e6e8ec"/>
      <rect id="Rectangle_36" data-name="Rectangle 36" width="182.77" height="137.74" transform="translate(338.3 363.66)" fill="#fff"/>
      <rect id="Rectangle_37" data-name="Rectangle 37" width="60.92" height="34.43" transform="translate(356.18 375.58)" fill="#6c63ff" opacity="0.2"/>
      <rect id="Rectangle_38" data-name="Rectangle 38" width="71.52" height="7.95" transform="translate(431.67 375.58)" fill="#e6e8ec"/>
      <rect id="Rectangle_39" data-name="Rectangle 39" width="50.33" height="7.95" transform="translate(431.67 388.83)" fill="#e6e8ec"/>
      <rect id="Rectangle_40" data-name="Rectangle 40" width="71.52" height="7.95" transform="translate(431.67 402.07)" fill="#e6e8ec"/>
      <rect id="Rectangle_41" data-name="Rectangle 41" width="147.01" height="7.95" transform="translate(356.18 415.31)" fill="#e6e8ec"/>
      <rect id="Rectangle_42" data-name="Rectangle 42" width="147.01" height="7.95" transform="translate(356.18 428.56)" fill="#e6e8ec"/>
      <rect id="Rectangle_43" data-name="Rectangle 43" width="147.01" height="7.95" transform="translate(356.18 441.8)" fill="#e6e8ec"/>
      <rect id="Rectangle_44" data-name="Rectangle 44" width="135.09" height="7.95" transform="translate(356.18 455.05)" fill="#e6e8ec"/>
      <rect id="Rectangle_45" data-name="Rectangle 45" width="147.01" height="7.95" transform="translate(356.18 468.29)" fill="#e6e8ec"/>
      <rect id="Rectangle_46" data-name="Rectangle 46" width="147.01" height="7.95" transform="translate(356.18 481.53)" fill="#e6e8ec"/>
      <rect id="Rectangle_47" data-name="Rectangle 47" width="182.77" height="137.74" transform="translate(539.61 363.66)" fill="#fff"/>
      <rect id="Rectangle_48" data-name="Rectangle 48" width="60.92" height="34.43" transform="translate(557.48 375.58)" fill="#6c63ff" opacity="0.2"/>
      <rect id="Rectangle_49" data-name="Rectangle 49" width="71.52" height="7.95" transform="translate(632.98 375.58)" fill="#e6e8ec"/>
      <rect id="Rectangle_50" data-name="Rectangle 50" width="50.33" height="7.95" transform="translate(632.98 388.83)" fill="#e6e8ec"/>
      <rect id="Rectangle_51" data-name="Rectangle 51" width="71.52" height="7.95" transform="translate(632.98 402.07)" fill="#e6e8ec"/>
      <rect id="Rectangle_52" data-name="Rectangle 52" width="147.01" height="7.95" transform="translate(557.48 415.31)" fill="#e6e8ec"/>
      <rect id="Rectangle_53" data-name="Rectangle 53" width="147.01" height="7.95" transform="translate(557.48 428.56)" fill="#e6e8ec"/>
      <rect id="Rectangle_54" data-name="Rectangle 54" width="147.01" height="7.95" transform="translate(557.48 441.8)" fill="#e6e8ec"/>
      <rect id="Rectangle_55" data-name="Rectangle 55" width="135.09" height="7.95" transform="translate(557.48 455.05)" fill="#e6e8ec"/>
      <rect id="Rectangle_56" data-name="Rectangle 56" width="147.01" height="7.95" transform="translate(557.48 468.29)" fill="#e6e8ec"/>
      <rect id="Rectangle_57" data-name="Rectangle 57" width="147.01" height="7.95" transform="translate(557.48 481.53)" fill="#e6e8ec"/>
      <rect id="Rectangle_58" data-name="Rectangle 58" width="182.77" height="137.74" transform="translate(740.91 363.66)" opacity="0.1"/>
      <path id="Path_31" data-name="Path 31" d="M498.66,310.18h-282A25.83,25.83,0,0,0,190.78,336V726.74a25.83,25.83,0,0,0,25.87,25.8h282a25.83,25.83,0,0,0,25.87-25.8V336a25.83,25.83,0,0,0-25.86-25.82Z" transform="translate(-56.59 -55.12)" fill="url(#linear-gradient)"/>
      <rect id="Rectangle_59" data-name="Rectangle 59" width="325.8" height="433.08" rx="20" transform="translate(138.17 260.36)" fill="#535461"/>
      <rect id="Rectangle_60" data-name="Rectangle 60" width="292.69" height="351.15" transform="translate(154.72 301.33)" fill="#f1f1f4"/>
      <circle id="Ellipse_3" data-name="Ellipse 3" cx="3.97" cy="3.97" r="3.97" transform="translate(295.77 276.26)" fill="#fff"/>
      <circle id="Ellipse_4" data-name="Ellipse 4" cx="11.92" cy="11.92" r="11.92" transform="translate(287.82 660.33)" fill="#fff"/>
      <rect id="Rectangle_61" data-name="Rectangle 61" width="83.48" height="62.92" transform="translate(167.37 337.21)" fill="#fff"/>
      <rect id="Rectangle_62" data-name="Rectangle 62" width="27.83" height="15.73" transform="translate(175.54 342.66)" fill="#6c63ff" opacity="0.2"/>
      <rect id="Rectangle_63" data-name="Rectangle 63" width="32.67" height="3.63" transform="translate(210.02 342.66)" fill="#e6e8ec"/>
      <rect id="Rectangle_64" data-name="Rectangle 64" width="22.99" height="3.63" transform="translate(210.02 348.71)" fill="#e6e8ec"/>
      <rect id="Rectangle_65" data-name="Rectangle 65" width="32.67" height="3.63" transform="translate(210.02 354.76)" fill="#e6e8ec"/>
      <rect id="Rectangle_66" data-name="Rectangle 66" width="67.15" height="3.63" transform="translate(175.54 360.81)" fill="#e6e8ec"/>
      <rect id="Rectangle_67" data-name="Rectangle 67" width="67.15" height="3.63" transform="translate(175.54 366.86)" fill="#e6e8ec"/>
      <rect id="Rectangle_68" data-name="Rectangle 68" width="67.15" height="3.63" transform="translate(175.54 372.91)" fill="#e6e8ec"/>
      <rect id="Rectangle_69" data-name="Rectangle 69" width="61.71" height="3.63" transform="translate(175.54 378.96)" fill="#e6e8ec"/>
      <rect id="Rectangle_70" data-name="Rectangle 70" width="67.15" height="3.63" transform="translate(175.54 385.01)" fill="#e6e8ec"/>
      <rect id="Rectangle_71" data-name="Rectangle 71" width="67.15" height="3.63" transform="translate(175.54 391.06)" fill="#e6e8ec"/>
      <rect id="Rectangle_72" data-name="Rectangle 72" width="83.48" height="62.92" transform="translate(259.33 337.21)" fill="#fff"/>
      <rect id="Rectangle_73" data-name="Rectangle 73" width="27.83" height="15.73" transform="translate(267.49 342.66)" fill="#6c63ff" opacity="0.2"/>
      <rect id="Rectangle_74" data-name="Rectangle 74" width="32.67" height="3.63" transform="translate(301.98 342.66)" fill="#e6e8ec"/>
      <rect id="Rectangle_75" data-name="Rectangle 75" width="22.99" height="3.63" transform="translate(301.98 348.71)" fill="#e6e8ec"/>
      <rect id="Rectangle_76" data-name="Rectangle 76" width="32.67" height="3.63" transform="translate(301.98 354.76)" fill="#e6e8ec"/>
      <rect id="Rectangle_77" data-name="Rectangle 77" width="67.15" height="3.63" transform="translate(267.49 360.81)" fill="#e6e8ec"/>
      <rect id="Rectangle_78" data-name="Rectangle 78" width="67.15" height="3.63" transform="translate(267.49 366.86)" fill="#e6e8ec"/>
      <rect id="Rectangle_79" data-name="Rectangle 79" width="67.15" height="3.63" transform="translate(267.49 372.91)" fill="#e6e8ec"/>
      <rect id="Rectangle_80" data-name="Rectangle 80" width="61.71" height="3.63" transform="translate(267.49 378.96)" fill="#e6e8ec"/>
      <rect id="Rectangle_81" data-name="Rectangle 81" width="67.15" height="3.63" transform="translate(267.49 385.01)" fill="#e6e8ec"/>
      <rect id="Rectangle_82" data-name="Rectangle 82" width="67.15" height="3.63" transform="translate(267.49 391.06)" fill="#e6e8ec"/>
      <rect id="Rectangle_83" data-name="Rectangle 83" width="83.48" height="62.92" transform="translate(351.28 337.21)" fill="#fff"/>
      <rect id="Rectangle_84" data-name="Rectangle 84" width="27.83" height="15.73" transform="translate(359.45 342.66)" fill="#6c63ff" opacity="0.2"/>
      <rect id="Rectangle_85" data-name="Rectangle 85" width="32.67" height="3.63" transform="translate(393.93 342.66)" fill="#e6e8ec"/>
      <rect id="Rectangle_86" data-name="Rectangle 86" width="22.99" height="3.63" transform="translate(393.93 348.71)" fill="#e6e8ec"/>
      <rect id="Rectangle_87" data-name="Rectangle 87" width="32.67" height="3.63" transform="translate(393.93 354.76)" fill="#e6e8ec"/>
      <rect id="Rectangle_88" data-name="Rectangle 88" width="67.15" height="3.63" transform="translate(359.45 360.81)" fill="#e6e8ec"/>
      <rect id="Rectangle_89" data-name="Rectangle 89" width="67.15" height="3.63" transform="translate(359.45 366.86)" fill="#e6e8ec"/>
      <rect id="Rectangle_90" data-name="Rectangle 90" width="67.15" height="3.63" transform="translate(359.45 372.91)" fill="#e6e8ec"/>
      <rect id="Rectangle_91" data-name="Rectangle 91" width="61.71" height="3.63" transform="translate(359.45 378.96)" fill="#e6e8ec"/>
      <rect id="Rectangle_92" data-name="Rectangle 92" width="67.15" height="3.63" transform="translate(359.45 385.01)" fill="#e6e8ec"/>
      <rect id="Rectangle_93" data-name="Rectangle 93" width="67.15" height="3.63" transform="translate(359.45 391.06)" fill="#e6e8ec"/>
      <rect id="Rectangle_94" data-name="Rectangle 94" width="83.48" height="62.92" transform="translate(167.37 407.99)" fill="#fff"/>
      <rect id="Rectangle_95" data-name="Rectangle 95" width="27.83" height="15.73" transform="translate(175.54 413.44)" fill="#6c63ff" opacity="0.2"/>
      <rect id="Rectangle_96" data-name="Rectangle 96" width="32.67" height="3.63" transform="translate(210.02 413.44)" fill="#e6e8ec"/>
      <rect id="Rectangle_97" data-name="Rectangle 97" width="22.99" height="3.63" transform="translate(210.02 419.49)" fill="#e6e8ec"/>
      <rect id="Rectangle_98" data-name="Rectangle 98" width="32.67" height="3.63" transform="translate(210.02 425.54)" fill="#e6e8ec"/>
      <rect id="Rectangle_99" data-name="Rectangle 99" width="67.15" height="3.63" transform="translate(175.54 431.59)" fill="#e6e8ec"/>
      <rect id="Rectangle_100" data-name="Rectangle 100" width="67.15" height="3.63" transform="translate(175.54 437.64)" fill="#e6e8ec"/>
      <rect id="Rectangle_101" data-name="Rectangle 101" width="67.15" height="3.63" transform="translate(175.54 443.69)" fill="#e6e8ec"/>
      <rect id="Rectangle_102" data-name="Rectangle 102" width="61.71" height="3.63" transform="translate(175.54 449.74)" fill="#e6e8ec"/>
      <rect id="Rectangle_103" data-name="Rectangle 103" width="67.15" height="3.63" transform="translate(175.54 455.79)" fill="#e6e8ec"/>
      <rect id="Rectangle_104" data-name="Rectangle 104" width="67.15" height="3.63" transform="translate(175.54 461.84)" fill="#e6e8ec"/>
      <rect id="Rectangle_105" data-name="Rectangle 105" width="83.48" height="62.92" transform="translate(259.33 407.99)" fill="#fff"/>
      <rect id="Rectangle_106" data-name="Rectangle 106" width="27.83" height="15.73" transform="translate(267.49 413.44)" fill="#6c63ff" opacity="0.2"/>
      <rect id="Rectangle_107" data-name="Rectangle 107" width="32.67" height="3.63" transform="translate(301.98 413.44)" fill="#e6e8ec"/>
      <rect id="Rectangle_108" data-name="Rectangle 108" width="22.99" height="3.63" transform="translate(301.98 419.49)" fill="#e6e8ec"/>
      <rect id="Rectangle_109" data-name="Rectangle 109" width="32.67" height="3.63" transform="translate(301.98 425.54)" fill="#e6e8ec"/>
      <rect id="Rectangle_110" data-name="Rectangle 110" width="67.15" height="3.63" transform="translate(267.49 431.59)" fill="#e6e8ec"/>
      <rect id="Rectangle_111" data-name="Rectangle 111" width="67.15" height="3.63" transform="translate(267.49 437.64)" fill="#e6e8ec"/>
      <rect id="Rectangle_112" data-name="Rectangle 112" width="67.15" height="3.63" transform="translate(267.49 443.69)" fill="#e6e8ec"/>
      <rect id="Rectangle_113" data-name="Rectangle 113" width="61.71" height="3.63" transform="translate(267.49 449.74)" fill="#e6e8ec"/>
      <rect id="Rectangle_114" data-name="Rectangle 114" width="67.15" height="3.63" transform="translate(267.49 455.79)" fill="#e6e8ec"/>
      <rect id="Rectangle_115" data-name="Rectangle 115" width="67.15" height="3.63" transform="translate(267.49 461.84)" fill="#e6e8ec"/>
      <rect id="Rectangle_116" data-name="Rectangle 116" width="83.48" height="62.92" transform="translate(351.28 407.99)" fill="#fff"/>
      <rect id="Rectangle_117" data-name="Rectangle 117" width="27.83" height="15.73" transform="translate(359.45 413.44)" fill="#6c63ff" opacity="0.2"/>
      <rect id="Rectangle_118" data-name="Rectangle 118" width="32.67" height="3.63" transform="translate(393.93 413.44)" fill="#e6e8ec"/>
      <rect id="Rectangle_119" data-name="Rectangle 119" width="22.99" height="3.63" transform="translate(393.93 419.49)" fill="#e6e8ec"/>
      <rect id="Rectangle_120" data-name="Rectangle 120" width="32.67" height="3.63" transform="translate(393.93 425.54)" fill="#e6e8ec"/>
      <rect id="Rectangle_121" data-name="Rectangle 121" width="67.15" height="3.63" transform="translate(359.45 431.59)" fill="#e6e8ec"/>
      <rect id="Rectangle_122" data-name="Rectangle 122" width="67.15" height="3.63" transform="translate(359.45 437.64)" fill="#e6e8ec"/>
      <rect id="Rectangle_123" data-name="Rectangle 123" width="67.15" height="3.63" transform="translate(359.45 443.69)" fill="#e6e8ec"/>
      <rect id="Rectangle_124" data-name="Rectangle 124" width="61.71" height="3.63" transform="translate(359.45 449.74)" fill="#e6e8ec"/>
      <rect id="Rectangle_125" data-name="Rectangle 125" width="67.15" height="3.63" transform="translate(359.45 455.79)" fill="#e6e8ec"/>
      <rect id="Rectangle_126" data-name="Rectangle 126" width="67.15" height="3.63" transform="translate(359.45 461.84)" fill="#e6e8ec"/>
      <rect id="Rectangle_127" data-name="Rectangle 127" width="83.48" height="62.92" transform="translate(167.37 481.57)" fill="#fff"/>
      <rect id="Rectangle_128" data-name="Rectangle 128" width="27.83" height="15.73" transform="translate(175.54 487.02)" fill="#6c63ff" opacity="0.2"/>
      <rect id="Rectangle_129" data-name="Rectangle 129" width="32.67" height="3.63" transform="translate(210.02 487.02)" fill="#e6e8ec"/>
      <rect id="Rectangle_130" data-name="Rectangle 130" width="22.99" height="3.63" transform="translate(210.02 493.07)" fill="#e6e8ec"/>
      <rect id="Rectangle_131" data-name="Rectangle 131" width="32.67" height="3.63" transform="translate(210.02 499.12)" fill="#e6e8ec"/>
      <rect id="Rectangle_132" data-name="Rectangle 132" width="67.15" height="3.63" transform="translate(175.54 505.17)" fill="#e6e8ec"/>
      <rect id="Rectangle_133" data-name="Rectangle 133" width="67.15" height="3.63" transform="translate(175.54 511.22)" fill="#e6e8ec"/>
      <rect id="Rectangle_134" data-name="Rectangle 134" width="67.15" height="3.63" transform="translate(175.54 517.27)" fill="#e6e8ec"/>
      <rect id="Rectangle_135" data-name="Rectangle 135" width="61.71" height="3.63" transform="translate(175.54 523.32)" fill="#e6e8ec"/>
      <rect id="Rectangle_136" data-name="Rectangle 136" width="67.15" height="3.63" transform="translate(175.54 529.37)" fill="#e6e8ec"/>
      <rect id="Rectangle_137" data-name="Rectangle 137" width="67.15" height="3.63" transform="translate(175.54 535.42)" fill="#e6e8ec"/>
      <rect id="Rectangle_138" data-name="Rectangle 138" width="83.48" height="62.92" transform="translate(259.33 481.57)" fill="#fff"/>
      <rect id="Rectangle_139" data-name="Rectangle 139" width="27.83" height="15.73" transform="translate(267.49 487.02)" fill="#6c63ff" opacity="0.2"/>
      <rect id="Rectangle_140" data-name="Rectangle 140" width="32.67" height="3.63" transform="translate(301.98 487.02)" fill="#e6e8ec"/>
      <rect id="Rectangle_141" data-name="Rectangle 141" width="22.99" height="3.63" transform="translate(301.98 493.07)" fill="#e6e8ec"/>
      <rect id="Rectangle_142" data-name="Rectangle 142" width="32.67" height="3.63" transform="translate(301.98 499.12)" fill="#e6e8ec"/>
      <rect id="Rectangle_143" data-name="Rectangle 143" width="67.15" height="3.63" transform="translate(267.49 505.17)" fill="#e6e8ec"/>
      <rect id="Rectangle_144" data-name="Rectangle 144" width="67.15" height="3.63" transform="translate(267.49 511.22)" fill="#e6e8ec"/>
      <rect id="Rectangle_145" data-name="Rectangle 145" width="67.15" height="3.63" transform="translate(267.49 517.27)" fill="#e6e8ec"/>
      <rect id="Rectangle_146" data-name="Rectangle 146" width="61.71" height="3.63" transform="translate(267.49 523.32)" fill="#e6e8ec"/>
      <rect id="Rectangle_147" data-name="Rectangle 147" width="67.15" height="3.63" transform="translate(267.49 529.37)" fill="#e6e8ec"/>
      <rect id="Rectangle_148" data-name="Rectangle 148" width="67.15" height="3.63" transform="translate(267.49 535.42)" fill="#e6e8ec"/>
      <rect id="Rectangle_149" data-name="Rectangle 149" width="83.48" height="62.92" transform="translate(351.28 481.57)" fill="#fff"/>
      <rect id="Rectangle_150" data-name="Rectangle 150" width="27.83" height="15.73" transform="translate(359.45 487.02)" fill="#6c63ff" opacity="0.2"/>
      <rect id="Rectangle_151" data-name="Rectangle 151" width="32.67" height="3.63" transform="translate(393.93 487.02)" fill="#e6e8ec"/>
      <rect id="Rectangle_152" data-name="Rectangle 152" width="22.99" height="3.63" transform="translate(393.93 493.07)" fill="#e6e8ec"/>
      <rect id="Rectangle_153" data-name="Rectangle 153" width="32.67" height="3.63" transform="translate(393.93 499.12)" fill="#e6e8ec"/>
      <rect id="Rectangle_154" data-name="Rectangle 154" width="67.15" height="3.63" transform="translate(359.45 505.17)" fill="#e6e8ec"/>
      <rect id="Rectangle_155" data-name="Rectangle 155" width="67.15" height="3.63" transform="translate(359.45 511.22)" fill="#e6e8ec"/>
      <rect id="Rectangle_156" data-name="Rectangle 156" width="67.15" height="3.63" transform="translate(359.45 517.27)" fill="#e6e8ec"/>
      <rect id="Rectangle_157" data-name="Rectangle 157" width="61.71" height="3.63" transform="translate(359.45 523.32)" fill="#e6e8ec"/>
      <rect id="Rectangle_158" data-name="Rectangle 158" width="67.15" height="3.63" transform="translate(359.45 529.37)" fill="#e6e8ec"/>
      <rect id="Rectangle_159" data-name="Rectangle 159" width="67.15" height="3.63" transform="translate(359.45 535.42)" fill="#e6e8ec"/>
      <rect id="Rectangle_160" data-name="Rectangle 160" width="83.48" height="62.92" transform="translate(167.37 552.35)" fill="#fff"/>
      <rect id="Rectangle_161" data-name="Rectangle 161" width="27.83" height="15.73" transform="translate(175.54 557.8)" fill="#6c63ff" opacity="0.2"/>
      <rect id="Rectangle_162" data-name="Rectangle 162" width="32.67" height="3.63" transform="translate(210.02 557.8)" fill="#e6e8ec"/>
      <rect id="Rectangle_163" data-name="Rectangle 163" width="22.99" height="3.63" transform="translate(210.02 563.85)" fill="#e6e8ec"/>
      <rect id="Rectangle_164" data-name="Rectangle 164" width="32.67" height="3.63" transform="translate(210.02 569.9)" fill="#e6e8ec"/>
      <rect id="Rectangle_165" data-name="Rectangle 165" width="67.15" height="3.63" transform="translate(175.54 575.95)" fill="#e6e8ec"/>
      <rect id="Rectangle_166" data-name="Rectangle 166" width="67.15" height="3.63" transform="translate(175.54 582)" fill="#e6e8ec"/>
      <rect id="Rectangle_167" data-name="Rectangle 167" width="67.15" height="3.63" transform="translate(175.54 588.05)" fill="#e6e8ec"/>
      <rect id="Rectangle_168" data-name="Rectangle 168" width="61.71" height="3.63" transform="translate(175.54 594.1)" fill="#e6e8ec"/>
      <rect id="Rectangle_169" data-name="Rectangle 169" width="67.15" height="3.63" transform="translate(175.54 600.15)" fill="#e6e8ec"/>
      <rect id="Rectangle_170" data-name="Rectangle 170" width="67.15" height="3.63" transform="translate(175.54 606.2)" fill="#e6e8ec"/>
      <rect id="Rectangle_171" data-name="Rectangle 171" width="83.48" height="62.92" transform="translate(259.33 552.35)" fill="#fff"/>
      <rect id="Rectangle_172" data-name="Rectangle 172" width="27.83" height="15.73" transform="translate(267.49 557.8)" fill="#6c63ff" opacity="0.2"/>
      <rect id="Rectangle_173" data-name="Rectangle 173" width="32.67" height="3.63" transform="translate(301.98 557.8)" fill="#e6e8ec"/>
      <rect id="Rectangle_174" data-name="Rectangle 174" width="22.99" height="3.63" transform="translate(301.98 563.85)" fill="#e6e8ec"/>
      <rect id="Rectangle_175" data-name="Rectangle 175" width="32.67" height="3.63" transform="translate(301.98 569.9)" fill="#e6e8ec"/>
      <rect id="Rectangle_176" data-name="Rectangle 176" width="67.15" height="3.63" transform="translate(267.49 575.95)" fill="#e6e8ec"/>
      <rect id="Rectangle_177" data-name="Rectangle 177" width="67.15" height="3.63" transform="translate(267.49 582)" fill="#e6e8ec"/>
      <rect id="Rectangle_178" data-name="Rectangle 178" width="67.15" height="3.63" transform="translate(267.49 588.05)" fill="#e6e8ec"/>
      <rect id="Rectangle_179" data-name="Rectangle 179" width="61.71" height="3.63" transform="translate(267.49 594.1)" fill="#e6e8ec"/>
      <rect id="Rectangle_180" data-name="Rectangle 180" width="67.15" height="3.63" transform="translate(267.49 600.15)" fill="#e6e8ec"/>
      <rect id="Rectangle_181" data-name="Rectangle 181" width="67.15" height="3.63" transform="translate(267.49 606.2)" fill="#e6e8ec"/>
      <rect id="Rectangle_182" data-name="Rectangle 182" width="83.48" height="62.92" transform="translate(351.28 552.35)" opacity="0.1"/>
      <path id="Path_32" data-name="Path 32" d="M283.71,442.62H138.91a14.32,14.32,0,0,0-14.35,14.29V774a14.32,14.32,0,0,0,14.35,14.29h144.8A14.32,14.32,0,0,0,298.06,774V456.92a14.32,14.32,0,0,0-14.35-14.3Z" transform="translate(-56.59 -55.12)" fill="url(#linear-gradient)"/>
      <rect id="Rectangle_183" data-name="Rectangle 183" width="170.85" height="341.7" rx="11" transform="translate(69.3 390.16)" fill="#535461"/>
      <rect id="Rectangle_184" data-name="Rectangle 184" width="145.68" height="278.12" transform="translate(81.88 421.94)" fill="#f1f1f4"/>
      <circle id="Ellipse_5" data-name="Ellipse 5" cx="1.32" cy="1.32" r="1.32" transform="translate(136.18 404.73)" fill="#fff"/>
      <rect id="Rectangle_185" data-name="Rectangle 185" width="29.14" height="2.65" rx="1" transform="translate(144.13 404.72)" fill="#fff"/>
      <circle id="Ellipse_6" data-name="Ellipse 6" cx="9.27" cy="9.27" r="9.27" transform="translate(144.79 704.04)" fill="#fff"/>
      <rect id="Rectangle_186" data-name="Rectangle 186" width="99.34" height="74.87" transform="translate(105.05 438.59)" opacity="0.1"/>
      <rect id="Rectangle_187" data-name="Rectangle 187" width="99.34" height="74.87" transform="translate(105.05 522.82)" fill="#fff"/>
      <rect id="Rectangle_188" data-name="Rectangle 188" width="33.11" height="18.72" transform="translate(114.77 529.3)" fill="#6c63ff" opacity="0.2"/>
      <rect id="Rectangle_189" data-name="Rectangle 189" width="38.87" height="4.32" transform="translate(155.8 529.3)" fill="#e6e8ec"/>
      <rect id="Rectangle_190" data-name="Rectangle 190" width="27.36" height="4.32" transform="translate(155.8 536.5)" fill="#e6e8ec"/>
      <rect id="Rectangle_191" data-name="Rectangle 191" width="38.87" height="4.32" transform="translate(155.8 543.69)" fill="#e6e8ec"/>
      <rect id="Rectangle_192" data-name="Rectangle 192" width="79.91" height="4.32" transform="translate(114.77 550.89)" fill="#e6e8ec"/>
      <rect id="Rectangle_193" data-name="Rectangle 193" width="79.91" height="4.32" transform="translate(114.77 558.09)" fill="#e6e8ec"/>
      <rect id="Rectangle_194" data-name="Rectangle 194" width="79.91" height="4.32" transform="translate(114.77 565.29)" fill="#e6e8ec"/>
      <rect id="Rectangle_195" data-name="Rectangle 195" width="73.43" height="4.32" transform="translate(114.77 572.49)" fill="#e6e8ec"/>
      <rect id="Rectangle_196" data-name="Rectangle 196" width="79.91" height="4.32" transform="translate(114.77 579.69)" fill="#e6e8ec"/>
      <rect id="Rectangle_197" data-name="Rectangle 197" width="79.91" height="4.32" transform="translate(114.77 586.89)" fill="#e6e8ec"/>
      <rect id="Rectangle_198" data-name="Rectangle 198" width="99.34" height="74.87" transform="translate(105.05 607.22)" fill="#fff"/>
      <rect id="Rectangle_199" data-name="Rectangle 199" width="33.11" height="18.72" transform="translate(114.77 613.7)" fill="#6c63ff" opacity="0.2"/>
      <rect id="Rectangle_200" data-name="Rectangle 200" width="38.87" height="4.32" transform="translate(155.8 613.7)" fill="#e6e8ec"/>
      <rect id="Rectangle_201" data-name="Rectangle 201" width="27.36" height="4.32" transform="translate(155.8 620.9)" fill="#e6e8ec"/>
      <rect id="Rectangle_202" data-name="Rectangle 202" width="38.87" height="4.32" transform="translate(155.8 628.1)" fill="#e6e8ec"/>
      <rect id="Rectangle_203" data-name="Rectangle 203" width="79.91" height="4.32" transform="translate(114.77 635.3)" fill="#e6e8ec"/>
      <rect id="Rectangle_204" data-name="Rectangle 204" width="79.91" height="4.32" transform="translate(114.77 642.5)" fill="#e6e8ec"/>
      <rect id="Rectangle_205" data-name="Rectangle 205" width="79.91" height="4.32" transform="translate(114.77 649.7)" fill="#e6e8ec"/>
      <rect id="Rectangle_206" data-name="Rectangle 206" width="73.43" height="4.32" transform="translate(114.77 656.9)" fill="#e6e8ec"/>
      <rect id="Rectangle_207" data-name="Rectangle 207" width="79.91" height="4.32" transform="translate(114.77 664.09)" fill="#e6e8ec"/>
      <rect id="Rectangle_208" data-name="Rectangle 208" width="79.91" height="4.32" transform="translate(114.77 671.29)" fill="#e6e8ec"/>
      <path id="Path_33" data-name="Path 33" d="M600.25,697.71c-6.72-8.15-14.86-17.52-13.72-28.37.92-8.79-1.29-16.91-.85-25.72.62-12.52-1.91-22.33-10.93-30.36-5.27-4.69-14.08-8.38-16.7-7.44-5.2,1.86-10.87,1.15-16.22,2.4-4.06,1-6.77,2.41-8.44,4.24-3.37,3-3.43,7.26-1.89,11.81a19.94,19.94,0,0,0,9.88,28c-3.75,1.56-7,5.17-8.25,12.49a85.414,85.414,0,0,1-4,14.76,23.987,23.987,0,0,1-2.44,1c.18.07.37.12.56.19-.39.15-.79.3-1.18.44a12.874,12.874,0,0,0,2.22.64,84.829,84.829,0,0,1-10.9,19.87s-11.32,2.5-15.72-1.87c0,0,.72.84,1.69,2.1-4.31-1.79-11.37-4.7-17.41-7.1-4.38-1.74-5.51,0-5.45,2.42a8.09,8.09,0,0,0-3.06,1,29.545,29.545,0,0,0-4.06-2.18c-2.52-.62-10.69-5-18.87,10-4.76,8.73-17,24.65-26.35,36.44-18.25,8.39-42,19-50.82,21.69H371.7c-.74-1.21-1.26-2-1.26-2l-.44.29-.19-.29s-11.11,7.69-22.39,7.75a21.222,21.222,0,0,1-4.76-.62c-5.19-1.31-8.84-1.89-11.45-1.84-3.09-.05-4.84.68-5.93,2.06h0a5.434,5.434,0,0,0-.39.57h0a6.7,6.7,0,0,0-.33.63h0c-.1.22-.19.45-.28.69a1.41,1.41,0,0,0,.35,1.18,6.322,6.322,0,0,0,.49.62l.31.34a50,50,0,0,0,7.23,5.59c.93.63,1.91,1.27,2.94,1.93l1.95,1.24,1.74,1.09.7.43.78.48,1.39.85.83.5,1.56.93,1.26.75c3.3,2,6.6,3.84,9.56,5.51l2.08,1.17.2.11,1.33.74,2.31,1.28,1.59.87.74.41.8.43.16.09,1.38.75a2,2,0,0,0,1.61-.44c.4-1.7,1.38-5.34,2.42-5.62s5.58-8.24,6.87-13.54h12.27A54.113,54.113,0,0,0,396.3,778c-3.17,2.26-6.31,3.68-8.75,3.07-5.16-1.28-10.05,1.86-10.54,5l-.06.19v1.44a.417.417,0,0,0,.06.25c.06.08,0,.11,0,.16a3,3,0,0,0,.13.32v.08a3.272,3.272,0,0,0,.23.38l.1.13.2.25.14.14.23.22.17.14.27.2.2.13.33.19.22.12.41.19.21.09c.22.09.45.18.7.26s.86.26,1.39.39l.53.13.77.18.41.09,1.68.34.82.15.67.12,1.54.27,3,.49,2.65.4,3.45.49.76.1,1.24.17,1.78.24,1.22.16h0l3.15.4,1,.12,2,.24c2.61.31,5.14.61,7.46.87l2.69.3,1.36.15.58.06,1.63.18.91.1,1.11.12,1.57.16h.17l1,.1h0a.91.91,0,0,0,1-.89h0v-.1a.89.89,0,0,0,.15-.48,20.652,20.652,0,0,1,.56-4.44c.07-.25.15-.51.23-.76l.1-.29c.11-.31.22-.62.35-.94a6.75,6.75,0,0,0,.23-.69l.06-.22a1.894,1.894,0,0,1,.09-.38c1.27-4.32-.26-12.37-.7-15.53a16.864,16.864,0,0,0-.69-3,1.222,1.222,0,0,0,.24,0,7.158,7.158,0,0,0,1.82-1c9.27-3.31,17.1-7.09,19.57-10.88a16.94,16.94,0,0,1,12,1.25c4.8,2.39,41.13,14.24,58.05,19.72,3,2.62,5.42,4.15,6.73,4,0,0,21.53,3.48,30.19-3.32.77.53,1.25.82,1.25.82s12.58-6.25,14.47-14.37c.61-2.63,1.16-6.52,1.72-10.82a15.73,15.73,0,0,0,4.57-11.06c.39-13.65,5.68-29.24,9.6-43.13,4.76.37,6.6-.52,11-2.68l-.19-.25Zm-72.12,20.44-2.4-.81a20,20,0,0,0,2.09-3.48Zm-13.54,5.74,14.58,8.75.13,1.78a12.771,12.771,0,0,0,.12,4.07c-6.42-5.71-13.94-12.64-14.82-14.6Zm-5.95-12.74c-1.59-.66-2.91-1.25-3.81-1.74l3.38.21a7.547,7.547,0,0,1,.44,1.53Zm-39,14.25s2.52-5.62,8.18,3.75c.88,1.46,2.5,3.77,4.64,6.65L466,733.59a24,24,0,0,0,3.62-8.19Z" transform="translate(-56.59 -55.12)" fill="url(#linear-gradient-4)"/>
      <path id="Path_34" data-name="Path 34" d="M505.85,702.81s-11.54-4.86-20.64-8.5-3.64,8.5-3.64,8.5,15.18,4.25,15.18,4.86,12.75,1.21,12.75,1.21Z" transform="translate(-56.59 -55.12)" fill="#f7c4a7"/>
      <path id="Path_35" data-name="Path 35" d="M505.85,702.81s-11.54-4.86-20.64-8.5-3.64,8.5-3.64,8.5,15.18,4.25,15.18,4.86,12.75,1.21,12.75,1.21Z" transform="translate(-56.59 -55.12)" opacity="0.05"/>
      <path id="Path_36" data-name="Path 36" d="M555,654.85s-20.64-10.93-24.29,10.32A86.75,86.75,0,0,1,515.56,701s-10.93,2.43-15.18-1.82c0,0,10.32,12.14,5.46,13.36,0,0,10.93,7.89,15.79,5.46s8.5-18.82,10.32-23.07S540.45,653.63,555,654.85Z" transform="translate(-56.59 -55.12)" fill="#575988"/>
      <path id="Path_37" data-name="Path 37" d="M555,654.85s-20.64-10.93-24.29,10.32A86.75,86.75,0,0,1,515.56,701s-10.93,2.43-15.18-1.82c0,0,10.32,12.14,5.46,13.36,0,0,10.93,7.89,15.79,5.46s8.5-18.82,10.32-23.07S540.45,653.63,555,654.85Z" transform="translate(-56.59 -55.12)" opacity="0.1"/>
      <path id="Path_38" data-name="Path 38" d="M543.49,647.56s12.75,14.57,13.36,26.71,14.57-12.75,15.79-13.36S560.49,639.67,559.27,633,543.49,647.56,543.49,647.56Z" transform="translate(-56.59 -55.12)" fill="#f7c4a7"/>
      <path id="Path_39" data-name="Path 39" d="M495.7,598.67l-8.04,7.28,3.79,15.33,10.32-9.71-1.21-9.71Z" fill="#f7c4a7"/>
      <path id="Path_40" data-name="Path 40" d="M327.83,706.59H313.87l5.46,13.35,13.36-3.64Z" fill="#f7c4a7"/>
      <path id="Path_41" data-name="Path 41" d="M373.68,759.78s-14.44,10.07-26.81,6.93-15.71-2-17.15,2.09c-1.33,3.72,34.51,23.41,40.22,26.52a.65.65,0,0,0,1-.43c.39-1.65,1.33-5.19,2.33-5.46,1.31-.35,7.3-11.52,7-15.93S373.68,759.78,373.68,759.78Z" transform="translate(-56.59 -55.12)" opacity="0.1"/>
      <path id="Path_42" data-name="Path 42" d="M373.08,759.78s-14.44,10.07-26.81,6.93-15.71-2-17.15,2.09c-1.33,3.72,34.51,23.41,40.22,26.52a.65.65,0,0,0,1-.43c.39-1.65,1.33-5.19,2.33-5.46,1.31-.35,7.3-11.52,7-15.93S373.08,759.78,373.08,759.78Z" transform="translate(-56.59 -55.12)" fill="#f3b5b7"/>
      <path id="Path_43" data-name="Path 43" d="M492.49,735.6l-40.68-5.46s-66.18,31.57-74.07,32.18l1.82,14H391.7c4.86,0,52.21-10.32,58.89-20.64a16.26,16.26,0,0,1,11.54,1.21c6.07,3,64.36,21.86,64.36,21.86Z" transform="translate(-56.59 -55.12)" fill="#575988"/>
      <path id="Path_44" data-name="Path 44" d="M492.49,735.6l-40.68-5.46s-66.18,31.57-74.07,32.18l1.82,14H391.7c4.86,0,52.21-10.32,58.89-20.64a16.26,16.26,0,0,1,11.54,1.21c6.07,3,64.36,21.86,64.36,21.86Z" transform="translate(-56.59 -55.12)" opacity="0.1"/>
      <path id="Path_45" data-name="Path 45" d="M363.65,699.3l-6.68,8.5,6.68,3.64,9.72-7.28Z" fill="#f7c4a7"/>
      <path id="Path_46" data-name="Path 46" d="M536.2,744.7s-21.84-18.7-23.37-22.1-37.34-26.46-39.77-27.07-10.32-4.86-18.21,9.71-37,49.78-37,49.78,9.11,12.75,12.14,12.14,37-29.14,39.46-43.11c0,0,2.43-5.46,7.89,3.64s40.68,52.82,47.36,52.21c0,0,26.11,4.25,31.57-6.07S536.2,744.7,536.2,744.7Z" transform="translate(-56.59 -55.12)" fill="#575988"/>
      <rect id="Rectangle_209" data-name="Rectangle 209" width="90.91" height="68.51" transform="translate(382.57 591.56)" fill="url(#linear-gradient-5)"/>
      <rect id="Rectangle_210" data-name="Rectangle 210" width="83.48" height="62.92" transform="translate(386.28 594.35)" fill="#fff"/>
      <rect id="Rectangle_211" data-name="Rectangle 211" width="27.83" height="15.73" transform="translate(394.45 599.8)" fill="#6c63ff" opacity="0.2"/>
      <rect id="Rectangle_212" data-name="Rectangle 212" width="32.67" height="3.63" transform="translate(428.93 599.8)" fill="#e6e8ec"/>
      <rect id="Rectangle_213" data-name="Rectangle 213" width="22.99" height="3.63" transform="translate(428.93 605.85)" fill="#e6e8ec"/>
      <rect id="Rectangle_214" data-name="Rectangle 214" width="32.67" height="3.63" transform="translate(428.93 611.9)" fill="#e6e8ec"/>
      <rect id="Rectangle_215" data-name="Rectangle 215" width="67.15" height="3.63" transform="translate(394.45 617.95)" fill="#e6e8ec"/>
      <rect id="Rectangle_216" data-name="Rectangle 216" width="67.15" height="3.63" transform="translate(394.45 624)" fill="#e6e8ec"/>
      <rect id="Rectangle_217" data-name="Rectangle 217" width="67.15" height="3.63" transform="translate(394.45 630.05)" fill="#e6e8ec"/>
      <rect id="Rectangle_218" data-name="Rectangle 218" width="61.71" height="3.63" transform="translate(394.45 636.1)" fill="#e6e8ec"/>
      <rect id="Rectangle_219" data-name="Rectangle 219" width="67.15" height="3.63" transform="translate(394.45 642.15)" fill="#e6e8ec"/>
      <rect id="Rectangle_220" data-name="Rectangle 220" width="67.15" height="3.63" transform="translate(394.45 648.2)" fill="#e6e8ec"/>
      <path id="Path_47" data-name="Path 47" d="M548.65,655.76s-7.59,3.34-8.2,17.3-14,37.64-14,37.64l1.21,27.93s14.57,14.57,15.79,23.68S555,777.49,555,777.49s12.14-6.07,14-14,3-27.32,6.07-34.61,1.21-52.82,1.21-52.82l-9.11-15.79-4.86-5.46-12.75,14.57S542.58,660,548.65,655.76Z" transform="translate(-56.59 -55.12)" fill="#f3b5b7"/>
      <path id="Path_48" data-name="Path 48" d="M530.74,729.52s-1.82-21.86,3.64-26.71l10.93-31s3.95-14.87,3.34-16.09-14.27,11.84-14.27,11.84l-9.11,32.18,2.43,34Z" transform="translate(-56.59 -55.12)" opacity="0.1"/>
      <path id="Path_49" data-name="Path 49" d="M530.13,729.52s-1.82-21.86,3.64-26.71l10.93-31s4.25-15.18,3.64-16.39-14.57,12.14-14.57,12.14l-9.11,32.18,2.43,34Z" transform="translate(-56.59 -55.12)" fill="#575988"/>
      <path id="Path_50" data-name="Path 50" d="M534.38,719.81S504,710.1,502.2,707.67s-21.25-18.21-27.93-7.29,24.89,14,24.89,14l32.18,19.43Z" transform="translate(-56.59 -55.12)" fill="#f7c4a7"/>
      <path id="Path_51" data-name="Path 51" d="M421.55,762.86l-9-1.62s-14.72,18.85-22.38,16.94-14.72,6.34-6.62,9c7.32,2.39,38.91,5.74,44.95,6.36a.88.88,0,0,0,1-.86,19.331,19.331,0,0,1,1.34-6.84c1.62-4,0-12.52-.45-15.76a15.68,15.68,0,0,0-1.77-5.45Z" transform="translate(-56.59 -55.12)" opacity="0.1"/>
      <path id="Path_52" data-name="Path 52" d="M421.41,763.45l-9-1.62s-14.7,18.86-22.41,16.94-14.72,6.34-6.62,9c7.32,2.39,38.91,5.74,44.95,6.36a.88.88,0,0,0,1-.86,19.33,19.33,0,0,1,1.34-6.84c1.62-4,0-12.52-.45-15.76a15.681,15.681,0,0,0-1.77-5.45Z" transform="translate(-56.59 -55.12)" fill="#f3b5b7"/>
      <circle id="Ellipse_7" data-name="Ellipse 7" cx="19.43" cy="19.43" r="19.43" transform="translate(472.02 560.57)" opacity="0.1"/>
      <circle id="Ellipse_8" data-name="Ellipse 8" cx="19.43" cy="19.43" r="19.43" transform="translate(470.2 560.57)" fill="#f7c4a7"/>
      <path id="Path_53" data-name="Path 53" d="M565.34,654.24s23.07,7.89,23.07,24.29-12.75,42.5-13.36,63.75-34,18.21-34,18.21-4.86-71.64,0-77.11S567.77,656.67,565.34,654.24Z" transform="translate(-56.59 -55.12)" fill="#575988"/>
      <path id="Path_54" data-name="Path 54" d="M561.09,688.24s-8.5,37.64-28.54,31c0,0-10.32,15.18-3,21.86,0,0,17.61,4.25,29.14-7.29S578.7,718,580.52,704s3-33.39-3-31.57S561.09,688.24,561.09,688.24Z" transform="translate(-56.59 -55.12)" opacity="0.1"/>
      <path id="Path_55" data-name="Path 55" d="M561.7,687.63s-8.5,37.64-28.54,31c0,0-10.32,15.18-3,21.86,0,0,17.61,4.25,29.14-7.29s20-15.79,21.86-29.75,3-33.39-3-31.57S561.7,687.63,561.7,687.63Z" transform="translate(-56.59 -55.12)" fill="#575988"/>
      <path id="Path_56" data-name="Path 56" d="M431.19,784.48a.192.192,0,0,1-.06.17,17.778,17.778,0,0,0-1,3.21,11.848,11.848,0,0,1,.51-1.45,8.808,8.808,0,0,0,.55-1.93Z" transform="translate(-56.59 -55.12)" fill="#dddbe2"/>
      <path id="Path_57" data-name="Path 57" d="M383.87,786c-2.5-.82-3.55-2.17-3.59-3.59-1,2-.38,4.2,3.15,5.36,7.32,2.39,38.92,5.74,44.95,6.36a.88.88,0,0,0,1-.87h0a.89.89,0,0,0-.79-.9C421.94,791.64,391.09,788.35,383.87,786Z" transform="translate(-56.59 -55.12)" fill="#dddbe2"/>
      <path id="Path_58" data-name="Path 58" d="M329.95,767.73a7.481,7.481,0,0,1,.59-1.29,5.921,5.921,0,0,0-1.43,2.36c-1.33,3.72,34.51,23.4,40.22,26.52a.66.66,0,0,0,1-.43h0a.66.66,0,0,0-.32-.73C363.67,790.7,328.63,771.41,329.95,767.73Z" transform="translate(-56.59 -55.12)" fill="#dddbe2"/>
      <path id="Path_59" data-name="Path 59" d="M373.46,788.36c-.32.09-.64.51-.93,1.11h.1c.26-.07.72-.59,1.28-1.4a1.181,1.181,0,0,1-.45.29Z" transform="translate(-56.59 -55.12)" fill="#dddbe2"/>
      <path id="Path_60" data-name="Path 60" d="M543.52,652.22c-1.71,3.77-2.07,8-3.33,12a26.37,26.37,0,0,1-16.25,16.86c6.31,2.52,13.75-.56,18.63-5.66s7.73-11.89,10.47-18.49c7.08,4.76,6.22,15.7,8.59,24.22a26.86,26.86,0,0,0,14.3,17.09,25.6,25.6,0,0,0,21.9-.44c-6.49-7.92-15.73-18.78-14.63-29.32.89-8.54-5.24-15.06-4.81-23.62.6-12.16-4-18.31-12.75-26.11-5.09-4.56,2.92-11-3.64-9.11-2.58.74-5.3-2-7.83-1.11-5,1.8-10.49,1.12-15.65,2.33C511.69,617.14,546,646.71,543.52,652.22Z" transform="translate(-56.59 -55.12)" opacity="0.1"/>
      <path id="Path_61" data-name="Path 61" d="M544.13,651.61c-1.71,3.77-2.07,8-3.33,12a26.37,26.37,0,0,1-16.25,16.86c6.31,2.52,13.75-.56,18.63-5.66s7.73-11.89,10.47-18.49c7.08,4.76,6.22,15.7,8.59,24.22a26.86,26.86,0,0,0,14.3,17.09,25.6,25.6,0,0,0,21.9-.44c-6.49-7.92-15.12-17-14-27.5.89-8.54-.44-17.31,0-25.87.6-12.16-5.35-23.87-14.06-31.67-5.09-4.56-13-5.14-15.57-4.23-5,1.8-10.49,1.12-15.65,2.33C512.3,616.54,546.63,646.1,544.13,651.61Z" transform="translate(-56.59 -55.12)" fill="#b96b6b"/>
      <path id="Path_62" data-name="Path 62" d="M220.42,836.49c35-10.77,55.66-9.88,55.66-9.88l-2.87-16.27a12.3,12.3,0,0,0,2.42-2.13s-3.59-19.75,0-24.69S289.1,733.7,289.1,733.7V718.43c18-6.28,39.05-42.64,39.05-42.64L354.64,744s26.48,52.52,30.07,54.31c2.87,1.43,4.3,13.18,4.77,17.85l-.22.07c.11,1.13.16,1.83.16,1.83l.21-.14v.14a10.3,10.3,0,0,1,1.4-.82c-5.17,5.94-12.91,14.48-19.35,20.12-3.55,3.11,2.82,5.51,5.8,5.46a14.619,14.619,0,0,1,5,.71c15.09,5.21,39.9-13.81,39.9-13.81l-6.21-17.32c1.62-.13,2.62-.19,2.62-.19s-20.2-70.92-29.63-77.66a43,43,0,0,1-8-7.58,28,28,0,0,1-6.33-19.44l3.31-58.19c5.32-.78,8.75-1.43,8.75-1.43s1.24-15.9,1.2-28.1c0-6.35-.26-11.92-1.2-14.1-1.11-2.58-1.46-7.74-1.48-12.92,0-7,.58-13.56.58-13.56s7.18-9.43,17.06-31c4.35-9.49,5.48-17,5.38-22.38a30.53,30.53,0,0,0-.72-7.46,9.35,9.35,0,0,0-4.23-5.87c-5.68-3.48-18.61-12.07-22.42-20.39-4.84-10.56-11.83-12.06-12.11-12.12l-.43-1.86a17.45,17.45,0,0,0,5.62-8.52c1.46-4.5,1.76-9.3,3-13.87.6-2.2,1.43-4.33,2-6.53a25.79,25.79,0,0,0,.81-6.78,21,21,0,0,0-2-9.65c-2.32-4.77-6.94-8.52-12.2-9.14-2.9-.34-6.11.16-8.49-1.53-1.64-1.17-2.5-3.16-4-4.55-2.85-2.7-7.41-2.56-11.12-1.3a23.69,23.69,0,0,0-12.16,9.47c-1.73,2.66-2.94,5.71-5.16,8-1.87,1.91-4.32,3.13-6.38,4.83a13,13,0,0,0-5,10v.9c.1,3.86,2.79,7.7,6.57,8.48a9.7,9.7,0,0,0,3,.08A24.24,24.24,0,0,0,341,488c-.06.32-.13.64-.2,1h.21a34.653,34.653,0,0,1-1.62,4.56h-.29l.73-1.3-10.3-.71a17.26,17.26,0,0,0-8.72,1.63,13.15,13.15,0,0,0-7.91,11.2C312,516,290,533.5,290,533.5c-7.63,12.12-57.46,14.36-57.46,14.36s.22.28.32.43l-1-.19-3.77-.69s-11.67-34.56-22.89-28.28,19.3,40.4,19.3,40.4l8.82.59.89.06a53.855,53.855,0,0,1-1.39,6.63h0c-.12.44-.21.72-.23.79h0s23.2-2.68,42.91-2.25h1.78l1.26-.06c1,10.83,16.44,32.84,16.44,32.84l9.53,2,.72.15a79.681,79.681,0,0,1-11.6,17.59l-3.14,17.51.25-.06-.25,1.41a3.391,3.391,0,0,0,1.45-.76c-6.15,16.32-16.35,41.72-23.44,50.58-10.77,13.47-9.43,35-9.43,35s-10.77,56.56-10.32,66.88a26.6,26.6,0,0,1-3.89,14.13,46.723,46.723,0,0,0-5.54,7.87c-8.08,13.92-21.1,13-21.1,13C207,830.65,220.42,836.49,220.42,836.49ZM289.75,562.7h0l1.16-.46.27-.11,1.11-.48.19-.09,1-.46.22-.1,1.06-.53.25-.13,1-.53h.08l1-.58.24-.14,1-.58.16-.1.87-.53.2-.12.93-.59.21-.14.86-.57.08-.05.88-.61.2-.14.84-.6.13-.09.74-.54.16-.12.77-.59.16-.12.7-.55h.06l.71-.57.15-.12.67-.55.06-.05.6-.51.1-.09.59-.51.09-.08.54-.49h0l.52-.47.07-.07,1-1,1.46-.12c1.24,1.61,1.73,4.46,1.78,7.73-.14,8.39-2.68,18.75-2.68,18.75a58.47,58.47,0,0,1-2.66,15.14,8.919,8.919,0,0,1-3.17-.77s-.06.32-.15.86l-.86-.22-4.37-1.09S297.1,570.34,289.75,562.7Z" transform="translate(-56.59 -55.12)" fill="url(#linear-gradient-6)"/>
      <path id="Path_63" data-name="Path 63" d="M411.48,801.79,419.81,825S397,842.5,382.18,838.88a41.405,41.405,0,0,0-6.8-1.1c-3.07-.23-8.35-2.46-5.09-5.31,10.52-9.2,24.54-26.29,24.54-26.29Z" transform="translate(-56.59 -55.12)" fill="#4f4d59"/>
      <path id="Path_64" data-name="Path 64" d="M273,799.6l3.94,22.35s-20.16-.88-54.34,9.64c0,0-13.15-5.7-2.19-12.71,0,0,12.71.88,20.6-12.71s12.71-11.83,12.71-11.83Z" transform="translate(-56.59 -55.12)" fill="#4f4d59"/>
      <path id="Path_65" data-name="Path 65" d="M377.3,637.45l-3.86,68a28.13,28.13,0,0,0,6.71,19.89,41.233,41.233,0,0,0,7.24,6.75c9.2,6.57,28.92,75.81,28.92,75.81s-22.35,1.31-28.48,5.7c0,0-1.31-17.53-4.82-19.28s-29.36-53-29.36-53L327.78,674.7s-20.6,35.5-38.13,41.63v14.9s-9.64,43.82-13.15,48.64,0,24.1,0,24.1-10.08,12.71-33.3-.88c0,0,7.45-8.33,7-18.41s10.1-65.28,10.1-65.28-1.31-21,9.2-34.18,28-63.54,28-63.54l12.06-25.95Z" transform="translate(-56.59 -55.12)" fill="#787c9c"/>
      <g id="Group_2" data-name="Group 2" opacity="0.1">
        <path id="Path_66" data-name="Path 66" d="M412.14,807.92s-19.72-69.24-28.92-75.81a41.752,41.752,0,0,1-7.61-7.19,27.81,27.81,0,0,1-6.33-19.44l3.86-68-64.63-39.84.88-1.89,67.69,41.72-3.86,68a27.81,27.81,0,0,0,6.33,19.44,41.749,41.749,0,0,0,7.61,7.19c9.2,6.57,28.92,75.81,28.92,75.81s-22.35,1.31-28.48,5.7c0,0-.05-.68-.16-1.79C396.06,808.87,412.14,807.92,412.14,807.92Z" transform="translate(-56.59 -55.12)"/>
        <path id="Path_67" data-name="Path 67" d="M272.35,804s-3.51-19.28,0-24.1,13.15-48.64,13.15-48.64v-14.9c17.53-6.14,38.13-41.63,38.13-41.63l1.53,3.95c-5.94,9.42-21.79,32.81-35.71,37.68v14.9s-9.64,43.82-13.15,48.64,0,24.1,0,24.1-4.89,6.15-15.69,5.32C268.66,808.63,272.35,804,272.35,804Z" transform="translate(-56.59 -55.12)"/>
      </g>
      <path id="Path_68" data-name="Path 68" d="M226.55,561.2l8.61.57,4.54.3v-11l-6-1.08-3.69-.67s-11.39-33.74-22.35-27.61S226.55,561.2,226.55,561.2Z" transform="translate(-56.59 -55.12)" fill="#714b4f"/>
      <path id="Path_69" data-name="Path 69" d="M364.59,470.93s5.7,21.91,7.45,35.5-40.75,2.63-40.75,2.63,16.21-19.72,7-30.24Z" transform="translate(-56.59 -55.12)" fill="#714b4f"/>
      <path id="Path_70" data-name="Path 70" d="M318.58,562.08l-.88,8.33,13.58-.88,13.58-11.83,13.58-38.13L367.22,506l6.57-8.33-2.63-10.08s-1.2,1-3.23,2.6c-6.67,5.11-22.33,15.72-33.77,12.79a13.643,13.643,0,0,1-1.56-.49l-17.09,29.36Z" transform="translate(-56.59 -55.12)" fill="#e6e6f0"/>
      <path id="Path_71" data-name="Path 71" d="M367.66,485s7,1.31,11.83,11.83c3.71,8.09,16.22,16.43,21.81,19.86a9.35,9.35,0,0,1,4.24,5.91c1.13,5,1.56,14.3-4.58,27.7-9.64,21-16.65,30.24-16.65,30.24s-1.75,21,.88,27.17,0,39.88,0,39.88-46,8.76-61.35,0S310.69,605,310.69,605,296.23,635.7,291,636.58l3-17.09s17.09-18.41,18-42.07c0,0,5.26-21.47.88-27.17,0,0-74.06,6.14-78.44.88,0,0,48.64-2.19,56.09-14,0,0,21.47-17.09,22.35-28.48a12.6,12.6,0,0,1,6.57-10.32,17.16,17.16,0,0,1,9.82-2.19l9.9.68S322.09,527,323,531s-.88,35.93-.88,35.93,19.72-42.51,28.48-47.33S369.41,495,369.41,495l-1.75-10" transform="translate(-56.59 -55.12)" opacity="0.1"/>
      <path id="Path_72" data-name="Path 72" d="M318.58,562.08l-.88,8.33,13.58-.88,13.58-11.83,13.58-38.13L367.22,506l6.57-8.33-2.63-10.08s-1.2,1-3.23,2.6l.6,3.46s-10.08,19.79-18.84,24.61-28.48,47.33-28.48,47.33,1.75-32,.88-35.93c-.6-2.68,7.08-17.45,12.07-26.68a13.643,13.643,0,0,1-1.56-.49l-17.09,29.36Z" transform="translate(-56.59 -55.12)" opacity="0.1"/>
      <path id="Path_73" data-name="Path 73" d="M235.16,561.78l4.54.3v-11l-6-1.08C235.81,552.8,235.74,557.66,235.16,561.78Z" transform="translate(-56.59 -55.12)" opacity="0.1"/>
      <path id="Path_74" data-name="Path 74" d="M367.66,483.64s7,1.31,11.83,11.83c3.71,8.09,16.22,16.43,21.81,19.86a9.35,9.35,0,0,1,4.24,5.91c1.13,5,1.56,14.3-4.58,27.7-9.64,21-16.65,30.24-16.65,30.24s-1.75,21,.88,27.17,0,39.88,0,39.88-46,8.76-61.35,0-13.15-42.51-13.15-42.51S296.23,634.39,291,635.26l3-17.09s17.09-18.41,18-42.07c0,0,5.26-21.47.88-27.17,0,0-17.09,18.41-36.37,18s-42.07,2.19-42.07,2.19,4.38-14,0-19.28c0,0,48.64-2.19,56.09-14,0,0,21.47-17.09,22.35-28.48A12.6,12.6,0,0,1,319.46,497a17.16,17.16,0,0,1,9.82-2.19l9.9.68S322.09,525.71,323,529.65s-.88,35.93-.88,35.93,19.72-42.51,28.48-47.33,18.84-24.61,18.84-24.61l-1.75-10" transform="translate(-56.59 -55.12)" fill="#67647e"/>
      <path id="Path_75" data-name="Path 75" d="M377.3,529.65s-10.52,35.5-16.65,39.88S317.27,596.26,306.31,591c0,0-2.63,13.15,1.31,16.21,0,0,40.86-1.6,41.19-1.75,0,0,26.73-3.51,31.11-16.65s9.64-35.5,9.64-35.5Z" transform="translate(-56.59 -55.12)" opacity="0.1"/>
      <ellipse id="Ellipse_9" data-name="Ellipse 9" cx="1.53" cy="2.19" rx="1.53" ry="2.19" transform="translate(263.09 510.25)" fill="#ba7855"/>
      <ellipse id="Ellipse_10" data-name="Ellipse 10" cx="1.53" cy="2.19" rx="1.53" ry="2.19" transform="translate(258.71 525.59)" fill="#ba7855"/>
      <g id="Group_3" data-name="Group 3" opacity="0.1">
        <path id="Path_76" data-name="Path 76" d="M382.12,645.78s2.63-33.74,0-39.88-.88-27.17-.88-27.17,7-9.2,16.65-30.24c6.14-13.4,5.7-22.7,4.58-27.7a9.35,9.35,0,0,0-4.25-5.91c-5.59-3.43-18.1-11.77-21.8-19.86-2.72-5.93-6.13-8.94-8.6-10.43l-.17-1s7,1.31,11.83,11.83c3.71,8.09,16.22,16.43,21.8,19.86a9.35,9.35,0,0,1,4.25,5.91c1.13,5,1.56,14.3-4.58,27.7-9.64,21-16.65,30.24-16.65,30.24s-1.75,21,.88,27.17,0,39.88,0,39.88-32.87,6.26-52.31,2.91C352.51,651.42,382.12,645.78,382.12,645.78Z" transform="translate(-56.59 -55.12)"/>
        <path id="Path_77" data-name="Path 77" d="M323,529.65c.6,2.7,0,18.58-.49,28.3-2.12,4.33-3.45,7.19-3.45,7.19s1.75-32,.88-35.93c-.83-3.75,14.56-31.25,16.09-34l3.19.22S322.09,525.71,323,529.65Z" transform="translate(-56.59 -55.12)"/>
        <path id="Path_78" data-name="Path 78" d="M273.44,566.46c19.28.44,36.37-18,36.37-18a7,7,0,0,1,1.11,2.38c-5,4.71-19,16.38-34.41,16-19.28-.44-42.07,2.19-42.07,2.19s.09-.29.23-.79a348.817,348.817,0,0,1,38.77-1.78Z" transform="translate(-56.59 -55.12)"/>
        <path id="Path_79" data-name="Path 79" d="M307.62,603.27s-.18,2.74-.08,6.85c-4.56,9-12.86,24.52-16.57,25.14l.65-3.6C298,623.65,307.62,603.27,307.62,603.27Z" transform="translate(-56.59 -55.12)"/>
      </g>
      <rect id="Rectangle_221" data-name="Rectangle 221" width="104.75" height="78.94" transform="translate(151.35 437.56)" fill="url(#linear-gradient)"/>
      <rect id="Rectangle_222" data-name="Rectangle 222" width="99.34" height="74.87" transform="translate(154.05 439.59)" fill="#fff"/>
      <rect id="Rectangle_223" data-name="Rectangle 223" width="33.11" height="18.72" transform="translate(163.77 446.07)" fill="#6c63ff" opacity="0.2"/>
      <rect id="Rectangle_224" data-name="Rectangle 224" width="38.87" height="4.32" transform="translate(204.8 446.07)" fill="#e6e8ec"/>
      <rect id="Rectangle_225" data-name="Rectangle 225" width="27.36" height="4.32" transform="translate(204.8 453.27)" fill="#e6e8ec"/>
      <rect id="Rectangle_226" data-name="Rectangle 226" width="38.87" height="4.32" transform="translate(204.8 460.47)" fill="#e6e8ec"/>
      <rect id="Rectangle_227" data-name="Rectangle 227" width="79.91" height="4.32" transform="translate(163.77 467.67)" fill="#e6e8ec"/>
      <rect id="Rectangle_228" data-name="Rectangle 228" width="79.91" height="4.32" transform="translate(163.77 474.87)" fill="#e6e8ec"/>
      <rect id="Rectangle_229" data-name="Rectangle 229" width="79.91" height="4.32" transform="translate(163.77 482.06)" fill="#e6e8ec"/>
      <rect id="Rectangle_230" data-name="Rectangle 230" width="73.43" height="4.32" transform="translate(163.77 489.26)" fill="#e6e8ec"/>
      <rect id="Rectangle_231" data-name="Rectangle 231" width="79.91" height="4.32" transform="translate(163.77 496.46)" fill="#e6e8ec"/>
      <rect id="Rectangle_232" data-name="Rectangle 232" width="79.91" height="4.32" transform="translate(163.77 503.66)" fill="#e6e8ec"/>
      <path id="Path_80" data-name="Path 80" d="M295.35,598.89l9.31,2L312,602.4l-3.94-11-2.74-.69-4.27-1.06s-6.13-30.65-18.4-28.45S295.35,598.89,295.35,598.89Z" transform="translate(-56.59 -55.12)" fill="#714b4f"/>
      <path id="Path_81" data-name="Path 81" d="M304.66,600.85,312,602.4l-3.94-11-2.74-.69a43.769,43.769,0,0,0-.66,10.14Z" transform="translate(-56.59 -55.12)" opacity="0.1"/>
      <path id="Path_82" data-name="Path 82" d="M377.3,528.78s-10.52,35.5-16.65,39.88-43.38,26.73-54.34,21.47c0,0-2.63,13.15,1.31,16.21,0,0,40.86-1.6,41.19-1.75,0,0,26.73-3.51,31.11-16.65s9.64-35.5,9.64-35.5Z" transform="translate(-56.59 -55.12)" fill="#67647e"/>
      <path id="Path_83" data-name="Path 83" d="M364.15,471.81s.89,3.43,2.08,8.42a23.65,23.65,0,0,1-26.12,12c1.05-4.5.82-9-2.26-12.57Z" transform="translate(-56.59 -55.12)" opacity="0.1"/>
      <circle id="Ellipse_11" data-name="Ellipse 11" cx="23.66" cy="23.66" r="23.66" transform="translate(265.5 389.53)" fill="#714b4f"/>
      <path id="Path_84" data-name="Path 84" d="M325.2,461.79a12.669,12.669,0,0,1-5.28.32c-3.69-.76-6.32-4.51-6.41-8.28a12.72,12.72,0,0,1,4.88-9.77c2-1.67,4.4-2.86,6.23-4.72,2.17-2.21,3.35-5.19,5-7.79a23.13,23.13,0,0,1,11.88-9.24c3.63-1.23,8.07-1.37,10.86,1.27,1.43,1.35,2.27,3.3,3.87,4.44,2.32,1.65,5.46,1.16,8.29,1.49a15.8,15.8,0,0,1,11.91,8.92,22.32,22.32,0,0,1,1.16,15.16c-.55,2.15-1.35,4.24-1.94,6.38-1.23,4.46-1.52,9.14-2.94,13.54s-4.35,8.7-8.78,10a27.76,27.76,0,0,0-2.82-14.3,4.1,4.1,0,0,0-2-2.22,4.85,4.85,0,0,0-2.41,0,24,24,0,0,1-16-3.24c-1.68-1-4.3-4.51-6.1-4.86C332.33,458.48,327.6,461.25,325.2,461.79Z" transform="translate(-56.59 -55.12)" opacity="0.1"/>
      <path id="Path_85" data-name="Path 85" d="M325.2,460.91a12.669,12.669,0,0,1-5.28.32c-3.69-.76-6.32-4.51-6.41-8.28a12.72,12.72,0,0,1,4.88-9.77c2-1.67,4.4-2.86,6.23-4.72,2.17-2.21,3.35-5.19,5-7.79a23.13,23.13,0,0,1,11.88-9.24c3.63-1.23,8.07-1.37,10.86,1.27,1.43,1.35,2.27,3.3,3.87,4.44,2.32,1.65,5.46,1.16,8.29,1.49a15.8,15.8,0,0,1,11.91,8.92,22.32,22.32,0,0,1,1.16,15.16c-.55,2.15-1.35,4.24-1.94,6.38-1.23,4.46-1.52,9.14-2.94,13.54s-4.35,8.7-8.78,10a27.76,27.76,0,0,0-2.82-14.3,4.1,4.1,0,0,0-2-2.22,4.85,4.85,0,0,0-2.41,0,24,24,0,0,1-16-3.24c-1.68-1-4.3-4.51-6.1-4.86C332.33,457.6,327.6,460.38,325.2,460.91Z" transform="translate(-56.59 -55.12)" fill="#503f43"/>
      <path id="Path_86" data-name="Path 86" d="M142.76,815.41a11.67,11.67,0,0,0,3.83-5.78c.5-2.3-.48-5.05-2.68-5.89-2.46-.94-5.09.76-7.08,2.49s-4.28,3.69-6.89,3.32a10.48,10.48,0,0,0,3.24-9.81,4.1,4.1,0,0,0-.9-2c-1.37-1.46-3.84-.83-5.48.32-5.2,3.66-6.65,10.72-6.68,17.08-.52-2.29-.08-4.68-.1-7s-.66-5-2.64-6.22a8,8,0,0,0-4-.95c-2.34-.09-4.94.15-6.54,1.86-2,2.12-1.47,5.69.26,8s4.35,3.8,6.77,5.42a15,15,0,0,1,4.84,4.61,4.569,4.569,0,0,1,.36.82H133.7a40.831,40.831,0,0,0,9.06-6.27Z" transform="translate(-56.59 -55.12)" fill="#6c63ff"/>
      <path id="Path_87" data-name="Path 87" d="M1011.76,676.41a11.67,11.67,0,0,0,3.83-5.78c.5-2.3-.48-5.05-2.68-5.89-2.46-.94-5.09.76-7.08,2.49s-4.28,3.69-6.89,3.32a10.48,10.48,0,0,0,3.24-9.81,4.1,4.1,0,0,0-.9-2c-1.37-1.46-3.84-.83-5.48.32-5.2,3.66-6.65,10.72-6.68,17.08-.52-2.29-.08-4.68-.1-7s-.66-5-2.64-6.22a8,8,0,0,0-4-.95c-2.34-.09-4.94.15-6.54,1.86-2,2.12-1.47,5.69.26,8s4.35,3.8,6.77,5.42a15,15,0,0,1,4.84,4.61,4.571,4.571,0,0,1,.36.82h14.65a40.828,40.828,0,0,0,9.04-6.27Z" transform="translate(-56.59 -55.12)" fill="#6c63ff"/>
      <path id="Path_88" data-name="Path 88" d="M1141.74,375.81c-2.07-6.06-5.06-13.74-7.42-15.55a2.211,2.211,0,0,0-.47-.29h-.29v-7.49l-5.58.89a53.34,53.34,0,0,1-2-8.29,3.85,3.85,0,0,0,4.19.84c-.09-.15-.17-.31-.25-.47l.25-.11a10.371,10.371,0,0,1-1.35-5.08,18.512,18.512,0,0,1,.77-4.8c1-3.45,2.69-6.67,3.63-10.14a24.64,24.64,0,0,0,.84-6.85,25,25,0,0,0-2.6-11.3,6.6,6.6,0,0,0-2-2.58,25.482,25.482,0,0,0-2.42-1.18,13.07,13.07,0,0,1-3.52-3.51,31.56,31.56,0,0,0-15.25-10.18,8.93,8.93,0,0,0-4.88-.39c-3.75,1-5.11,5.65-8.15,8.09-2.68,2.15-6.36,2.37-9.73,3.09a16.54,16.54,0,0,0-9.06,4.75,9.831,9.831,0,0,0-2.43,6.55,6.59,6.59,0,0,0,2.68,5.86,8.42,8.42,0,0,0,7.11,1,24.18,24.18,0,0,0,18.31,30.4l.65,1.17h0a50.083,50.083,0,0,1,4.54,11.85c-5.14,2.91-10.75,5.64-14.14,5.9a23.818,23.818,0,0,1-.74,3.92,21.617,21.617,0,0,1-4.45,8.75c-4.61,5.18-25.34,44.34-25.34,44.34s-.65,1.56-1.72,4.22c-12.87,1.58-33.88,3.86-39.74,2.69l-23-21.88s-7.44,5.68-6.79,12.58l-4.15-3.94s-21.88,16.7,12.67,27.64l52.57,6.1c-5,15.11-9.68,32.7-8.23,42.27h.43a19.884,19.884,0,0,0,3-.23l-.09,1.7-5.06,90.66s-1.15,16.7,14.4,24.18c0,0,19,55.85,11.52,62.19,0,0,.89.47,2.39,1.12l-15.63,13.85s-11.52,2.88-17.85,2.3a4.57,4.57,0,0,0-5.05,3.4.76.76,0,0,1-.06.36v1.11a.859.859,0,0,0,.07.37v.14a3.1,3.1,0,0,0,.13.4l.05.12a3.387,3.387,0,0,0,.18.39v.09c.07.13.15.25.23.38l.07.11q.14.2.31.4l.09.1c.12.14.25.27.38.4l.06.05.43.37.09.07c.16.13.34.25.52.37l.12.08c.19.12.39.24.6.35h.09l.65.32h.09l.76.3.16.06.83.27h.14l.91.24h.07l1,.2h.2l1.08.16h.21l1.22.12c2.37.18,5.56.25,9.25.23h0V702a.7.7,0,0,0,.07.37v.14a3.1,3.1,0,0,0,.13.4l.05.12a3.387,3.387,0,0,0,.18.39v.09c.07.13.15.25.23.38l.07.11q.14.2.31.4l.09.1c.12.14.25.27.38.4l.06.05.43.37.09.07c.16.13.34.25.52.37l.13.08c.19.12.39.24.6.35h.09l.65.32h.09l.76.3.16.06.83.27h.14l.91.24h.07l1,.2h.2l1.08.16h.21l1.22.12c15,1.15,62.76-2.3,62.76-2.3v-.13h0v-.17h0c.47-2.23,2.77-15.19-5.39-24.77.24-.25.48-.52.7-.8,0,0-6.33-10.94-2.88-14.4s-17.27-63.34-17.27-63.34-10.94-17.27-4.61-36.85-.58-40.88-.58-40.88,15.1-4.49,15.41-23.08v-1.73a6.107,6.107,0,0,0,1,.06,4.475,4.475,0,0,0,.64,0s-2.88-10.36.58-17.85,10.94-.58,17.85-31.09c5-22.08,9.4-47.48,11.45-59.84A31.509,31.509,0,0,0,1141.74,375.81Zm-131.41,64.77-5.25-5c1.74.72,3.67,1.43,5.83,2.11l19.8,2.3c-8.84.82-17.05,1.26-20.38.6Z" transform="translate(-56.59 -55.12)" fill="url(#linear-gradient-8)"/>
      <path id="Path_89" data-name="Path 89" d="M1060.45,437.65s-40.73,5.66-49.22,4l-22.63-21.5s-21.5,16.41,12.45,27.15l63.36,7.35Z" transform="translate(-56.59 -55.12)" fill="#fdc2cc"/>
      <path id="Path_90" data-name="Path 90" d="M1060.45,437.65s-40.73,5.66-49.22,4l-22.63-21.5s-21.5,16.41,12.45,27.15l63.36,7.35Z" transform="translate(-56.59 -55.12)" opacity="0.05"/>
      <path id="Path_91" data-name="Path 91" d="M1075.16,667.33l-19.8,17.54s-11.31,2.83-17.54,2.26-9.05,9.62,5.66,10.75,61.66-2.26,61.66-2.26,4.53-18.1-9.05-28.29Z" transform="translate(-56.59 -55.12)" fill="#47465a"/>
      <path id="Path_92" data-name="Path 92" d="M1075.16,667.33l-19.8,17.54s-11.31,2.83-17.54,2.26-9.05,9.62,5.66,10.75,61.66-2.26,61.66-2.26,4.53-18.1-9.05-28.29Z" transform="translate(-56.59 -55.12)" opacity="0.05"/>
      <path id="Path_93" data-name="Path 93" d="M1105.85,687.78a31.2,31.2,0,0,1-.71,6.13s-47,3.39-61.66,2.26c-7.07-.54-10.08-3.18-10.62-5.71-.64,2.9,1.92,6.74,10.62,7.41,14.71,1.13,61.66-2.26,61.66-2.26a32.7,32.7,0,0,0,.71-7.83Z" transform="translate(-56.59 -55.12)" fill="#fff" opacity="0.3"/>
      <path id="Path_94" data-name="Path 94" d="M1098.35,346.57s12.45,17.54,7.92,29.42S1130,363.54,1130,363.54s-9.05-15.84-4.53-32.81Z" transform="translate(-56.59 -55.12)" fill="#fdc2cc"/>
      <path id="Path_95" data-name="Path 95" d="M1095,674.11l-19.8,17.54s-11.31,2.83-17.54,2.26-9.05,9.62,5.66,10.75,61.66-2.26,61.66-2.26,4.53-18.1-9.05-28.29Z" transform="translate(-56.59 -55.12)" fill="#47465a"/>
      <path id="Path_96" data-name="Path 96" d="M1100.62,670.15c-2.95,3.64-7.11,5-11.46,5.25-9.89.47-20.78-5.25-20.78-5.25,7.35-6.22-11.31-61.1-11.31-61.1-15.27-7.35-14.14-23.76-14.14-23.76l5-89.07,1.25-22.37,15.84-9.62,12.49,9.58,11.84,9.09a47.6,47.6,0,0,1,1.48,8.83c1.37,20.79-15.06,25.68-15.06,25.68s6.79,20.93.57,40.16,4.53,36.2,4.53,36.2,20.37,58.83,17,62.23S1100.62,670.15,1100.62,670.15Z" transform="translate(-56.59 -55.12)" fill="#565171"/>
      <path id="Path_97" data-name="Path 97" d="M1100.62,670.15c-2.95,3.64-7.11,5-11.46,5.25-9.89.47-20.78-5.25-20.78-5.25,7.35-6.22-11.31-61.1-11.31-61.1-15.27-7.35-14.14-23.76-14.14-23.76l5-89.07,1.25-22.37,15.84-9.62,12.49,9.58,11.84,9.09a47.6,47.6,0,0,1,1.48,8.83c1.37,20.79-15.06,25.68-15.06,25.68s6.79,20.93.57,40.16,4.53,36.2,4.53,36.2,20.37,58.83,17,62.23S1100.62,670.15,1100.62,670.15Z" transform="translate(-56.59 -55.12)" opacity="0.05"/>
      <path id="Path_98" data-name="Path 98" d="M1120.42,676.94c-9.62,11.88-32.24,0-32.24,0a3.6,3.6,0,0,0,1-1.54c4.15-11.28-14-65.21-14-65.21-15.27-7.35-17-24.89-17-24.89l-4-90.65-.52-11.74,23.8-9.09,7.31-2.79,24.33,18.67a44.12,44.12,0,0,1,1.56,11.83c-.31,18.27-15.14,22.68-15.14,22.68s6.79,20.93.57,40.16,4.53,36.2,4.53,36.2,20.37,58.83,17,62.23S1120.42,676.94,1120.42,676.94Z" transform="translate(-56.59 -55.12)" fill="#565171"/>
      <path id="Path_99" data-name="Path 99" d="M1110.66,501.52c-4.89-.7-14.79-6.59-19.88-9.79l-3.18-2s-5.09-14.14-18.67-3.39a50.82,50.82,0,0,1-14.75,8.34,34.512,34.512,0,0,1-6.3,1.58l1.25-22.37,15.84-9.62,12.49,9.58,7.31-2.79,24.33,18.67a44.125,44.125,0,0,1,1.56,11.79Z" transform="translate(-56.59 -55.12)" opacity="0.1"/>
      <path id="Path_100" data-name="Path 100" d="M1141.28,393c-2,12.14-6.34,37.09-11.25,58.79-6.79,30-14.14,23.19-17.54,30.55s-.57,17.54-.57,17.54c-5.66.57-24.33-11.88-24.33-11.88s-5.09-14.14-18.67-3.39-24.33,10.18-24.33,10.18c-2.83-18.67,18.1-68.45,18.1-68.45s20.37-38.47,24.89-43.56a21.238,21.238,0,0,0,4.37-8.6,23.4,23.4,0,0,0,.72-3.85c7.35-.57,25.46-13,25.46-13l14.14-2.26v7.35a2.169,2.169,0,0,1,.46.28c2.33,1.78,5.26,9.33,7.29,15.28a31,31,0,0,1,1.26,15.02Z" transform="translate(-56.59 -55.12)" fill="#f68080"/>
      <path id="Path_101" data-name="Path 101" d="M1130,369.77s-14.71-11.88-36.77,26.59-27.15,32.24-27.15,32.24,4.53,17,2.26,20.37c0,0,15.27-1.13,20.93,0S1130,406,1130,406,1148.14,381.08,1130,369.77Z" transform="translate(-56.59 -55.12)" opacity="0.1"/>
      <path id="Path_102" data-name="Path 102" d="M1129.47,367.5s-14.71-11.88-36.77,26.59-27.15,32.24-27.15,32.24,17.54,19.23,23.19,20.37,40.73-43,40.73-43S1147.57,378.82,1129.47,367.5Z" transform="translate(-56.59 -55.12)" opacity="0.1"/>
      <path id="Path_103" data-name="Path 103" d="M1067.85,445.29c.23-4.19-1.35-11.56-2.26-15.38,3.44-.45,5.61-.75,5.61-.75l4,17Z" transform="translate(-56.59 -55.12)" opacity="0.1"/>
      <path id="Path_104" data-name="Path 104" d="M1126.07,331.87l-27.15,15.84a58,58,0,0,1,3.16,5.18,23.867,23.867,0,0,0,4.76.48c7.25,0,10.63-7.61,15-12.73C1121.53,336.53,1124.86,336.42,1126.07,331.87Z" transform="translate(-56.59 -55.12)" opacity="0.1"/>
      <circle id="Ellipse_12" data-name="Ellipse 12" cx="23.76" cy="23.76" r="23.76" transform="translate(1025.93 249.59)" fill="#fdc2cc"/>
      <rect id="Rectangle_233" data-name="Rectangle 233" width="191.35" height="144.2" transform="translate(821.62 300.43)" fill="url(#linear-gradient)"/>
      <rect id="Rectangle_234" data-name="Rectangle 234" width="182.77" height="137.74" transform="translate(825.91 303.66)" fill="#fff"/>
      <rect id="Rectangle_235" data-name="Rectangle 235" width="60.92" height="34.43" transform="translate(843.79 315.58)" fill="#6c63ff" opacity="0.2"/>
      <rect id="Rectangle_236" data-name="Rectangle 236" width="71.52" height="7.95" transform="translate(919.28 315.58)" fill="#e6e8ec"/>
      <rect id="Rectangle_237" data-name="Rectangle 237" width="50.33" height="7.95" transform="translate(919.28 328.83)" fill="#e6e8ec"/>
      <rect id="Rectangle_238" data-name="Rectangle 238" width="71.52" height="7.95" transform="translate(919.28 342.07)" fill="#e6e8ec"/>
      <rect id="Rectangle_239" data-name="Rectangle 239" width="147.01" height="7.95" transform="translate(843.79 355.31)" fill="#e6e8ec"/>
      <rect id="Rectangle_240" data-name="Rectangle 240" width="147.01" height="7.95" transform="translate(843.79 368.56)" fill="#e6e8ec"/>
      <rect id="Rectangle_241" data-name="Rectangle 241" width="147.01" height="7.95" transform="translate(843.79 381.8)" fill="#e6e8ec"/>
      <rect id="Rectangle_242" data-name="Rectangle 242" width="135.09" height="7.95" transform="translate(843.79 395.05)" fill="#e6e8ec"/>
      <rect id="Rectangle_243" data-name="Rectangle 243" width="147.01" height="7.95" transform="translate(843.79 408.29)" fill="#e6e8ec"/>
      <rect id="Rectangle_244" data-name="Rectangle 244" width="147.01" height="7.95" transform="translate(843.79 421.53)" fill="#e6e8ec"/>
      <path id="Path_105" data-name="Path 105" d="M1076.22,309.25a16.24,16.24,0,0,1,8.9-4.67c3.3-.71,6.92-.93,9.56-3,3-2.39,4.32-6.93,8-7.94a8.77,8.77,0,0,1,4.79.38,31,31,0,0,1,15,10,12.838,12.838,0,0,0,3.45,3.45,25,25,0,0,1,2.38,1.16,6.481,6.481,0,0,1,1.94,2.53,24.59,24.59,0,0,1,1.72,17.27c-.92,3.41-2.58,6.57-3.56,10s-1.23,7.24.57,10.27c-1.74.89-3.94-.23-5-1.85s-1.42-3.62-2-5.49a21,21,0,0,0-6.13-9.53c-1.78-1.58-5-2.64-6.21-.6-.48.79-.45,1.79-.86,2.61-.81,1.6-3.15,1.92-4.7,1a7.21,7.21,0,0,1-2.94-4.36c-2.33-7.88-6.3-12.84-14.73-9.47-3.14,1.26-6.84,2.11-9.86-.05C1072.6,318.11,1073.37,312.47,1076.22,309.25Z" transform="translate(-56.59 -55.12)" opacity="0.1"/>
      <path id="Path_106" data-name="Path 106" d="M1076.22,308.68a16.24,16.24,0,0,1,8.9-4.67c3.3-.71,6.92-.93,9.56-3,3-2.39,4.32-6.93,8-7.94a8.77,8.77,0,0,1,4.79.38,31,31,0,0,1,15,10,12.839,12.839,0,0,0,3.45,3.45,25.01,25.01,0,0,1,2.38,1.16,6.48,6.48,0,0,1,1.94,2.53,24.59,24.59,0,0,1,1.72,17.27c-.92,3.41-2.58,6.57-3.56,10s-1.23,7.24.57,10.27c-1.74.89-3.94-.23-5-1.85s-1.42-3.62-2-5.49a21,21,0,0,0-6.13-9.53c-1.78-1.58-5-2.64-6.21-.6-.48.79-.45,1.79-.86,2.61-.81,1.6-3.15,1.92-4.7,1a7.21,7.21,0,0,1-2.94-4.36c-2.33-7.88-6.3-12.84-14.73-9.47-3.14,1.26-6.84,2.11-9.86-.05C1072.6,317.54,1073.37,311.91,1076.22,308.68Z" transform="translate(-56.59 -55.12)" fill="#b96b6b"/>
      <path id="Path_107" data-name="Path 107" d="M1132.76,362.7h-11.5s-22.63,11.31-23.19,10.75c-.38-.38-3.88.27-6.1.74a23.4,23.4,0,0,0,.72-3.85c7.35-.57,25.46-13,25.46-13l14.14-2.26v7.35A2.173,2.173,0,0,1,1132.76,362.7Z" transform="translate(-56.59 -55.12)" opacity="0.05"/>
      <path id="Path_108" data-name="Path 108" d="M1125.65,694.57a31.209,31.209,0,0,1-.71,6.13s-47,3.39-61.66,2.26c-7.07-.54-10.08-3.18-10.62-5.71-.64,2.9,1.92,6.74,10.62,7.41,14.71,1.13,61.66-2.26,61.66-2.26a32.684,32.684,0,0,0,.71-7.83Z" transform="translate(-56.59 -55.12)" fill="#fff" opacity="0.3"/>
      <g id="Group_4" data-name="Group 4" opacity="0.05">
        <path id="Path_109" data-name="Path 109" d="M1063.56,484c-7.63,6-14.38,8.51-18.81,9.51a8.393,8.393,0,0,0,.14,1.24s10.75.57,24.33-10.18a18.23,18.23,0,0,1,7.27-3.8C1073.53,479.4,1069.3,479.49,1063.56,484Z" transform="translate(-56.59 -55.12)"/>
        <path id="Path_110" data-name="Path 110" d="M1140.34,378c-2-6-5-13.5-7.29-15.28a2.171,2.171,0,0,0-.46-.28s-4.68.16-4.53.28c2.33,1.78,4.59,8.76,6.62,14.71a31,31,0,0,1,1.23,15c-2,12.14-6.34,37.09-11.25,58.79-6.79,30-14.14,23.19-17.54,30.55-2.78,6-1.39,13.94-.79,16.61,2.42,1,4.52,1.63,5.88,1.49,0,0-2.83-10.18.57-17.54s10.75-.57,17.54-30.55c4.91-21.69,9.23-46.65,11.25-58.79A31,31,0,0,0,1140.34,378Z" transform="translate(-56.59 -55.12)"/>
      </g>
      <path id="Path_111" data-name="Path 111" d="M1075.16,446.14l-7.31-.85-56-6.51c-33.94-10.75-12.45-27.15-12.45-27.15l22.63,21.5c6.53,1.31,32.13-1.74,43.6-3.21,3.44-.45,5.61-.75,5.61-.75Z" transform="translate(-56.59 -55.12)" fill="#fdc2cc"/>
      <path id="Path_112" data-name="Path 112" d="M1130,368.64s-14.71-11.88-36.77,26.59-27.15,32.24-27.15,32.24,4.53,17,2.26,20.37c0,0,15.27-1.13,20.93,0s40.73-43,40.73-43S1148.14,379.95,1130,368.64Z" transform="translate(-56.59 -55.12)" fill="#f68080"/>
    </g>
  </g>
</svg>
