<?xml version="1.0" encoding="utf-8"?>
<!-- Generator: Adobe Illustrator 22.1.0, SVG Export Plug-In . SVG Version: 6.00 Build 0)  -->
<svg version="1.1" id="Layer_1" xmlns="http://www.w3.org/2000/svg" xmlns:xlink="http://www.w3.org/1999/xlink" x="0px" y="0px"
	 viewBox="0 0 509 69.7" style="enable-background:new 0 0 509 69.7;" xml:space="preserve">
<style type="text/css">
	.st0{fill:#BCBEC0;}
	.st1{fill:#005DA6;}
	.st2{fill:#2B4982;}
	.st3{fill:#1B3668;}
	.st4{fill:#00A7E0;}
	.st5{fill:#77787B;}
</style>
<g>
	<polygon class="st0" points="18.7,50.7 9.3,34.6 0,50.7 	"/>
	<polygon class="st1" points="41.7,53.6 32.4,37.4 23,53.6 	"/>
	<polygon class="st1" points="60.4,53.6 51,37.4 41.7,53.6 	"/>
	<polygon class="st0" points="83.2,50.7 73.8,34.6 64.5,50.7 	"/>
	<polygon class="st2" points="18.7,50.7 28,34.6 9.3,34.6 	"/>
	<polygon class="st3" points="41.7,53.6 51,37.4 32.4,37.4 	"/>
	<polygon class="st2" points="64.5,50.7 73.8,34.6 55.2,34.6 	"/>
	<polygon class="st4" points="51,69.7 60.4,53.6 41.7,53.6 	"/>
	<polygon class="st4" points="32.3,69.7 41.6,53.6 23,53.6 	"/>
	<polygon class="st0" points="69.7,69.7 60.4,53.6 51,69.7 	"/>
	<polygon class="st0" points="32.3,69.7 23,53.6 13.7,69.7 	"/>
	<polygon class="st0" points="64.5,18.4 73.8,34.6 83.2,18.4 	"/>
	<polygon class="st1" points="41.7,16.2 51,32.3 60.4,16.2 	"/>
	<polygon class="st1" points="23,16.2 32.4,32.3 41.7,16.2 	"/>
	<polygon class="st0" points="0,18.4 9.3,34.6 18.7,18.4 	"/>
	<polygon class="st1" points="64.5,18.4 55.2,34.6 73.8,34.6 	"/>
	<polygon class="st3" points="41.7,16.2 32.4,32.3 51,32.3 	"/>
	<polygon class="st1" points="18.7,18.4 9.3,34.6 28,34.6 	"/>
	<polygon class="st4" points="32.4,0 23,16.2 41.7,16.2 	"/>
	<polygon class="st4" points="51.1,0 41.8,16.2 60.4,16.2 	"/>
	<polygon class="st0" points="13.7,0 23,16.2 32.4,0 	"/>
	<polygon class="st0" points="51.1,0 60.4,16.2 69.7,0 	"/>
</g>
<g>
	<g>
		<path class="st5" d="M216.5,37.3v16.2c0,3.3,0.5,6,1.8,8.6h-8.7c-1-2-1.5-4.1-1.5-6.3v-0.1c-3.1,4.3-9.1,8-17.1,8
			c-8.5,0-19.7-3.9-19.7-15.6c0-11.6,11.2-15.5,19.7-15.5c8,0,14,3.7,17.1,8v-3.3c0-9.6-5.2-12.2-15.3-12.2
			c-5.8,0-10.4,1.5-14.9,4.5l-3-6.4c4.9-3.3,12.4-5.5,19.5-5.5C208.2,17.6,216.5,23.3,216.5,37.3 M208.3,47.4
			c-3.2-6.2-9.8-8.1-15.7-8.1c-5.2,0-13,1.5-13,8.7c0,7.2,7.8,8.8,13,8.8c5.9,0,12.5-2,15.7-8V47.4z"/>
		<path class="st5" d="M226.2,62.1V17.5h8.7v8.6c3.6-6.3,10.3-10.2,18.6-10.2c12.4,0,18.6,8.7,18.6,20.7v25.5h-8.6V37.2
			c0-8.8-4.1-13.5-12.2-13.5c-7,0-12.9,3.6-16.4,10.9v27.4H226.2z"/>
		<polygon class="st1" points="302.2,62.1 293.2,62.1 272.6,17.5 281.9,17.5 297.8,52.9 313.6,17.5 322.8,17.5 		"/>
		<path class="st1" d="M375.7,62.1V17.5h8.1v10.2c3.1-7.2,10.2-11.1,18-11.1v8.3c-8.5,0-15.5,4.1-18,12.5v24.6H375.7z"/>
		<path class="st1" d="M449.2,49c0,8.3-7,14.8-20.4,14.8c-9.3,0-15.9-3.6-21.4-9.2l2.8-5.6c4.5,4.5,10.7,7.4,18.8,7.4
			c7,0,12.5-2.1,12.5-6.6c0-4.5-4.9-5.9-13.9-6.7c-10.4-0.9-20.3-3.7-20.3-13.3c0-8.7,7.7-14.1,20.5-14.1c7.8,0,15.1,3.3,19.6,7.1
			L443,29c-3.7-3.3-8.8-5.8-15.7-5.9c-5.2,0-12.3,1.2-12.3,6.1c0,4.6,6.1,5.4,13.9,5.9C440.5,36.2,449.2,39.9,449.2,49"/>
		<g>
			<circle class="st5" cx="189.3" cy="9.3" r="3.3"/>
			<circle class="st5" cx="201.9" cy="9.3" r="3.3"/>
		</g>
		<path class="st5" d="M159.1,62.3l-22-28.5L122,47.4v14.9h-8.7V6h8.7v30.9L156.5,6h11.7l-24.5,22.2l26,34.1H159.1z"/>
		<path class="st1" d="M347.2,56.3c7,0,11.4-2.1,15.6-6.4l4.7,5.9c-5.2,5.5-11.8,8-20.7,8c-15.3,0-24-9.2-24.1-23.9
			c0-14.8,8.8-24.1,23.4-24.1c13.7,0,22.7,8.4,22.7,24c0,0-37,7.4-37,7.4C334.2,53.3,339.6,56.3,347.2,56.3 M361,34.7
			c-1.7-8.1-7.1-11.5-14.6-11.5c-8,0-13.6,4-15.2,11.9l0,0c-0.4,1.9-0.5,3.7-0.4,5.4L361,34.7z"/>
		<path class="st1" d="M477.1,56.3c7,0,11.4-2.1,15.6-6.4l4.7,5.9c-5.2,5.5-11.8,8-20.7,8c-15.3,0-24-9.2-24.1-23.9
			c0-14.8,8.8-24.1,23.4-24.1c13.7,0,22.7,8.4,22.7,24c0,0-37,7.4-37,7.4C464,53.3,469.4,56.3,477.1,56.3 M490.8,34.7
			c-1.7-8.1-7.1-11.5-14.6-11.5c-8,0-13.6,4-15.2,11.9l0,0c-0.4,1.9-0.5,3.7-0.4,5.4L490.8,34.7z"/>
	</g>
	<g>
		<path class="st1" d="M499.9,18.1h-1.7v-1h4.4v1h-1.7v5.3h-1V18.1z"/>
		<path class="st1" d="M503.5,17.1h1.1l1.6,2.9l1.6-2.9h1.1v6.3h-1v-4.5l-1.7,2.9h0l-1.7-2.9v4.4h-1V17.1z"/>
	</g>
</g>
</svg>
